<svg width="301" height="86" viewBox="0 0 301 86" fill="none" xmlns="http://www.w3.org/2000/svg">
<mask id="path-1-inside-1_348_407" fill="white">
<path d="M300.5 44.5156H222.98V85.3552H300.5L277.75 64.9355L300.5 44.5156Z"/>
</mask>
<path d="M300.5 44.5156H222.98V85.3552H300.5L277.75 64.9355L300.5 44.5156Z" fill="#97713E"/>
<path d="M300.5 44.5156V42.5156H305.722L301.836 46.004L300.5 44.5156ZM222.98 44.5156H220.98V42.5156H222.98V44.5156ZM222.98 85.3552V87.3552H220.98V85.3552H222.98ZM300.5 85.3552L301.836 83.8668L305.722 87.3552H300.5V85.3552ZM277.75 64.9355L276.414 66.4239L274.755 64.9355L276.414 63.4471L277.75 64.9355ZM300.5 46.5156H222.98V42.5156H300.5V46.5156ZM224.98 44.5156V85.3552H220.98V44.5156H224.98ZM222.98 83.3552H300.5V87.3552H222.98V83.3552ZM299.164 86.8436L276.414 66.4239L279.086 63.4471L301.836 83.8668L299.164 86.8436ZM276.414 63.4471L299.164 43.0272L301.836 46.004L279.086 66.4239L276.414 63.4471Z" fill="#6A5232" mask="url(#path-1-inside-1_348_407)"/>
<mask id="path-3-inside-2_348_407" fill="white">
<path d="M0.5 44.5156H78.0203V85.3552H0.5L23.2503 64.9355L0.5 44.5156Z"/>
</mask>
<path d="M0.5 44.5156H78.0203V85.3552H0.5L23.2503 64.9355L0.5 44.5156Z" fill="#97713E"/>
<path d="M0.5 44.5156V42.5156H-4.72243L-0.835925 46.004L0.5 44.5156ZM78.0203 44.5156H80.0203V42.5156H78.0203V44.5156ZM78.0203 85.3552V87.3552H80.0203V85.3552H78.0203ZM0.5 85.3552L-0.835921 83.8668L-4.72246 87.3552H0.5V85.3552ZM23.2503 64.9355L24.5862 66.4239L26.2445 64.9355L24.5862 63.4471L23.2503 64.9355ZM0.5 46.5156H78.0203V42.5156H0.5V46.5156ZM76.0203 44.5156V85.3552H80.0203V44.5156H76.0203ZM78.0203 83.3552H0.5V87.3552H78.0203V83.3552ZM1.83592 86.8436L24.5862 66.4239L21.9144 63.4471L-0.835921 83.8668L1.83592 86.8436ZM24.5862 63.4471L1.83592 43.0272L-0.835925 46.004L21.9144 66.4239L24.5862 63.4471Z" fill="#6A5232" mask="url(#path-3-inside-2_348_407)"/>
<path d="M224.437 84.6417L260.221 71.8436L243.52 71.8436L224.437 71.8436V84.6417Z" fill="#826136" stroke="#826136"/>
<path d="M76.5629 84.6417L40.7792 71.8436L57.4797 71.8436L76.5629 71.8436V84.6417Z" fill="#826136" stroke="#826136"/>
<path d="M39.271 70.2311C39.5467 69.5657 39.9119 68.6767 40.3485 67.597C41.3743 65.0598 42.7943 61.4684 44.3721 57.2492C47.5255 48.8168 51.3183 37.8521 53.8503 27.7761C54.4282 25.4763 54.9417 23.2175 55.3674 21.0415C57.214 21.3664 59.1531 21.6743 61.1753 21.9659C83.4559 25.179 116.508 26.4966 149.603 26.1729C182.7 25.8491 215.909 23.883 238.509 20.5092C241.234 20.1024 243.813 19.6741 246.225 19.224C246.69 22.5179 247.412 26.0695 248.296 29.7095C250.663 39.4626 254.209 49.9427 257.157 57.9716C258.632 61.989 259.959 65.3987 260.918 67.8047C261.312 68.7911 261.643 69.609 261.897 70.2311H39.271ZM262.405 12.5641C259.345 14.1222 254.395 15.5609 247.943 16.8544C247.903 16.4937 247.868 16.1372 247.836 15.7853C247.472 11.7437 247.635 8.41246 248.446 6.08949C248.847 4.94093 249.39 4.08735 250.061 3.50543C250.72 2.93326 251.558 2.57509 252.648 2.49912C254.893 2.34259 258.195 3.38802 262.86 6.32054C265.191 7.78579 265.704 8.89069 265.629 9.58474C265.589 9.94867 265.382 10.3949 264.849 10.9214C264.315 11.4494 263.509 12.002 262.405 12.5641ZM54.4823 13.5053C54.3264 15.1427 54.0822 16.8883 53.7641 18.7152C46.5282 17.3426 41.0923 15.7203 37.9455 13.8675C35.8295 12.6216 35.0756 11.4686 35.0752 10.4885C35.0747 9.46641 35.8779 8.05752 38.3507 6.28699C43.3573 2.70222 46.9415 1.16899 49.4017 1.01326C50.5988 0.937481 51.4897 1.19005 52.169 1.65377C52.8563 2.1229 53.4184 2.87091 53.8385 3.94122C54.6938 6.12005 54.8723 9.40755 54.4823 13.5053Z" fill="#B28850" stroke="#6A5232" stroke-width="2"/>
</svg>
