<svg width="273" height="130" viewBox="0 0 273 130" fill="none" xmlns="http://www.w3.org/2000/svg">
<path fill-rule="evenodd" clip-rule="evenodd" d="M66.0535 4.564C63.772 7.075 61.9058 9.494 61.9058 9.941C61.9058 10.388 59.9588 10.534 57.5784 10.266C52.0947 9.647 49.1462 11.186 41.5448 18.636C33.9873 26.044 28.6454 36.723 27.8586 46C27.6959 47.925 27.2356 49.955 26.8362 50.512C26.4368 51.069 25.1418 54.117 23.9576 57.286C20.0076 67.859 21.666 77.913 28.7792 86.527C30.4617 88.564 36.9408 91 40.6751 91C42.3326 91 42.7949 91.89 43.363 96.173C43.7395 99.018 44.5422 102.271 45.1463 103.402C45.7504 104.533 46.3944 107.394 46.5781 109.761C47.2082 117.92 50.3055 121.756 60.4081 126.89C67.4634 130.476 105.195 130.44 109.522 126.843C110.231 126.254 113.957 125.171 117.8 124.438C127.024 122.678 131.654 120.363 134.035 116.32C135.749 113.409 136.501 113 140.136 112.996C144.857 112.992 149.847 110.342 152.355 106.507C153.704 104.445 153.932 102.522 153.475 97.051C153.158 93.274 152.345 89.295 151.667 88.208C149.787 85.193 145.385 83 141.214 83C137.181 83 137.018 82.217 140.901 81.493C149.072 79.969 152.804 78.571 155.085 76.179C158.441 72.659 158.956 69.187 157.155 62.224C155.981 57.688 154.612 55.42 150.556 51.296C147.741 48.434 145.067 46.322 144.613 46.603C144.159 46.884 144.222 45.971 144.752 44.575C146.293 40.513 143.276 32.883 137.81 27.022C135.235 24.26 132.604 21.944 131.964 21.875C131.324 21.806 130.352 21.637 129.803 21.5C129.253 21.363 127.231 21.194 125.309 21.125C122.197 21.014 121.813 20.699 121.797 18.25C121.784 16.19 120.544 14.466 116.855 11.38C112.796 7.983 110.302 6.858 102.645 4.972C97.5376 3.713 91.5617 2.709 89.3661 2.739C87.1704 2.77 84.16 2.166 82.6752 1.397C81.1915 0.629 77.7777 0 75.0888 0C70.5567 0 69.8987 0.332 66.0535 4.564ZM151.729 41.606C150.944 43.674 151.16 44.895 152.772 47.507C153.89 49.319 155.506 51.071 156.364 51.401C161.391 53.333 165.721 50.179 164.981 45.126C164.398 41.151 161.426 39 156.515 39C153.343 39 152.556 39.429 151.729 41.606ZM185.385 39.667C185.019 40.033 184.719 41.065 184.719 41.959C184.719 43.048 183.191 43.995 180.091 44.825C177.545 45.507 173.772 47.282 171.705 48.77C168.307 51.216 167.998 51.811 168.484 54.988C169.119 59.141 170.38 60.988 172.609 61.032C173.504 61.049 175.081 61.705 176.114 62.488C178.679 64.434 178.44 71.929 175.53 80.734C173.249 87.636 172.708 94.327 174.032 99.25C175.001 102.848 176.816 102.729 179.657 98.881C182.705 94.752 183.686 96.361 183.706 105.527C183.721 112.715 182.067 117 179.277 117C177.432 117 176.541 119.777 177.695 121.935C178.732 123.876 184.285 125.188 187.687 124.297C190.219 123.634 193.199 118.105 194.169 112.273L194.872 108.045L198.782 110.043C203.268 112.335 203.784 114.544 200.214 116.173C197.069 117.609 196.016 120.743 198.009 122.738C200.151 124.883 224.572 125.283 229.822 123.259C232.591 122.191 233.992 122.116 235.549 122.95C238.239 124.392 255.338 124.558 258.785 123.176C260.257 122.586 263.964 119.515 267.023 116.352C271.781 111.433 272.585 110.054 272.585 106.819C272.585 103.605 272.205 102.943 270.052 102.401C268.124 101.917 267.05 102.331 265.556 104.132C264.477 105.435 262.242 108.14 260.591 110.144C258.938 112.149 256.425 114.081 255.005 114.437C252.15 115.155 242.121 112.6 241.062 110.885C240.693 110.287 240.006 106.358 239.536 102.156C239.064 97.953 238.221 94.361 237.659 94.174C237.099 93.987 236.64 93.228 236.64 92.488C236.64 91.748 236.069 90.548 235.371 89.821C234.673 89.095 232.626 86.172 230.823 83.327C229.02 80.481 225.883 76.905 223.854 75.38C221.826 73.854 219.94 72.357 219.666 72.053C218.82 71.117 212.375 68.212 208.496 67.019C203.295 65.419 199.072 60.746 198.266 55.697C197.887 53.325 195.798 48.855 193.407 45.3C189.574 39.601 187.149 37.899 185.385 39.667ZM1.62253 42.517C0.490254 43.652 0 45.931 0 50.069C0 55.472 0.317517 56.347 3.61051 59.997C7.89998 64.752 10.1256 65.015 12.9124 61.096C15.6921 57.185 15.5114 53.415 12.2314 46.929C9.88796 42.295 9.02827 41.455 6.36532 41.196C4.4722 41.011 2.60803 41.531 1.62253 42.517ZM195.394 58.037C195.957 62.804 195.843 63.093 191.948 66.734C180.665 77.281 180.975 77.203 180.975 69.485C180.975 62.272 179.982 60.424 174.984 58.332C172.602 57.335 171.739 56.335 171.739 54.576C171.739 52.686 172.837 51.631 176.927 49.589C179.781 48.165 183.375 47 184.915 47C187.098 47 187.714 46.535 187.714 44.888C187.714 40.626 194.762 52.694 195.394 58.037ZM213.634 72.812C219.91 75.84 229.651 85.103 229.651 88.045C229.651 89.12 230.092 90 230.632 90C232.653 90 236.64 99.842 236.64 104.832C236.64 111.202 238.939 114.098 245.869 116.457C255.031 119.576 258.571 118.128 266.82 107.881C269.31 104.787 269.543 104.69 269.566 106.743C269.581 108.161 267.393 111.221 263.627 115.053L257.663 121.118L247.944 120.922C242.599 120.814 236.814 120.135 235.087 119.413C232.412 118.293 231.627 118.326 229.758 119.637C228.322 120.645 225.43 121.15 221.369 121.103C217.961 121.063 211.916 121.036 207.934 121.043C200.425 121.057 198.903 120.139 203.191 118.182C208.517 115.752 204.481 107.241 197.125 105.392C193.213 104.408 192.144 105.466 190.798 111.649C189.005 119.876 187.612 121.785 183.802 121.225C180.734 120.774 179.429 119 182.166 119C185.379 119 186.716 114.861 186.716 104.912C186.716 96.784 186.402 94.87 184.719 92.727C182.143 89.447 182.165 89.34 185.77 87.472C189.827 85.371 200.523 74.582 201.748 71.355C202.899 68.322 204.813 68.557 213.634 72.812ZM178.241 92.808C177.64 95.206 177.473 95.292 176.563 93.663C176.007 92.669 175.852 90.657 176.22 89.192C176.821 86.794 176.988 86.708 177.897 88.337C178.454 89.331 178.608 91.343 178.241 92.808ZM142.849 94.035C144.153 94.734 144.78 96.131 144.78 98.335C144.78 102.297 143.259 104 139.718 104C137.14 104 137.058 103.822 137.172 98.505C137.299 92.627 138.482 91.695 142.849 94.035Z" fill="#FFFF00"/>
<path fill-rule="evenodd" clip-rule="evenodd" d="M66.0535 4.564C63.772 7.075 61.9058 9.494 61.9058 9.941C61.9058 10.388 59.9588 10.534 57.5784 10.266C52.0947 9.647 49.1462 11.186 41.5448 18.636C33.9873 26.044 28.6454 36.723 27.8586 46C27.6959 47.925 27.2416 49.95 26.8502 50.5C24.3749 53.973 21.9716 63.159 22.0085 69C22.0495 75.432 23.7978 79.866 28.9559 86.624C30.4557 88.588 36.9138 91 40.6751 91C42.3326 91 42.7949 91.89 43.363 96.173C43.7395 99.018 44.5422 102.271 45.1463 103.402C45.7504 104.533 46.3944 107.394 46.5781 109.761C47.0584 115.976 50.0998 121.133 54.9364 123.934C61.9018 127.967 63.6562 128.35 79.2554 129.233C95.326 130.142 106.639 129.24 109.555 126.816C110.246 126.242 113.92 125.178 117.718 124.453C126.496 122.779 132.335 119.798 134.301 115.99C135.645 113.387 136.391 113 140.063 112.996C144.855 112.992 149.829 110.369 152.348 106.518C154.257 103.6 153.944 93.536 151.8 88.915C150.194 85.453 145.803 83 141.214 83C137.181 83 137.018 82.217 140.901 81.493C149.072 79.969 152.804 78.571 155.085 76.179C158.441 72.659 158.956 69.187 157.155 62.224C155.981 57.688 154.612 55.42 150.556 51.296C147.741 48.434 145.067 46.322 144.613 46.603C144.159 46.884 144.222 45.971 144.752 44.575C146.293 40.513 143.276 32.883 137.81 27.022C135.235 24.26 132.604 21.944 131.964 21.875C131.324 21.806 130.352 21.637 129.803 21.5C129.253 21.363 127.231 21.194 125.309 21.125C122.296 21.017 121.815 20.661 121.815 18.539C121.815 16.081 119.972 13.851 114.326 9.475C110.923 6.837 95.3849 2.64 89.3661 2.733C87.1704 2.767 84.16 2.166 82.6752 1.397C81.1915 0.629 77.7777 0 75.0888 0C70.5567 0 69.8987 0.332 66.0535 4.564ZM151.729 41.606C150.944 43.674 151.16 44.895 152.772 47.507C153.89 49.319 155.506 51.071 156.364 51.401C161.391 53.333 165.721 50.179 164.981 45.126C164.398 41.151 161.426 39 156.515 39C153.343 39 152.556 39.429 151.729 41.606ZM185.385 39.667C185.019 40.033 184.719 41.113 184.719 42.067C184.719 43.313 183.359 44.127 179.877 44.964C177.214 45.604 173.481 47.411 171.581 48.979C168.578 51.458 168.181 52.3 168.545 55.425C168.995 59.281 169.618 59.951 174.194 61.5C179.055 63.145 179.219 69.096 174.804 83.5C173.286 88.452 172.839 91.781 173.277 94.878C174.439 103.09 175.881 103.995 179.657 98.881C182.705 94.752 183.686 96.361 183.706 105.527C183.721 112.715 182.067 117 179.277 117C177.432 117 176.541 119.777 177.695 121.935C178.732 123.876 184.285 125.188 187.687 124.297C190.219 123.634 193.199 118.105 194.169 112.273L194.872 108.045L198.782 110.043C203.268 112.335 203.784 114.544 200.214 116.173C197.069 117.609 196.016 120.743 198.009 122.738C200.151 124.883 224.572 125.283 229.822 123.259C232.544 122.209 234.005 122.123 235.496 122.922C238.125 124.331 255.349 124.502 258.785 123.153C260.257 122.576 263.964 119.515 267.023 116.352C271.755 111.459 272.585 110.043 272.585 106.868C272.585 104.042 272.111 102.984 270.634 102.514C268.671 101.891 263.599 104.462 263.599 106.08C263.599 107.86 257.473 113.817 255.005 114.437C252.15 115.155 242.121 112.6 241.062 110.885C240.693 110.287 240.006 106.358 239.536 102.156C239.064 97.953 238.221 94.361 237.659 94.174C237.099 93.987 236.64 93.228 236.64 92.488C236.64 91.748 236.069 90.548 235.371 89.821C234.673 89.095 232.626 86.172 230.823 83.327C229.02 80.481 225.883 76.905 223.854 75.38C221.826 73.854 219.94 72.304 219.666 71.936C219.391 71.568 215.863 69.979 211.825 68.406C202.981 64.962 199.176 61.394 198.266 55.697C197.887 53.325 195.798 48.855 193.407 45.3C189.574 39.601 187.149 37.899 185.385 39.667ZM1.62253 42.517C0.490254 43.652 0 45.931 0 50.069C0 55.472 0.317517 56.347 3.61051 59.997C7.89998 64.752 10.1256 65.015 12.9124 61.096C15.6921 57.185 15.5114 53.415 12.2314 46.929C9.88796 42.295 9.02827 41.455 6.36532 41.196C4.4722 41.011 2.60803 41.531 1.62253 42.517ZM189.711 45.126C189.711 45.68 190.85 47.628 192.242 49.456C193.828 51.539 194.996 54.678 195.374 57.873C195.961 62.837 195.873 63.064 191.948 66.734C180.665 77.281 180.975 77.203 180.975 69.485C180.975 62.272 179.982 60.424 174.984 58.332C172.602 57.335 171.739 56.335 171.739 54.576C171.739 52.686 172.837 51.631 176.927 49.589C179.781 48.165 183.375 47 184.915 47C187.075 47 187.714 46.53 187.714 44.941C187.714 43.809 188.164 43.16 188.713 43.5C189.262 43.84 189.711 44.572 189.711 45.126ZM213.675 72.791C219.95 75.872 229.651 85.133 229.651 88.045C229.651 89.12 230.092 90 230.632 90C232.653 90 236.64 99.842 236.64 104.832C236.64 111.202 238.939 114.098 245.869 116.457C255.031 119.576 258.571 118.128 266.82 107.881C269.31 104.787 269.543 104.69 269.566 106.743C269.581 108.162 267.385 111.229 263.596 115.084L257.601 121.182L247.371 120.668C241.743 120.386 235.674 119.843 233.885 119.462C231.849 119.029 230.091 119.219 229.187 119.97C228.379 120.642 224.982 121.139 221.458 121.1C218.001 121.062 211.916 121.036 207.934 121.043C200.425 121.057 198.903 120.139 203.191 118.182C208.517 115.752 204.481 107.241 197.125 105.392C193.213 104.408 192.144 105.466 190.798 111.649C189.005 119.876 187.612 121.785 183.802 121.225C180.734 120.774 179.429 119 182.166 119C185.379 119 186.716 114.861 186.716 104.912C186.716 96.784 186.402 94.87 184.719 92.727C182.143 89.447 182.165 89.34 185.77 87.472C189.827 85.371 200.523 74.582 201.748 71.355C202.909 68.297 205.042 68.554 213.675 72.791ZM178.241 92.808C177.64 95.206 177.473 95.292 176.563 93.663C176.007 92.669 175.852 90.657 176.22 89.192C176.821 86.794 176.988 86.708 177.897 88.337C178.454 89.331 178.608 91.343 178.241 92.808ZM143.582 94.2C144.241 94.86 144.78 96.795 144.78 98.5C144.78 102.304 143.219 104 139.718 104C137.14 104 137.058 103.822 137.172 98.505C137.284 93.313 137.432 93.009 139.837 93.005C141.237 93.002 142.923 93.54 143.582 94.2Z" fill="#F7D254"/>
<path fill-rule="evenodd" clip-rule="evenodd" d="M66.0535 4.564C63.772 7.075 61.9058 9.494 61.9058 9.941C61.9058 10.388 59.9588 10.534 57.5784 10.266C52.0947 9.647 49.1462 11.186 41.5448 18.636C33.9873 26.044 28.6454 36.723 27.8586 46C27.6959 47.925 27.2416 49.95 26.8502 50.5C24.3749 53.973 21.9716 63.159 22.0085 69C22.0495 75.432 23.7978 79.866 28.9559 86.624C30.4557 88.588 36.9138 91 40.6751 91C42.3326 91 42.7949 91.89 43.363 96.173C43.7395 99.018 44.5422 102.271 45.1463 103.402C45.7504 104.533 46.3944 107.394 46.5781 109.761C47.0584 115.976 50.0998 121.133 54.9364 123.934C61.6752 127.836 63.5883 128.253 79.0687 129.193C95.2112 130.173 106.583 129.287 109.555 126.816C110.246 126.242 113.92 125.178 117.718 124.453C126.496 122.779 132.335 119.798 134.301 115.99C135.645 113.387 136.391 113 140.063 112.996C144.855 112.992 149.829 110.369 152.348 106.518C154.257 103.6 153.944 93.536 151.8 88.915C150.194 85.453 145.803 83 141.214 83C137.181 83 137.018 82.217 140.901 81.493C149.072 79.969 152.804 78.571 155.085 76.179C158.441 72.659 158.956 69.187 157.155 62.224C155.981 57.688 154.612 55.42 150.556 51.296C147.741 48.434 145.067 46.322 144.613 46.603C144.159 46.884 144.222 45.971 144.752 44.575C146.293 40.513 143.276 32.883 137.81 27.022C135.235 24.26 132.604 21.944 131.964 21.875C131.324 21.806 130.352 21.637 129.803 21.5C129.253 21.363 127.231 21.194 125.309 21.125C122.296 21.017 121.815 20.661 121.815 18.539C121.815 16.081 119.972 13.851 114.326 9.475C110.923 6.837 95.3849 2.64 89.3661 2.733C87.1704 2.767 84.16 2.166 82.6752 1.397C81.1915 0.629 77.7777 0 75.0888 0C70.5567 0 69.8987 0.332 66.0535 4.564ZM69.8937 7.326C69.8937 7.505 68.6586 8.742 67.1479 10.076L64.402 12.5L66.8223 9.75C69.0849 7.18 69.8937 6.541 69.8937 7.326ZM56.6428 14.604C56.3113 14.936 55.4496 14.972 54.7297 14.683C53.933 14.364 54.1696 14.127 55.3328 14.079C56.3852 14.036 56.9743 14.272 56.6428 14.604ZM44.9316 20.378C44.9316 20.585 44.1448 21.373 43.1843 22.128C41.6007 23.371 41.5658 23.336 42.8069 21.75C44.1119 20.084 44.9316 19.555 44.9316 20.378ZM122.543 25.604C122.211 25.936 121.349 25.972 120.629 25.683C119.833 25.364 120.069 25.127 121.233 25.079C122.285 25.036 122.874 25.272 122.543 25.604ZM141.592 38.526C141.284 38.834 140.726 38.279 140.35 37.293C139.809 35.868 139.923 35.753 140.91 36.733C141.593 37.412 141.899 38.219 141.592 38.526ZM151.729 41.606C150.944 43.674 151.16 44.895 152.772 47.507C153.89 49.319 155.506 51.071 156.364 51.401C161.391 53.333 165.721 50.179 164.981 45.126C164.398 41.151 161.426 39 156.515 39C153.343 39 152.556 39.429 151.729 41.606ZM185.385 39.667C185.019 40.033 184.719 41.113 184.719 42.067C184.719 43.313 183.359 44.127 179.877 44.964C177.214 45.604 173.481 47.411 171.581 48.979C168.578 51.458 168.181 52.3 168.545 55.425C168.995 59.281 169.618 59.951 174.194 61.5C179.055 63.145 179.219 69.096 174.804 83.5C173.286 88.452 172.839 91.781 173.277 94.878C174.439 103.09 175.881 103.995 179.657 98.881C182.705 94.752 183.686 96.361 183.706 105.527C183.721 112.715 182.067 117 179.277 117C177.432 117 176.541 119.777 177.695 121.935C178.732 123.876 184.285 125.188 187.687 124.297C190.219 123.634 193.199 118.105 194.169 112.273L194.872 108.045L198.782 110.043C203.268 112.335 203.784 114.544 200.214 116.173C197.069 117.609 196.016 120.743 198.009 122.738C200.151 124.883 224.572 125.283 229.822 123.259C232.544 122.209 234.005 122.123 235.496 122.922C238.125 124.331 255.349 124.502 258.785 123.153C260.257 122.576 263.964 119.515 267.023 116.352C271.755 111.459 272.585 110.043 272.585 106.868C272.585 104.042 272.111 102.984 270.634 102.514C268.671 101.891 263.599 104.462 263.599 106.08C263.599 107.86 257.473 113.817 255.005 114.437C252.15 115.155 242.121 112.6 241.062 110.885C240.693 110.287 240.006 106.358 239.536 102.156C239.064 97.953 238.221 94.361 237.659 94.174C237.099 93.987 236.64 93.228 236.64 92.488C236.64 91.748 236.069 90.548 235.371 89.821C234.673 89.095 232.626 86.172 230.823 83.327C229.02 80.481 225.883 76.905 223.854 75.38C221.826 73.854 219.94 72.304 219.666 71.936C219.391 71.568 215.863 69.979 211.825 68.406C203.001 64.969 199.082 61.304 198.165 55.629C197.794 53.343 195.647 48.725 193.354 45.282C189.571 39.602 187.151 37.897 185.385 39.667ZM1.62253 42.517C0.490254 43.652 0 45.931 0 50.069C0 55.472 0.317517 56.347 3.61051 59.997C7.89998 64.752 10.1256 65.015 12.9124 61.096C15.6921 57.185 15.5114 53.415 12.2314 46.929C9.88796 42.295 9.02827 41.455 6.36532 41.196C4.4722 41.011 2.60803 41.531 1.62253 42.517ZM159.486 42.604C159.155 42.936 158.293 42.972 157.573 42.683C156.777 42.364 157.013 42.127 158.176 42.079C159.229 42.036 159.818 42.272 159.486 42.604ZM189.711 45.126C189.711 45.68 190.85 47.628 192.242 49.456C193.828 51.539 194.996 54.678 195.374 57.873C195.961 62.837 195.873 63.064 191.948 66.734C180.665 77.281 180.975 77.203 180.975 69.485C180.975 62.272 179.982 60.424 174.984 58.332C172.602 57.335 171.739 56.335 171.739 54.576C171.739 52.686 172.837 51.631 176.927 49.589C179.781 48.165 183.375 47 184.915 47C187.075 47 187.714 46.53 187.714 44.941C187.714 43.809 188.164 43.16 188.713 43.5C189.262 43.84 189.711 44.572 189.711 45.126ZM32.6124 49.25C32.3358 49.938 32.1092 49.375 32.1092 48C32.1092 46.625 32.3358 46.063 32.6124 46.75C32.89 47.438 32.89 48.563 32.6124 49.25ZM2.65796 51.25C2.38138 51.938 2.15472 51.375 2.15472 50C2.15472 48.625 2.38138 48.063 2.65796 48.75C2.93553 49.438 2.93553 50.563 2.65796 51.25ZM133.796 50.441C133.796 50.684 133.347 51.16 132.798 51.5C132.249 51.84 131.799 51.641 131.799 51.059C131.799 50.477 132.249 50 132.798 50C133.347 50 133.796 50.198 133.796 50.441ZM35.7526 58.526C35.4451 58.834 34.8869 58.279 34.5115 57.293C33.9703 55.868 34.0841 55.753 35.0706 56.733C35.7536 57.412 36.0601 58.219 35.7526 58.526ZM152.895 58.75C154.137 60.336 154.102 60.371 152.518 59.128C150.855 57.821 150.326 57 151.148 57C151.355 57 152.142 57.788 152.895 58.75ZM25.623 68.25C25.3464 68.938 25.1198 68.375 25.1198 67C25.1198 65.625 25.3464 65.063 25.623 65.75C25.9006 66.438 25.9006 67.563 25.623 68.25ZM154.448 68.188C154.13 68.985 153.893 68.748 153.845 67.583C153.802 66.529 154.038 65.939 154.369 66.271C154.701 66.603 154.737 67.466 154.448 68.188ZM213.675 72.791C219.95 75.872 229.651 85.133 229.651 88.045C229.651 89.12 230.092 90 230.632 90C232.653 90 236.64 99.842 236.64 104.832C236.64 111.202 238.939 114.098 245.869 116.457C255.031 119.576 258.571 118.128 266.82 107.881C269.31 104.787 269.543 104.69 269.566 106.743C269.581 108.162 267.385 111.229 263.596 115.084L257.601 121.182L247.371 120.668C241.743 120.386 235.674 119.843 233.885 119.462C231.849 119.029 230.091 119.219 229.187 119.97C228.379 120.642 224.982 121.139 221.458 121.1C218.001 121.062 211.916 121.036 207.934 121.043C200.425 121.057 198.903 120.139 203.191 118.182C208.517 115.752 204.481 107.241 197.125 105.392C193.213 104.408 192.144 105.466 190.798 111.649C189.005 119.876 187.612 121.785 183.802 121.225C180.734 120.774 179.429 119 182.166 119C185.379 119 186.716 114.861 186.716 104.912C186.716 96.784 186.402 94.87 184.719 92.727C182.143 89.447 182.165 89.34 185.77 87.472C189.827 85.371 200.523 74.582 201.748 71.355C202.909 68.297 205.042 68.554 213.675 72.791ZM153.267 73C152.927 73.55 152.115 73.993 151.461 73.985C150.746 73.975 150.869 73.582 151.769 73C153.687 71.758 154.033 71.758 153.267 73ZM130.093 85.25C128.9 100.363 127.766 108.189 126.404 110.705C125.097 113.118 124.237 112.638 124.692 109.75C124.871 108.615 124.109 108.845 122.565 110.392C121.8 111.157 116.039 113.45 109.763 115.487C98.3743 119.183 98.3204 119.19 83.8724 118.803C68.9421 118.403 63.9497 117.17 62.5578 113.537C61.818 111.607 59.4945 111.558 57.6223 113.433C56.3792 114.677 56.0238 114.315 54.9194 110.683C54.2205 108.382 53.4737 102.642 53.26 97.926C52.9185 90.383 53.1082 89.139 54.8336 87.575C56.7157 85.869 57.0502 85.88 63.095 87.829C66.9312 89.067 71.5012 89.77 74.7822 89.629C79.0378 89.446 80.8231 89.872 83.2693 91.655C89.3041 96.052 92.8388 97.159 96.7748 95.885C103.415 93.737 107.91 90.936 108.898 88.332C109.763 86.055 110.294 85.813 113.352 86.31C115.261 86.62 116.822 86.453 116.822 85.937C116.822 85.422 117.608 84.986 118.57 84.969C119.531 84.952 122.114 83.829 124.311 82.474C130.046 78.936 130.572 79.189 130.093 85.25ZM133.486 86.75C133.235 87.713 133.03 86.925 133.03 85C133.03 83.075 133.235 82.287 133.486 83.25C133.738 84.213 133.738 85.787 133.486 86.75ZM53.4117 83.989C53.7612 84.555 53.3608 84.723 52.4722 84.382C50.7428 83.717 50.4263 83 51.8621 83C52.3793 83 53.0763 83.445 53.4117 83.989ZM80.1281 86.662C79.4421 86.94 78.3189 86.94 77.6319 86.662C76.9459 86.385 77.5071 86.158 78.88 86.158C80.2529 86.158 80.8151 86.385 80.1281 86.662ZM178.241 92.808C177.64 95.206 177.473 95.292 176.563 93.663C176.007 92.669 175.852 90.657 176.22 89.192C176.821 86.794 176.988 86.708 177.897 88.337C178.454 89.331 178.608 91.343 178.241 92.808ZM49.6535 89.604C49.322 89.936 48.4603 89.972 47.7404 89.683C46.9436 89.364 47.1802 89.127 48.3435 89.079C49.3959 89.036 49.985 89.272 49.6535 89.604ZM116.994 91.521C114.922 96.075 115.837 105 118.375 105C120.877 105 121.698 90.107 119.241 89.301C118.649 89.107 117.638 90.106 116.994 91.521ZM142.053 90.656C141.377 90.93 140.029 90.947 139.057 90.693C138.086 90.439 138.639 90.215 140.287 90.195C141.934 90.175 142.729 90.382 142.053 90.656ZM64.2642 93.5C63.4505 95.622 64.5628 98 66.368 98C67.4005 98 67.8967 97.027 67.8967 95C67.8967 91.782 65.3286 90.721 64.2642 93.5ZM143.582 94.2C144.241 94.86 144.78 96.795 144.78 98.5C144.78 102.304 143.219 104 139.718 104C137.14 104 137.058 103.822 137.172 98.505C137.284 93.313 137.432 93.009 139.837 93.005C141.237 93.002 142.923 93.54 143.582 94.2ZM147.459 98.188C147.14 98.985 146.904 98.748 146.856 97.583C146.813 96.529 147.048 95.939 147.38 96.271C147.711 96.603 147.747 97.466 147.459 98.188ZM133.48 100.188C133.161 100.985 132.925 100.748 132.877 99.583C132.834 98.529 133.07 97.939 133.401 98.271C133.733 98.603 133.768 99.466 133.48 100.188ZM83.0576 105.531C83.2314 106.923 83.8225 108.062 84.3717 108.062C84.9208 108.062 85.5119 106.923 85.6857 105.531C85.9113 103.727 85.5339 103 84.3717 103C83.2094 103 82.832 103.727 83.0576 105.531ZM94.5162 108.684C94.4084 108.786 87.6606 109.089 79.521 109.358C71.3804 109.627 64.4859 110.083 64.1993 110.37C63.9128 110.657 65.1888 111.815 67.035 112.942C69.3755 114.371 72.2092 115.016 76.3838 115.071C79.6788 115.115 84.8459 115.256 87.8663 115.385C90.8867 115.515 94.9306 115.214 96.8527 114.717C106.457 112.233 111.515 110.573 113.328 109.308C115.081 108.085 114.067 107.951 105.017 108.207C99.3489 108.368 94.6231 108.583 94.5162 108.684ZM116.585 117.687C115.63 117.937 113.833 117.946 112.591 117.707C111.349 117.468 112.129 117.263 114.326 117.252C116.523 117.241 117.539 117.437 116.585 117.687ZM108.086 119.662C107.4 119.94 106.276 119.94 105.589 119.662C104.903 119.385 105.465 119.158 106.837 119.158C108.21 119.158 108.773 119.385 108.086 119.662ZM74.6484 121.687C73.6939 121.937 71.8966 121.946 70.6545 121.707C69.4124 121.468 70.1932 121.263 72.3899 121.252C74.5865 121.241 75.603 121.437 74.6484 121.687ZM84.6003 125.604C84.2688 125.936 83.4071 125.972 82.6872 125.683C81.8904 125.364 82.1271 125.127 83.2903 125.079C84.3427 125.036 84.9318 125.272 84.6003 125.604Z" fill="#FFAA00"/>
<path fill-rule="evenodd" clip-rule="evenodd" d="M66.0535 4.564C63.772 7.075 61.9058 9.494 61.9058 9.941C61.9058 10.388 59.9588 10.534 57.5784 10.266C52.0947 9.647 49.1462 11.186 41.5448 18.636C33.9873 26.044 28.6454 36.723 27.8586 46C27.6959 47.925 27.2416 49.95 26.8502 50.5C24.3749 53.973 21.9716 63.159 22.0085 69C22.0495 75.432 23.7978 79.866 28.9559 86.624C30.4557 88.588 36.9138 91 40.6751 91C42.3326 91 42.7949 91.89 43.363 96.173C43.7395 99.018 44.5422 102.271 45.1463 103.402C45.7504 104.533 46.3944 107.394 46.5781 109.761C47.0584 115.976 50.0998 121.133 54.9364 123.934C61.6752 127.836 63.5883 128.253 79.0687 129.193C95.2112 130.173 106.583 129.287 109.555 126.816C110.246 126.242 113.92 125.178 117.718 124.453C126.496 122.779 132.335 119.798 134.301 115.99C135.645 113.387 136.391 113 140.063 112.996C144.855 112.992 149.829 110.369 152.348 106.518C154.257 103.6 153.944 93.536 151.8 88.915C150.194 85.453 145.803 83 141.214 83C137.181 83 137.018 82.217 140.901 81.493C149.072 79.969 152.804 78.571 155.085 76.179C158.441 72.659 158.956 69.187 157.155 62.224C155.981 57.688 154.612 55.42 150.556 51.296C147.741 48.434 145.067 46.322 144.613 46.603C144.159 46.884 144.222 45.971 144.752 44.575C146.293 40.513 143.276 32.883 137.81 27.022C135.235 24.26 132.604 21.944 131.964 21.875C131.324 21.806 130.352 21.637 129.803 21.5C129.253 21.363 127.231 21.194 125.309 21.125C122.296 21.017 121.815 20.661 121.815 18.539C121.815 16.081 119.972 13.851 114.326 9.475C110.923 6.837 95.3849 2.64 89.3661 2.733C87.1704 2.767 84.16 2.166 82.6752 1.397C81.1915 0.629 77.7777 0 75.0888 0C70.5567 0 69.8987 0.332 66.0535 4.564ZM69.8937 7.326C69.8937 7.505 68.6586 8.742 67.1479 10.076L64.402 12.5L66.8223 9.75C69.0849 7.18 69.8937 6.541 69.8937 7.326ZM56.6428 14.604C56.3113 14.936 55.4496 14.972 54.7297 14.683C53.933 14.364 54.1696 14.127 55.3328 14.079C56.3852 14.036 56.9743 14.272 56.6428 14.604ZM44.9316 20.378C44.9316 20.585 44.1448 21.373 43.1843 22.128C41.6007 23.371 41.5658 23.336 42.8069 21.75C44.1119 20.084 44.9316 19.555 44.9316 20.378ZM122.543 25.604C122.211 25.936 121.349 25.972 120.629 25.683C119.833 25.364 120.069 25.127 121.233 25.079C122.285 25.036 122.874 25.272 122.543 25.604ZM141.592 38.526C141.284 38.834 140.726 38.279 140.35 37.293C139.809 35.868 139.923 35.753 140.91 36.733C141.593 37.412 141.899 38.219 141.592 38.526ZM151.729 41.606C150.944 43.674 151.16 44.895 152.772 47.507C153.89 49.319 155.506 51.071 156.364 51.401C161.391 53.333 165.721 50.179 164.981 45.126C164.398 41.151 161.426 39 156.515 39C153.343 39 152.556 39.429 151.729 41.606ZM185.385 39.667C185.019 40.033 184.719 41.113 184.719 42.067C184.719 43.313 183.359 44.127 179.877 44.964C177.214 45.604 173.481 47.411 171.581 48.979C168.578 51.458 168.181 52.3 168.545 55.425C168.995 59.281 169.618 59.951 174.194 61.5C179.055 63.145 179.219 69.096 174.804 83.5C173.286 88.452 172.839 91.781 173.277 94.878C174.439 103.09 175.881 103.995 179.657 98.881C182.705 94.752 183.686 96.361 183.706 105.527C183.721 112.715 182.067 117 179.277 117C177.432 117 176.541 119.777 177.695 121.935C178.732 123.876 184.285 125.188 187.687 124.297C190.219 123.634 193.199 118.105 194.169 112.273L194.872 108.045L198.782 110.043C203.268 112.335 203.784 114.544 200.214 116.173C197.069 117.609 196.016 120.743 198.009 122.738C200.151 124.883 224.572 125.283 229.822 123.259C232.544 122.209 234.005 122.123 235.496 122.922C238.125 124.331 255.349 124.502 258.785 123.153C260.257 122.576 263.964 119.515 267.023 116.352C271.755 111.459 272.585 110.043 272.585 106.868C272.585 104.042 272.111 102.984 270.634 102.514C268.671 101.891 263.599 104.462 263.599 106.08C263.599 107.86 257.473 113.817 255.005 114.437C252.15 115.155 242.121 112.6 241.062 110.885C240.693 110.287 240.006 106.358 239.536 102.156C239.064 97.953 238.221 94.361 237.659 94.174C237.099 93.987 236.64 93.228 236.64 92.488C236.64 91.748 236.069 90.548 235.371 89.821C234.673 89.095 232.626 86.172 230.823 83.327C229.02 80.481 225.883 76.905 223.854 75.38C221.826 73.854 219.94 72.304 219.666 71.936C219.391 71.568 215.863 69.979 211.825 68.406C203.001 64.969 199.082 61.304 198.165 55.629C197.794 53.343 195.647 48.725 193.354 45.282C189.571 39.602 187.151 37.897 185.385 39.667ZM1.62253 42.517C0.490254 43.652 0 45.931 0 50.069C0 55.472 0.317517 56.347 3.61051 59.997C7.89998 64.752 10.1256 65.015 12.9124 61.096C15.6921 57.185 15.5114 53.415 12.2314 46.929C9.88796 42.295 9.02827 41.455 6.36532 41.196C4.4722 41.011 2.60803 41.531 1.62253 42.517ZM159.486 42.604C159.155 42.936 158.293 42.972 157.573 42.683C156.777 42.364 157.013 42.127 158.176 42.079C159.229 42.036 159.818 42.272 159.486 42.604ZM189.711 45.126C189.711 45.68 190.85 47.628 192.242 49.456C193.828 51.539 194.996 54.678 195.374 57.873C195.961 62.837 195.873 63.064 191.948 66.734C180.665 77.281 180.975 77.203 180.975 69.485C180.975 62.272 179.982 60.424 174.984 58.332C172.602 57.335 171.739 56.335 171.739 54.576C171.739 52.686 172.837 51.631 176.927 49.589C179.781 48.165 183.375 47 184.915 47C187.075 47 187.714 46.53 187.714 44.941C187.714 43.809 188.164 43.16 188.713 43.5C189.262 43.84 189.711 44.572 189.711 45.126ZM32.6124 49.25C32.3358 49.938 32.1092 49.375 32.1092 48C32.1092 46.625 32.3358 46.063 32.6124 46.75C32.89 47.438 32.89 48.563 32.6124 49.25ZM2.65796 51.25C2.38138 51.938 2.15472 51.375 2.15472 50C2.15472 48.625 2.38138 48.063 2.65796 48.75C2.93553 49.438 2.93553 50.563 2.65796 51.25ZM133.796 50.441C133.796 50.684 133.347 51.16 132.798 51.5C132.249 51.84 131.799 51.641 131.799 51.059C131.799 50.477 132.249 50 132.798 50C133.347 50 133.796 50.198 133.796 50.441ZM35.7526 58.526C35.4451 58.834 34.8869 58.279 34.5115 57.293C33.9703 55.868 34.0841 55.753 35.0706 56.733C35.7536 57.412 36.0601 58.219 35.7526 58.526ZM152.895 58.75C154.137 60.336 154.102 60.371 152.518 59.128C150.855 57.821 150.326 57 151.148 57C151.355 57 152.142 57.788 152.895 58.75ZM25.623 68.25C25.3464 68.938 25.1198 68.375 25.1198 67C25.1198 65.625 25.3464 65.063 25.623 65.75C25.9006 66.438 25.9006 67.563 25.623 68.25ZM154.448 68.188C154.13 68.985 153.893 68.748 153.845 67.583C153.802 66.529 154.038 65.939 154.369 66.271C154.701 66.603 154.737 67.466 154.448 68.188ZM213.675 72.791C219.95 75.872 229.651 85.133 229.651 88.045C229.651 89.12 230.092 90 230.632 90C232.653 90 236.64 99.842 236.64 104.832C236.64 111.202 238.939 114.098 245.869 116.457C255.031 119.576 258.571 118.128 266.82 107.881C269.31 104.787 269.543 104.69 269.566 106.743C269.581 108.162 267.385 111.229 263.596 115.084L257.601 121.182L247.371 120.668C241.743 120.386 235.674 119.843 233.885 119.462C231.849 119.029 230.091 119.219 229.187 119.97C228.379 120.642 224.982 121.139 221.458 121.1C218.001 121.062 211.916 121.036 207.934 121.043C200.425 121.057 198.903 120.139 203.191 118.182C208.517 115.752 204.481 107.241 197.125 105.392C193.213 104.408 192.144 105.466 190.798 111.649C189.005 119.876 187.612 121.785 183.802 121.225C180.734 120.774 179.429 119 182.166 119C185.379 119 186.716 114.861 186.716 104.912C186.716 96.784 186.402 94.87 184.719 92.727C182.143 89.447 182.165 89.34 185.77 87.472C189.827 85.371 200.523 74.582 201.748 71.355C202.909 68.297 205.042 68.554 213.675 72.791ZM153.267 73C152.927 73.55 152.115 73.993 151.461 73.985C150.746 73.975 150.869 73.582 151.769 73C153.687 71.758 154.033 71.758 153.267 73ZM130.093 85.25C127.841 113.769 127.024 115.423 113.827 118.176C86.3277 123.913 64.1235 123.299 58.1146 116.634C55.1341 113.327 53.8071 108.302 53.3109 98.434C52.8975 90.218 53.0483 89.193 54.9175 87.499C56.9324 85.672 57.1011 85.673 62.1894 87.514C65.054 88.55 70.318 89.482 73.8876 89.585C82.0901 89.822 81.2454 89.603 84.5444 92.351C89.2962 96.309 92.66 96.932 98.5012 94.935C105.136 92.666 108.49 90.427 109.173 87.813C109.637 86.033 110.249 85.806 113.271 86.297C115.224 86.615 116.822 86.488 116.822 86.017C116.822 85.545 118.057 84.881 119.568 84.542C121.079 84.202 123.437 83.052 124.81 81.985C129.283 78.507 130.563 79.298 130.093 85.25ZM133.486 86.75C133.235 87.713 133.03 86.925 133.03 85C133.03 83.075 133.235 82.287 133.486 83.25C133.738 84.213 133.738 85.787 133.486 86.75ZM53.4117 83.989C53.7612 84.555 53.3608 84.723 52.4722 84.382C50.7428 83.717 50.4263 83 51.8621 83C52.3793 83 53.0763 83.445 53.4117 83.989ZM80.1281 86.662C79.4421 86.94 78.3189 86.94 77.6319 86.662C76.9459 86.385 77.5071 86.158 78.88 86.158C80.2529 86.158 80.8151 86.385 80.1281 86.662ZM178.241 92.808C177.64 95.206 177.473 95.292 176.563 93.663C176.007 92.669 175.852 90.657 176.22 89.192C176.821 86.794 176.988 86.708 177.897 88.337C178.454 89.331 178.608 91.343 178.241 92.808ZM49.6535 89.604C49.322 89.936 48.4603 89.972 47.7404 89.683C46.9436 89.364 47.1802 89.127 48.3435 89.079C49.3959 89.036 49.985 89.272 49.6535 89.604ZM116.994 91.521C114.922 96.075 115.837 105 118.375 105C120.877 105 121.698 90.107 119.241 89.301C118.649 89.107 117.638 90.106 116.994 91.521ZM142.053 90.656C141.377 90.93 140.029 90.947 139.057 90.693C138.086 90.439 138.639 90.215 140.287 90.195C141.934 90.175 142.729 90.382 142.053 90.656ZM64.2642 93.5C63.4505 95.622 64.5628 98 66.368 98C67.4005 98 67.8967 97.027 67.8967 95C67.8967 91.782 65.3286 90.721 64.2642 93.5ZM143.582 94.2C144.241 94.86 144.78 96.795 144.78 98.5C144.78 102.304 143.219 104 139.718 104C137.14 104 137.058 103.822 137.172 98.505C137.284 93.313 137.432 93.009 139.837 93.005C141.237 93.002 142.923 93.54 143.582 94.2ZM147.459 98.188C147.14 98.985 146.904 98.748 146.856 97.583C146.813 96.529 147.048 95.939 147.38 96.271C147.711 96.603 147.747 97.466 147.459 98.188ZM133.48 100.188C133.161 100.985 132.925 100.748 132.877 99.583C132.834 98.529 133.07 97.939 133.401 98.271C133.733 98.603 133.768 99.466 133.48 100.188ZM83.0576 105.531C83.2314 106.923 83.8225 108.062 84.3717 108.062C84.9208 108.062 85.5119 106.923 85.6857 105.531C85.9113 103.727 85.5339 103 84.3717 103C83.2094 103 82.832 103.727 83.0576 105.531ZM84.6003 125.604C84.2688 125.936 83.4071 125.972 82.6872 125.683C81.8904 125.364 82.1271 125.127 83.2903 125.079C84.3427 125.036 84.9318 125.272 84.6003 125.604Z" fill="#AB8A58"/>
<path fill-rule="evenodd" clip-rule="evenodd" d="M72.8033 4.77298C69.699 6.94998 64.9662 12.262 64.9302 13.608C64.9123 14.291 62.6387 14.712 59.0013 14.706C53.7752 14.698 52.5321 15.115 48.1308 18.35C43.38 21.843 36.5734 31.444 34.0342 38.234C32.1221 43.345 32.4856 52.153 34.7841 56.441C35.9453 58.608 36.7621 60.516 36.5973 60.68C36.0821 61.196 30.9689 58.538 30.9609 57.75C30.9469 56.422 28.242 56.952 26.9251 58.541C25.1817 60.644 25.649 72.474 27.63 76.412C30.0643 81.249 34.0312 84.946 37.8944 85.977C42.6991 87.259 47.8153 87.363 51.4218 86.251L54.4172 85.328L50.1737 83.144C47.8402 81.942 45.9301 80.468 45.9301 79.868C45.9301 78.38 51.257 79.463 58.5749 82.442C63.8199 84.576 71.673 85.89 82.4745 86.441C84.8979 86.565 86.4136 87.26 87.0975 88.563C89.5997 93.327 94.1268 94.231 100.563 91.25C104.862 89.259 106.074 88.02 108.877 82.75C111.09 78.59 112.745 77.968 113.537 81C114.482 84.616 118.983 83.452 124.687 78.115C127.551 75.436 128.191 75.238 130.919 76.191C132.591 76.775 137.286 77.039 141.352 76.777C150.647 76.18 153.846 73.64 154.227 66.554C154.522 61.071 152.306 57.561 145.7 53.046L141.084 49.891L137.578 51.963C134.443 53.815 133.934 53.871 132.793 52.494C131.29 50.681 131.381 50.566 135.294 49.319C137.152 48.727 139.029 47.008 140.237 44.79C142.154 41.271 142.155 41.149 140.294 37.016C139.254 34.707 136.395 31.171 133.939 29.159C129.841 25.801 128.997 25.514 123.648 25.674C117.229 25.866 117.845 26.591 117.429 18.351C117.37 17.169 116.198 15.319 114.825 14.239C111.433 11.572 95.4678 6.99898 89.5478 6.99998C86.9038 6.99998 83.8075 6.50098 82.6693 5.88998C78.202 3.49598 75.1207 3.14698 72.8033 4.77298ZM155.934 45.176C156.175 46.884 157.011 47.586 159.087 47.824C161.543 48.106 161.87 47.845 161.583 45.824C161.342 44.116 160.506 43.414 158.43 43.176C155.974 42.894 155.647 43.155 155.934 45.176ZM3.66145 45.667C2.10282 47.227 3.0993 53.618 5.3369 56.418C9.95188 62.194 12.8525 56.725 9.4726 48.622C8.05576 45.227 5.43175 43.893 3.66145 45.667ZM130.381 82.25C130.184 82.938 129.582 88.9 129.043 95.5C127.586 113.339 126.052 115.626 113.827 118.176C99.8521 121.092 91.1583 122.11 81.0327 122.017C58.7367 121.811 54.1766 117.877 53.261 98.059C53.0473 93.417 52.7108 89.458 52.5141 89.261C52.3174 89.064 50.9365 89.209 49.4438 89.584C46.7838 90.253 46.7449 90.374 47.4259 95.883C47.8083 98.972 49.3559 105.095 50.8646 109.49C53.5306 117.256 53.7682 117.574 59.3218 120.824C65.5513 124.47 70.7114 125.237 89.8633 125.366C105.888 125.475 127.773 118.733 130.569 112.827C133.199 107.272 134.124 81 131.69 81C131.166 81 130.577 81.563 130.381 82.25ZM136.792 88.123C136.792 89.449 137.511 90 139.241 90C144.229 90 146.652 91.986 147.35 96.644C148.029 101.179 146.121 105.879 143.509 106.107C142.835 106.166 140.973 106.279 139.371 106.357C137.769 106.436 136.285 107.024 136.071 107.665C134.958 111.011 146.125 109.522 149.023 105.939C150.979 103.521 151.267 98.33 149.749 92.858C148.46 88.207 147.34 87.375 141.535 86.754C137.381 86.309 136.792 86.479 136.792 88.123ZM116.994 91.521C114.922 96.075 115.837 105 118.375 105C120.877 105 121.698 90.107 119.241 89.301C118.65 89.107 117.638 90.106 116.994 91.521ZM64.2642 93.5C63.4505 95.622 64.5628 98 66.368 98C67.4005 98 67.8967 97.027 67.8967 95C67.8967 91.782 65.3286 90.721 64.2642 93.5ZM83.0577 105.531C83.2314 106.923 83.8225 108.062 84.3717 108.062C84.9208 108.062 85.5119 106.923 85.6857 105.531C85.9113 103.727 85.5339 103 84.3717 103C83.2094 103 82.832 103.727 83.0577 105.531Z" fill="#FF8080"/>
<path fill-rule="evenodd" clip-rule="evenodd" d="M72.8033 4.77298C69.699 6.94998 64.9662 12.262 64.9302 13.608C64.9123 14.291 62.6387 14.712 59.0013 14.706C53.7752 14.698 52.5321 15.115 48.1308 18.35C43.38 21.843 36.5734 31.444 34.0342 38.234C32.1221 43.345 32.4856 52.153 34.7841 56.441C35.9453 58.608 36.7621 60.516 36.5973 60.68C36.0821 61.196 30.9689 58.538 30.9609 57.75C30.9469 56.422 28.242 56.952 26.9251 58.541C25.1817 60.644 25.649 72.474 27.63 76.412C30.0643 81.249 34.0312 84.946 37.8944 85.977C42.6991 87.259 47.8153 87.363 51.4218 86.251L54.4172 85.328L50.1737 83.144C47.8402 81.942 45.9301 80.468 45.9301 79.868C45.9301 78.38 51.257 79.463 58.5749 82.442C63.8199 84.576 71.673 85.89 82.4745 86.441C84.8979 86.565 86.4136 87.26 87.0975 88.563C89.5997 93.327 94.1268 94.231 100.563 91.25C104.862 89.259 106.074 88.02 108.877 82.75C111.09 78.59 112.745 77.968 113.537 81C114.482 84.616 118.983 83.452 124.687 78.115C127.551 75.436 128.191 75.238 130.919 76.191C132.591 76.775 137.286 77.039 141.352 76.777C150.647 76.18 153.846 73.64 154.227 66.554C154.522 61.071 152.306 57.561 145.7 53.046L141.084 49.891L137.578 51.963C134.443 53.815 133.934 53.871 132.793 52.494C131.29 50.681 131.381 50.566 135.294 49.319C137.152 48.727 139.029 47.008 140.237 44.79C142.154 41.271 142.155 41.149 140.294 37.016C139.254 34.707 136.395 31.171 133.939 29.159C129.841 25.801 128.997 25.514 123.648 25.674C117.229 25.866 117.845 26.591 117.429 18.351C117.37 17.169 116.198 15.319 114.825 14.239C111.433 11.572 95.4678 6.99898 89.5478 6.99998C86.9038 6.99998 83.8075 6.50098 82.6693 5.88998C78.202 3.49598 75.1207 3.14698 72.8033 4.77298ZM155.934 45.176C156.175 46.884 157.011 47.586 159.087 47.824C161.543 48.106 161.87 47.845 161.583 45.824C161.342 44.116 160.506 43.414 158.43 43.176C155.974 42.894 155.647 43.155 155.934 45.176ZM3.66145 45.667C2.10282 47.227 3.0993 53.618 5.3369 56.418C9.95188 62.194 12.8525 56.725 9.4726 48.622C8.05576 45.227 5.43175 43.893 3.66145 45.667ZM130.381 82.25C130.184 82.938 129.582 88.9 129.043 95.5C127.586 113.339 126.052 115.626 113.827 118.176C99.8521 121.092 91.1583 122.11 81.0327 122.017C58.7367 121.811 54.1766 117.877 53.261 98.059C53.0473 93.417 52.7108 89.458 52.5141 89.261C52.3174 89.064 50.9365 89.209 49.4438 89.584C46.7838 90.253 46.7449 90.374 47.4259 95.883C47.8083 98.972 49.3559 105.095 50.8646 109.49C53.5306 117.256 53.7682 117.574 59.3218 120.824C65.5513 124.47 70.7114 125.237 89.8633 125.366C105.888 125.475 127.773 118.733 130.569 112.827C133.199 107.272 134.124 81 131.69 81C131.166 81 130.577 81.563 130.381 82.25ZM136.792 88.123C136.792 89.449 137.511 90 139.241 90C144.229 90 146.652 91.986 147.35 96.644C148.029 101.179 146.121 105.879 143.509 106.107C142.835 106.166 140.973 106.279 139.371 106.357C137.769 106.436 136.285 107.024 136.071 107.665C134.958 111.011 146.125 109.522 149.023 105.939C150.979 103.521 151.267 98.33 149.749 92.858C148.46 88.207 147.34 87.375 141.535 86.754C137.381 86.309 136.792 86.479 136.792 88.123ZM116.994 91.521C114.922 96.075 115.837 105 118.375 105C120.877 105 121.698 90.107 119.241 89.301C118.65 89.107 117.638 90.106 116.994 91.521ZM64.2642 93.5C63.4505 95.622 64.5628 98 66.368 98C67.4005 98 67.8967 97.027 67.8967 95C67.8967 91.782 65.3286 90.721 64.2642 93.5ZM83.0577 105.531C83.2314 106.923 83.8225 108.062 84.3717 108.062C84.9208 108.062 85.5119 106.923 85.6857 105.531C85.9113 103.727 85.5339 103 84.3717 103C83.2094 103 82.832 103.727 83.0577 105.531Z" fill="#FF0000"/>
<path fill-rule="evenodd" clip-rule="evenodd" d="M72.8033 4.77298C69.699 6.94998 64.9662 12.262 64.9302 13.608C64.9123 14.291 62.6387 14.712 59.0013 14.706C53.7752 14.698 52.5321 15.115 48.1308 18.35C43.38 21.843 36.5734 31.444 34.0342 38.234C32.1221 43.345 32.4856 52.153 34.7841 56.441C35.9453 58.608 36.7621 60.516 36.5973 60.68C36.0821 61.196 30.9689 58.538 30.9609 57.75C30.9469 56.422 28.242 56.952 26.9251 58.541C25.1817 60.644 25.649 72.474 27.63 76.412C30.0643 81.249 34.0312 84.946 37.8944 85.977C42.6991 87.259 47.8153 87.363 51.4218 86.251L54.4172 85.328L50.1737 83.144C47.8402 81.942 45.9301 80.468 45.9301 79.868C45.9301 78.38 51.257 79.463 58.5749 82.442C63.8199 84.576 71.673 85.89 82.4745 86.441C84.8979 86.565 86.4136 87.26 87.0975 88.563C89.5997 93.327 94.1268 94.231 100.563 91.25C104.862 89.259 106.074 88.02 108.877 82.75C111.09 78.59 112.745 77.968 113.537 81C114.482 84.616 118.983 83.452 124.687 78.115C127.551 75.436 128.191 75.238 130.919 76.191C132.591 76.775 137.286 77.039 141.352 76.777C150.647 76.18 153.846 73.64 154.227 66.554C154.522 61.071 152.306 57.561 145.7 53.046L141.084 49.891L137.578 51.963C134.443 53.815 133.934 53.871 132.793 52.494C131.29 50.681 131.381 50.566 135.294 49.319C137.152 48.727 139.029 47.008 140.237 44.79C142.154 41.271 142.155 41.149 140.294 37.016C139.254 34.707 136.395 31.171 133.939 29.159C129.841 25.801 128.997 25.514 123.648 25.674C117.229 25.866 117.845 26.591 117.429 18.351C117.37 17.169 116.198 15.319 114.825 14.239C111.433 11.572 95.4678 6.99898 89.5478 6.99998C86.9038 6.99998 83.8075 6.50098 82.6693 5.88998C78.202 3.49598 75.1207 3.14698 72.8033 4.77298ZM155.934 45.176C156.175 46.884 157.011 47.586 159.087 47.824C161.543 48.106 161.87 47.845 161.583 45.824C161.342 44.116 160.506 43.414 158.43 43.176C155.974 42.894 155.647 43.155 155.934 45.176ZM3.66145 45.667C2.10282 47.227 3.0993 53.618 5.3369 56.418C9.95188 62.194 12.8525 56.725 9.4726 48.622C8.05576 45.227 5.43175 43.893 3.66145 45.667ZM130.381 82.25C130.184 82.938 129.582 88.9 129.043 95.5C127.586 113.339 126.052 115.626 113.827 118.176C99.8521 121.092 91.1583 122.11 81.0327 122.017C58.7367 121.811 54.1766 117.877 53.261 98.059C53.0473 93.417 52.7108 89.458 52.5141 89.261C52.3174 89.064 50.9365 89.209 49.4438 89.584C46.7838 90.253 46.7449 90.374 47.4259 95.883C47.8083 98.972 49.3559 105.095 50.8646 109.49C53.5306 117.256 53.7682 117.574 59.3218 120.824C65.5513 124.47 70.7114 125.237 89.8633 125.366C105.888 125.475 127.773 118.733 130.569 112.827C133.199 107.272 134.124 81 131.69 81C131.166 81 130.577 81.563 130.381 82.25ZM136.792 88.123C136.792 89.449 137.511 90 139.241 90C144.229 90 146.652 91.986 147.35 96.644C148.029 101.179 146.121 105.879 143.509 106.107C142.835 106.166 140.973 106.279 139.371 106.357C137.769 106.436 136.285 107.024 136.071 107.665C134.958 111.011 146.125 109.522 149.023 105.939C150.979 103.521 151.267 98.33 149.749 92.858C148.46 88.207 147.34 87.375 141.535 86.754C137.381 86.309 136.792 86.479 136.792 88.123ZM116.994 91.521C114.922 96.075 115.837 105 118.375 105C120.877 105 121.698 90.107 119.241 89.301C118.65 89.107 117.638 90.106 116.994 91.521ZM64.2642 93.5C63.4505 95.622 64.5628 98 66.368 98C67.4005 98 67.8967 97.027 67.8967 95C67.8967 91.782 65.3286 90.721 64.2642 93.5ZM83.0577 105.531C83.2314 106.923 83.8225 108.062 84.3717 108.062C84.9208 108.062 85.5119 106.923 85.6857 105.531C85.9113 103.727 85.5339 103 84.3717 103C83.2094 103 82.832 103.727 83.0577 105.531Z" fill="#AA5555"/>
<path fill-rule="evenodd" clip-rule="evenodd" d="M72.8033 4.77298C69.699 6.94998 64.9662 12.262 64.9302 13.608C64.9123 14.291 62.6387 14.712 59.0013 14.706C53.7752 14.698 52.5321 15.115 48.1308 18.35C43.38 21.843 36.5734 31.444 34.0342 38.234C32.1221 43.345 32.4856 52.153 34.7841 56.441C35.9453 58.608 36.7621 60.516 36.5973 60.68C36.0821 61.196 30.9689 58.538 30.9609 57.75C30.9469 56.422 28.242 56.952 26.9251 58.541C25.1817 60.644 25.649 72.474 27.63 76.412C30.0643 81.249 34.0312 84.946 37.8944 85.977C42.6991 87.259 47.8153 87.363 51.4218 86.251L54.4172 85.328L50.1737 83.144C47.8402 81.942 45.9301 80.468 45.9301 79.868C45.9301 78.38 51.257 79.463 58.5749 82.442C63.8199 84.576 71.673 85.89 82.4745 86.441C84.8979 86.565 86.4136 87.26 87.0975 88.563C89.5997 93.327 94.1268 94.231 100.563 91.25C104.862 89.259 106.074 88.02 108.877 82.75C111.09 78.59 112.745 77.968 113.537 81C114.482 84.616 118.983 83.452 124.687 78.115C127.551 75.436 128.191 75.238 130.919 76.191C132.591 76.775 137.286 77.039 141.352 76.777C150.647 76.18 153.846 73.64 154.227 66.554C154.522 61.071 152.306 57.561 145.7 53.046L141.084 49.891L137.578 51.963C134.443 53.815 133.934 53.871 132.793 52.494C131.29 50.681 131.381 50.566 135.294 49.319C137.152 48.727 139.029 47.008 140.237 44.79C142.154 41.271 142.155 41.149 140.294 37.016C139.254 34.707 136.395 31.171 133.939 29.159C129.841 25.801 128.997 25.514 123.648 25.674C117.229 25.866 117.845 26.591 117.429 18.351C117.37 17.169 116.198 15.319 114.825 14.239C111.433 11.572 95.4678 6.99898 89.5478 6.99998C86.9038 6.99998 83.8075 6.50098 82.6693 5.88998C78.202 3.49598 75.1207 3.14698 72.8033 4.77298ZM155.934 45.176C156.175 46.884 157.011 47.586 159.087 47.824C161.543 48.106 161.87 47.845 161.583 45.824C161.342 44.116 160.506 43.414 158.43 43.176C155.974 42.894 155.647 43.155 155.934 45.176ZM3.66145 45.667C2.10282 47.227 3.0993 53.618 5.3369 56.418C9.95188 62.194 12.8525 56.725 9.4726 48.622C8.05576 45.227 5.43175 43.893 3.66145 45.667ZM130.381 82.25C130.184 82.938 129.582 88.9 129.043 95.5C127.586 113.339 126.052 115.626 113.827 118.176C99.8521 121.092 91.1583 122.11 81.0327 122.017C58.7367 121.811 54.1766 117.877 53.261 98.059C53.0473 93.417 52.7108 89.458 52.5141 89.261C52.3174 89.064 50.9365 89.209 49.4438 89.584C46.7838 90.253 46.7449 90.374 47.4259 95.883C47.8083 98.972 49.3559 105.095 50.8646 109.49C53.5306 117.256 53.7682 117.574 59.3218 120.824C65.5513 124.47 70.7114 125.237 89.8633 125.366C105.888 125.475 127.773 118.733 130.569 112.827C133.199 107.272 134.124 81 131.69 81C131.166 81 130.577 81.563 130.381 82.25ZM136.792 88.123C136.792 89.449 137.511 90 139.241 90C144.229 90 146.652 91.986 147.35 96.644C148.029 101.179 146.121 105.879 143.509 106.107C142.835 106.166 140.973 106.279 139.371 106.357C137.769 106.436 136.285 107.024 136.071 107.665C134.958 111.011 146.125 109.522 149.023 105.939C150.979 103.521 151.267 98.33 149.749 92.858C148.46 88.207 147.34 87.375 141.535 86.754C137.381 86.309 136.792 86.479 136.792 88.123ZM116.994 91.521C114.922 96.075 115.837 105 118.375 105C120.877 105 121.698 90.107 119.241 89.301C118.65 89.107 117.638 90.106 116.994 91.521ZM64.2642 93.5C63.4505 95.622 64.5628 98 66.368 98C67.4005 98 67.8967 97.027 67.8967 95C67.8967 91.782 65.3286 90.721 64.2642 93.5ZM83.0577 105.531C83.2314 106.923 83.8225 108.062 84.3717 108.062C84.9208 108.062 85.5119 106.923 85.6857 105.531C85.9113 103.727 85.5339 103 84.3717 103C83.2094 103 82.832 103.727 83.0577 105.531Z" fill="white"/>
<mask id="path-9-outside-1_103_47" maskUnits="userSpaceOnUse" x="44.6221" y="16.9902" width="85" height="62" fill="black">
<rect fill="white" x="44.6221" y="16.9902" width="85" height="62"/>
<path d="M67.4758 29.2866C67.4758 30.2893 67.5252 31.2686 67.6238 32.2247C67.747 33.1574 67.9319 34.4749 68.1784 36.1771C68.6468 39.0452 68.881 41.3304 68.881 43.0326C68.881 43.3823 68.807 43.5922 68.6591 43.6622C68.5112 43.7321 68.3387 43.7671 68.1414 43.7671C67.9442 43.7671 67.8086 43.7671 67.7347 43.7671C67.3896 43.7671 67.1184 43.7321 66.9212 43.6622C66.724 43.5689 66.5637 43.359 66.4405 43.0326L65.6639 33.5188C65.59 32.5628 65.4914 30.639 65.3681 27.7476C64.3081 28.9135 63.2604 29.7996 62.225 30.4059C61.1897 30.9888 60.1296 31.2803 59.045 31.2803C57.4919 31.2803 55.9388 30.2426 54.3858 28.1673C54.4597 28.5171 54.4967 28.9835 54.4967 29.5664C54.4967 30.1494 54.4967 30.4875 54.4967 30.5807L54.4597 42.0182C54.4597 42.2514 54.3242 42.438 54.053 42.5779C53.8065 42.6945 53.5476 42.7528 53.2765 42.7528C52.9313 42.7528 52.6848 42.6362 52.5369 42.403C52.4136 42.1465 52.315 41.8084 52.2411 41.3887V36.4919C52.2411 35.7457 52.2657 34.9062 52.315 33.9735C52.3643 33.0408 52.4013 32.3879 52.426 32.0148C52.5492 30.3825 52.6109 28.9018 52.6109 27.5727C52.6109 27.1763 52.5369 26.8032 52.389 26.4535C52.2411 26.0804 52.0192 25.6723 51.7234 25.2293C51.4276 24.7862 51.2057 24.4015 51.0578 24.075C50.9345 23.7486 50.8729 23.3988 50.8729 23.0257C50.8729 22.5827 51.1071 22.3611 51.5755 22.3611C52.315 22.3611 52.919 22.6176 53.3874 23.1306C53.8558 23.6203 54.3611 24.3665 54.9035 25.3692C55.3719 26.1853 55.7786 26.8265 56.1237 27.2929C56.4689 27.7593 56.9126 28.1673 57.4549 28.5171C57.9973 28.8435 58.6505 29.0068 59.4147 29.0068C60.5241 29.0534 61.4362 28.8552 62.1511 28.4122C62.866 27.9458 63.4083 27.3862 63.7781 26.7333C64.1479 26.0804 64.5053 25.2876 64.8504 24.3548C65.1463 23.5853 65.4051 23.049 65.627 22.7459C65.8488 22.4194 66.12 22.2912 66.4405 22.3611C67.18 22.3145 67.5498 22.9558 67.5498 24.2849C67.5498 25.4041 67.5375 26.2319 67.5128 26.7682L67.4758 29.2866Z"/>
<path d="M87.0025 40.4105C86.4355 40.4105 85.9794 39.6294 85.6343 38.067C85.2892 36.4814 85.0673 35.1173 84.9687 33.9747C84.8701 32.8321 84.7345 31.025 84.5619 28.5533C84.5373 28.1569 84.525 27.6439 84.525 27.0143C84.525 26.2215 84.5866 25.6735 84.7099 25.3704C84.8578 25.0673 85.092 24.9157 85.4124 24.9157C85.6836 24.9157 85.8931 24.974 86.0411 25.0906C86.2136 25.1838 86.3615 25.3471 86.4848 25.5802L86.4478 26.9793C86.4478 28.4717 86.5218 29.8824 86.6697 31.2115C86.8422 32.5407 87.1011 34.3245 87.4462 36.563C87.6434 37.5424 87.779 38.3469 87.853 38.9764C87.9023 39.3029 87.8406 39.6293 87.6681 39.9558C87.4955 40.2589 87.2736 40.4105 87.0025 40.4105ZM86.078 21.1731C85.5357 21.1731 85.1289 20.9749 84.8578 20.5785C84.6113 20.1821 84.488 19.6924 84.488 19.1095C84.488 18.853 84.5003 18.6665 84.525 18.5499C84.5003 18.1768 84.7222 17.9902 85.1906 17.9902C85.5357 17.9902 85.8808 18.0718 86.2259 18.2351C86.5957 18.375 86.7066 18.4799 86.5587 18.5499C86.8053 19.1561 86.9285 19.6342 86.9285 19.9839C86.9285 20.2871 86.8546 20.5319 86.7066 20.7184C86.5587 20.8817 86.3492 21.0332 86.078 21.1731Z"/>
<path d="M115.947 43.6292C115.503 43.6292 115.146 43.4543 114.875 43.1046C114.628 42.7315 114.406 42.1719 114.209 41.4257C114.012 40.6562 113.704 39.3271 113.285 37.4383C112.865 39.0006 112.077 40.2481 110.918 41.1808C109.759 42.0902 108.342 42.5449 106.666 42.5449C105.137 42.5449 103.843 42.0436 102.783 41.0409C101.748 40.0149 100.971 38.6742 100.453 37.0186C99.9356 35.3397 99.6768 33.5325 99.6768 31.5971C99.6768 30.7111 99.763 29.9532 99.9356 29.3236C100.133 28.6707 100.367 28.181 100.638 27.8546C100.934 27.5281 101.218 27.3766 101.489 27.3999C101.784 27.3999 101.932 27.5864 101.932 27.9595C101.932 28.2627 101.846 28.7407 101.674 29.3936C101.501 30.1164 101.415 30.9442 101.415 31.877C101.415 33.276 101.624 34.6401 102.043 35.9693C102.487 37.2984 103.128 38.3943 103.966 39.2571C104.829 40.0966 105.84 40.5163 106.998 40.5163C107.96 40.5163 108.835 40.2481 109.624 39.7118C110.413 39.1755 111.029 38.4993 111.473 37.6831C111.941 36.867 112.175 36.0625 112.175 35.2697V29.7084C112.446 29.2187 112.816 28.9739 113.285 28.9739C113.704 28.9739 113.987 29.312 114.135 29.9882C114.283 30.6644 114.357 31.6205 114.357 32.8563C114.357 33.9056 114.345 34.7101 114.32 35.2697C114.468 36.0392 114.69 36.8204 114.986 37.6132C115.306 38.406 115.7 39.3037 116.169 40.3064C116.736 41.5423 117.019 42.3001 117.019 42.5799C117.019 43.2795 116.662 43.6292 115.947 43.6292Z"/>
<path d="M62.9646 74.4067C58.2561 74.4067 54.6076 74.1618 52.0192 73.6722C51.3536 61.9898 50.7497 54.9245 50.2073 52.4761L49.098 52.7209C48.5063 52.8375 47.9393 52.9657 47.397 53.1056C46.8547 53.2222 46.2753 53.3971 45.659 53.6303L45.6221 52.4411C45.6221 52.0447 46.0781 51.6832 46.9902 51.3568C47.9024 51.007 48.9994 50.7389 50.2813 50.5523C51.5878 50.3425 52.7465 50.2375 53.7572 50.2375C54.8665 50.2375 56.1361 50.4241 57.5659 50.7972C59.0203 51.1702 60.2652 51.7299 61.3006 52.4761C62.336 53.1989 62.8537 54.0617 62.8537 55.0644C62.8537 56.2069 62.3853 57.2213 61.4485 58.1074C60.5364 58.9701 59.3408 59.5881 57.8617 59.9611C60.031 60.3109 62.0525 60.9405 63.926 61.8499C65.7995 62.736 67.3033 63.8436 68.4373 65.1727C69.5712 66.4785 70.1382 67.8893 70.1382 69.4049C70.1382 71.1538 69.4233 72.4246 67.9935 73.2174C66.5637 74.0103 64.8874 74.4067 62.9646 74.4067ZM62.0032 72.413C63.8274 72.413 65.2325 72.2264 66.2186 71.8533C67.2047 71.4569 67.6977 70.6175 67.6977 69.335C67.6977 67.9825 67.2663 66.8516 66.4035 65.9422C65.5653 65.0095 64.5669 64.2866 63.4083 63.7736C62.2743 63.2373 60.8569 62.6777 59.1559 62.0947C57.8001 61.6517 56.7893 61.267 56.1237 60.9405C55.4828 60.5907 55.1623 60.206 55.1623 59.7863C55.1623 59.4831 55.3225 59.2499 55.643 59.0867C55.9635 58.9235 56.5305 58.6903 57.344 58.3872C58.4533 58.0374 59.3161 57.6643 59.9324 57.2679C60.5734 56.8482 60.8938 56.2652 60.8938 55.5191C60.8938 54.4231 60.1913 53.5837 58.7861 53.0007C57.381 52.3944 55.8033 52.0913 54.053 52.0913C53.5599 52.0913 52.9683 52.138 52.2781 52.2312C52.919 56.1486 53.3627 59.4482 53.6093 62.1297C53.8558 64.788 54.0283 67.8776 54.1269 71.3986C54.4721 71.7251 55.3472 71.9699 56.7524 72.1332C58.1575 72.2964 59.9078 72.3897 62.0032 72.413Z"/>
<path d="M84.229 77.8344C82.6513 77.8344 81.1968 77.5429 79.8656 76.96C78.5344 76.377 77.4744 75.5492 76.6856 74.4766C75.8967 73.404 75.5023 72.1681 75.5023 70.769C75.5023 69.2067 75.8104 67.7494 76.4267 66.3969C77.043 65.0211 77.9428 63.9252 79.1261 63.1091C80.334 62.2696 81.7391 61.8499 83.3415 61.8499C85.0178 61.8499 86.2874 62.3629 87.1502 63.3889C88.0131 64.3916 88.4198 65.6624 88.3705 67.2014C88.3705 68.5771 87.7912 69.6265 86.6325 70.3493C85.4986 71.0722 84.0441 71.4336 82.2692 71.4336C81.998 71.4336 81.5913 71.4103 81.0489 71.3637C80.1615 71.2704 79.5328 71.1421 79.1631 70.9789C78.7933 70.8157 78.6084 70.4892 78.6084 69.9996C78.6084 69.8363 78.6577 69.7197 78.7563 69.6498C78.8549 69.5565 79.0521 69.5099 79.3479 69.5099C79.6684 69.5099 80.2354 69.5798 81.0489 69.7197C81.8378 69.8596 82.5403 69.9296 83.1566 69.9296C85.4246 69.9296 86.5586 68.9969 86.5586 67.1314C86.5586 66.0122 86.3367 65.1261 85.893 64.4732C85.4739 63.8203 84.722 63.4938 83.6374 63.4938C82.4541 63.4938 81.3941 63.797 80.4573 64.4032C79.5205 64.9862 78.7933 65.7557 78.2756 66.7117C77.7826 67.6677 77.5361 68.6821 77.5361 69.7547C77.5361 71.5968 78.0784 73.1125 79.1631 74.3017C80.2477 75.4676 81.9241 76.0506 84.192 76.0506C84.4632 76.0506 84.9192 76.0273 85.5602 75.9806C85.8313 75.9573 86.1642 75.8874 86.5586 75.7708C86.953 75.6542 87.2365 75.5726 87.4091 75.5259C88.4691 75.1762 89.2456 75.0013 89.7387 75.0013C90.1084 75.0013 90.3919 75.0945 90.5892 75.2811C89.9729 76.1672 89.0484 76.8201 87.8158 77.2398C86.6079 77.6362 85.4123 77.8344 84.229 77.8344Z"/>
<path d="M103.264 68.9852C101.686 68.9852 100.231 68.6938 98.9002 68.1108C97.569 67.5279 96.509 66.7001 95.7202 65.6274C94.9313 64.5548 94.5369 63.319 94.5369 61.9199C94.5369 60.3576 94.845 58.9002 95.4613 57.5477C96.0776 56.172 96.9774 55.076 98.1607 54.2599C99.3686 53.4204 100.774 53.0007 102.376 53.0007C104.052 53.0007 105.322 53.5137 106.185 54.5397C107.048 55.5424 107.454 56.8132 107.405 58.3522C107.405 59.728 106.826 60.7773 105.667 61.5001C104.533 62.223 103.079 62.5844 101.304 62.5844C101.033 62.5844 100.626 62.5611 100.084 62.5145C99.1961 62.4212 98.5674 62.293 98.1977 62.1297C97.8279 61.9665 97.643 61.6401 97.643 61.1504C97.643 60.9872 97.6923 60.8706 97.7909 60.8006C97.8895 60.7073 98.0867 60.6607 98.3826 60.6607C98.703 60.6607 99.27 60.7307 100.084 60.8706C100.872 61.0105 101.575 61.0804 102.191 61.0804C104.459 61.0804 105.593 60.1477 105.593 58.2823C105.593 57.163 105.371 56.2769 104.928 55.624C104.509 54.9711 103.757 54.6446 102.672 54.6446C101.489 54.6446 100.429 54.9478 99.4919 55.5541C98.5551 56.137 97.8279 56.9065 97.3102 57.8625C96.8172 58.8186 96.5706 59.8329 96.5706 60.9055C96.5706 62.7477 97.113 64.2633 98.1977 65.4526C99.2823 66.6185 100.959 67.2014 103.227 67.2014C103.498 67.2014 103.954 67.1781 104.595 67.1314C104.866 67.1081 105.199 67.0382 105.593 66.9216C105.988 66.805 106.271 66.7234 106.444 66.6767C107.504 66.327 108.28 66.1521 108.773 66.1521C109.143 66.1521 109.427 66.2454 109.624 66.4319C109.007 67.318 108.083 67.9709 106.85 68.3906C105.643 68.787 104.447 68.9852 103.264 68.9852Z"/>
<path d="M121.343 72.2385C120.333 70.373 119.531 68.1811 118.94 65.6628C118.373 63.1444 118.089 60.9642 118.089 59.1221C118.089 58.3992 118.262 57.9329 118.607 57.723C118.804 57.6064 118.952 57.5481 119.051 57.5481C119.223 57.5481 119.346 57.6764 119.42 57.9329C119.519 58.1894 119.618 58.6557 119.716 59.3319L119.901 60.5911C120.172 59.3319 120.69 58.3409 121.454 57.6181C122.243 56.8719 123.204 56.4988 124.338 56.4988C125.596 56.4988 126.532 56.732 127.149 57.1983C127.765 57.6414 128.073 58.3876 128.073 59.4369C126.841 58.8772 125.719 58.5974 124.708 58.5974C123.747 58.5974 122.921 58.8423 122.231 59.3319C121.54 59.8216 121.06 60.5445 120.789 61.5005C120.567 62.1534 120.456 62.7713 120.456 63.3543C120.456 63.9839 120.542 64.5785 120.715 65.1381C120.912 65.6744 121.208 66.339 121.602 67.1318C121.972 67.948 122.255 68.6475 122.453 69.2304C122.674 69.8134 122.798 70.443 122.822 71.1192C122.822 71.5156 122.674 71.8071 122.379 71.9936C122.083 72.1569 121.738 72.2385 121.343 72.2385Z"/>
</mask>
<path d="M67.4758 29.2866C67.4758 30.2893 67.5252 31.2686 67.6238 32.2247C67.747 33.1574 67.9319 34.4749 68.1784 36.1771C68.6468 39.0452 68.881 41.3304 68.881 43.0326C68.881 43.3823 68.807 43.5922 68.6591 43.6622C68.5112 43.7321 68.3387 43.7671 68.1414 43.7671C67.9442 43.7671 67.8086 43.7671 67.7347 43.7671C67.3896 43.7671 67.1184 43.7321 66.9212 43.6622C66.724 43.5689 66.5637 43.359 66.4405 43.0326L65.6639 33.5188C65.59 32.5628 65.4914 30.639 65.3681 27.7476C64.3081 28.9135 63.2604 29.7996 62.225 30.4059C61.1897 30.9888 60.1296 31.2803 59.045 31.2803C57.4919 31.2803 55.9388 30.2426 54.3858 28.1673C54.4597 28.5171 54.4967 28.9835 54.4967 29.5664C54.4967 30.1494 54.4967 30.4875 54.4967 30.5807L54.4597 42.0182C54.4597 42.2514 54.3242 42.438 54.053 42.5779C53.8065 42.6945 53.5476 42.7528 53.2765 42.7528C52.9313 42.7528 52.6848 42.6362 52.5369 42.403C52.4136 42.1465 52.315 41.8084 52.2411 41.3887V36.4919C52.2411 35.7457 52.2657 34.9062 52.315 33.9735C52.3643 33.0408 52.4013 32.3879 52.426 32.0148C52.5492 30.3825 52.6109 28.9018 52.6109 27.5727C52.6109 27.1763 52.5369 26.8032 52.389 26.4535C52.2411 26.0804 52.0192 25.6723 51.7234 25.2293C51.4276 24.7862 51.2057 24.4015 51.0578 24.075C50.9345 23.7486 50.8729 23.3988 50.8729 23.0257C50.8729 22.5827 51.1071 22.3611 51.5755 22.3611C52.315 22.3611 52.919 22.6176 53.3874 23.1306C53.8558 23.6203 54.3611 24.3665 54.9035 25.3692C55.3719 26.1853 55.7786 26.8265 56.1237 27.2929C56.4689 27.7593 56.9126 28.1673 57.4549 28.5171C57.9973 28.8435 58.6505 29.0068 59.4147 29.0068C60.5241 29.0534 61.4362 28.8552 62.1511 28.4122C62.866 27.9458 63.4083 27.3862 63.7781 26.7333C64.1479 26.0804 64.5053 25.2876 64.8504 24.3548C65.1463 23.5853 65.4051 23.049 65.627 22.7459C65.8488 22.4194 66.12 22.2912 66.4405 22.3611C67.18 22.3145 67.5498 22.9558 67.5498 24.2849C67.5498 25.4041 67.5375 26.2319 67.5128 26.7682L67.4758 29.2866Z" fill="#B28850"/>
<path d="M87.0025 40.4105C86.4355 40.4105 85.9794 39.6294 85.6343 38.067C85.2892 36.4814 85.0673 35.1173 84.9687 33.9747C84.8701 32.8321 84.7345 31.025 84.5619 28.5533C84.5373 28.1569 84.525 27.6439 84.525 27.0143C84.525 26.2215 84.5866 25.6735 84.7099 25.3704C84.8578 25.0673 85.092 24.9157 85.4124 24.9157C85.6836 24.9157 85.8931 24.974 86.0411 25.0906C86.2136 25.1838 86.3615 25.3471 86.4848 25.5802L86.4478 26.9793C86.4478 28.4717 86.5218 29.8824 86.6697 31.2115C86.8422 32.5407 87.1011 34.3245 87.4462 36.563C87.6434 37.5424 87.779 38.3469 87.853 38.9764C87.9023 39.3029 87.8406 39.6293 87.6681 39.9558C87.4955 40.2589 87.2736 40.4105 87.0025 40.4105ZM86.078 21.1731C85.5357 21.1731 85.1289 20.9749 84.8578 20.5785C84.6113 20.1821 84.488 19.6924 84.488 19.1095C84.488 18.853 84.5003 18.6665 84.525 18.5499C84.5003 18.1768 84.7222 17.9902 85.1906 17.9902C85.5357 17.9902 85.8808 18.0718 86.2259 18.2351C86.5957 18.375 86.7066 18.4799 86.5587 18.5499C86.8053 19.1561 86.9285 19.6342 86.9285 19.9839C86.9285 20.2871 86.8546 20.5319 86.7066 20.7184C86.5587 20.8817 86.3492 21.0332 86.078 21.1731Z" fill="#B28850"/>
<path d="M115.947 43.6292C115.503 43.6292 115.146 43.4543 114.875 43.1046C114.628 42.7315 114.406 42.1719 114.209 41.4257C114.012 40.6562 113.704 39.3271 113.285 37.4383C112.865 39.0006 112.077 40.2481 110.918 41.1808C109.759 42.0902 108.342 42.5449 106.666 42.5449C105.137 42.5449 103.843 42.0436 102.783 41.0409C101.748 40.0149 100.971 38.6742 100.453 37.0186C99.9356 35.3397 99.6768 33.5325 99.6768 31.5971C99.6768 30.7111 99.763 29.9532 99.9356 29.3236C100.133 28.6707 100.367 28.181 100.638 27.8546C100.934 27.5281 101.218 27.3766 101.489 27.3999C101.784 27.3999 101.932 27.5864 101.932 27.9595C101.932 28.2627 101.846 28.7407 101.674 29.3936C101.501 30.1164 101.415 30.9442 101.415 31.877C101.415 33.276 101.624 34.6401 102.043 35.9693C102.487 37.2984 103.128 38.3943 103.966 39.2571C104.829 40.0966 105.84 40.5163 106.998 40.5163C107.96 40.5163 108.835 40.2481 109.624 39.7118C110.413 39.1755 111.029 38.4993 111.473 37.6831C111.941 36.867 112.175 36.0625 112.175 35.2697V29.7084C112.446 29.2187 112.816 28.9739 113.285 28.9739C113.704 28.9739 113.987 29.312 114.135 29.9882C114.283 30.6644 114.357 31.6205 114.357 32.8563C114.357 33.9056 114.345 34.7101 114.32 35.2697C114.468 36.0392 114.69 36.8204 114.986 37.6132C115.306 38.406 115.7 39.3037 116.169 40.3064C116.736 41.5423 117.019 42.3001 117.019 42.5799C117.019 43.2795 116.662 43.6292 115.947 43.6292Z" fill="#B28850"/>
<path d="M62.9646 74.4067C58.2561 74.4067 54.6076 74.1618 52.0192 73.6722C51.3536 61.9898 50.7497 54.9245 50.2073 52.4761L49.098 52.7209C48.5063 52.8375 47.9393 52.9657 47.397 53.1056C46.8547 53.2222 46.2753 53.3971 45.659 53.6303L45.6221 52.4411C45.6221 52.0447 46.0781 51.6832 46.9902 51.3568C47.9024 51.007 48.9994 50.7389 50.2813 50.5523C51.5878 50.3425 52.7465 50.2375 53.7572 50.2375C54.8665 50.2375 56.1361 50.4241 57.5659 50.7972C59.0203 51.1702 60.2652 51.7299 61.3006 52.4761C62.336 53.1989 62.8537 54.0617 62.8537 55.0644C62.8537 56.2069 62.3853 57.2213 61.4485 58.1074C60.5364 58.9701 59.3408 59.5881 57.8617 59.9611C60.031 60.3109 62.0525 60.9405 63.926 61.8499C65.7995 62.736 67.3033 63.8436 68.4373 65.1727C69.5712 66.4785 70.1382 67.8893 70.1382 69.4049C70.1382 71.1538 69.4233 72.4246 67.9935 73.2174C66.5637 74.0103 64.8874 74.4067 62.9646 74.4067ZM62.0032 72.413C63.8274 72.413 65.2325 72.2264 66.2186 71.8533C67.2047 71.4569 67.6977 70.6175 67.6977 69.335C67.6977 67.9825 67.2663 66.8516 66.4035 65.9422C65.5653 65.0095 64.5669 64.2866 63.4083 63.7736C62.2743 63.2373 60.8569 62.6777 59.1559 62.0947C57.8001 61.6517 56.7893 61.267 56.1237 60.9405C55.4828 60.5907 55.1623 60.206 55.1623 59.7863C55.1623 59.4831 55.3225 59.2499 55.643 59.0867C55.9635 58.9235 56.5305 58.6903 57.344 58.3872C58.4533 58.0374 59.3161 57.6643 59.9324 57.2679C60.5734 56.8482 60.8938 56.2652 60.8938 55.5191C60.8938 54.4231 60.1913 53.5837 58.7861 53.0007C57.381 52.3944 55.8033 52.0913 54.053 52.0913C53.5599 52.0913 52.9683 52.138 52.2781 52.2312C52.919 56.1486 53.3627 59.4482 53.6093 62.1297C53.8558 64.788 54.0283 67.8776 54.1269 71.3986C54.4721 71.7251 55.3472 71.9699 56.7524 72.1332C58.1575 72.2964 59.9078 72.3897 62.0032 72.413Z" fill="#B28850"/>
<path d="M84.229 77.8344C82.6513 77.8344 81.1968 77.5429 79.8656 76.96C78.5344 76.377 77.4744 75.5492 76.6856 74.4766C75.8967 73.404 75.5023 72.1681 75.5023 70.769C75.5023 69.2067 75.8104 67.7494 76.4267 66.3969C77.043 65.0211 77.9428 63.9252 79.1261 63.1091C80.334 62.2696 81.7391 61.8499 83.3415 61.8499C85.0178 61.8499 86.2874 62.3629 87.1502 63.3889C88.0131 64.3916 88.4198 65.6624 88.3705 67.2014C88.3705 68.5771 87.7912 69.6265 86.6325 70.3493C85.4986 71.0722 84.0441 71.4336 82.2692 71.4336C81.998 71.4336 81.5913 71.4103 81.0489 71.3637C80.1615 71.2704 79.5328 71.1421 79.1631 70.9789C78.7933 70.8157 78.6084 70.4892 78.6084 69.9996C78.6084 69.8363 78.6577 69.7197 78.7563 69.6498C78.8549 69.5565 79.0521 69.5099 79.3479 69.5099C79.6684 69.5099 80.2354 69.5798 81.0489 69.7197C81.8378 69.8596 82.5403 69.9296 83.1566 69.9296C85.4246 69.9296 86.5586 68.9969 86.5586 67.1314C86.5586 66.0122 86.3367 65.1261 85.893 64.4732C85.4739 63.8203 84.722 63.4938 83.6374 63.4938C82.4541 63.4938 81.3941 63.797 80.4573 64.4032C79.5205 64.9862 78.7933 65.7557 78.2756 66.7117C77.7826 67.6677 77.5361 68.6821 77.5361 69.7547C77.5361 71.5968 78.0784 73.1125 79.1631 74.3017C80.2477 75.4676 81.9241 76.0506 84.192 76.0506C84.4632 76.0506 84.9192 76.0273 85.5602 75.9806C85.8313 75.9573 86.1642 75.8874 86.5586 75.7708C86.953 75.6542 87.2365 75.5726 87.4091 75.5259C88.4691 75.1762 89.2456 75.0013 89.7387 75.0013C90.1084 75.0013 90.3919 75.0945 90.5892 75.2811C89.9729 76.1672 89.0484 76.8201 87.8158 77.2398C86.6079 77.6362 85.4123 77.8344 84.229 77.8344Z" fill="#B28850"/>
<path d="M103.264 68.9852C101.686 68.9852 100.231 68.6938 98.9002 68.1108C97.569 67.5279 96.509 66.7001 95.7202 65.6274C94.9313 64.5548 94.5369 63.319 94.5369 61.9199C94.5369 60.3576 94.845 58.9002 95.4613 57.5477C96.0776 56.172 96.9774 55.076 98.1607 54.2599C99.3686 53.4204 100.774 53.0007 102.376 53.0007C104.052 53.0007 105.322 53.5137 106.185 54.5397C107.048 55.5424 107.454 56.8132 107.405 58.3522C107.405 59.728 106.826 60.7773 105.667 61.5001C104.533 62.223 103.079 62.5844 101.304 62.5844C101.033 62.5844 100.626 62.5611 100.084 62.5145C99.1961 62.4212 98.5674 62.293 98.1977 62.1297C97.8279 61.9665 97.643 61.6401 97.643 61.1504C97.643 60.9872 97.6923 60.8706 97.7909 60.8006C97.8895 60.7073 98.0867 60.6607 98.3826 60.6607C98.703 60.6607 99.27 60.7307 100.084 60.8706C100.872 61.0105 101.575 61.0804 102.191 61.0804C104.459 61.0804 105.593 60.1477 105.593 58.2823C105.593 57.163 105.371 56.2769 104.928 55.624C104.509 54.9711 103.757 54.6446 102.672 54.6446C101.489 54.6446 100.429 54.9478 99.4919 55.5541C98.5551 56.137 97.8279 56.9065 97.3102 57.8625C96.8172 58.8186 96.5706 59.8329 96.5706 60.9055C96.5706 62.7477 97.113 64.2633 98.1977 65.4526C99.2823 66.6185 100.959 67.2014 103.227 67.2014C103.498 67.2014 103.954 67.1781 104.595 67.1314C104.866 67.1081 105.199 67.0382 105.593 66.9216C105.988 66.805 106.271 66.7234 106.444 66.6767C107.504 66.327 108.28 66.1521 108.773 66.1521C109.143 66.1521 109.427 66.2454 109.624 66.4319C109.007 67.318 108.083 67.9709 106.85 68.3906C105.643 68.787 104.447 68.9852 103.264 68.9852Z" fill="#B28850"/>
<path d="M121.343 72.2385C120.333 70.373 119.531 68.1811 118.94 65.6628C118.373 63.1444 118.089 60.9642 118.089 59.1221C118.089 58.3992 118.262 57.9329 118.607 57.723C118.804 57.6064 118.952 57.5481 119.051 57.5481C119.223 57.5481 119.346 57.6764 119.42 57.9329C119.519 58.1894 119.618 58.6557 119.716 59.3319L119.901 60.5911C120.172 59.3319 120.69 58.3409 121.454 57.6181C122.243 56.8719 123.204 56.4988 124.338 56.4988C125.596 56.4988 126.532 56.732 127.149 57.1983C127.765 57.6414 128.073 58.3876 128.073 59.4369C126.841 58.8772 125.719 58.5974 124.708 58.5974C123.747 58.5974 122.921 58.8423 122.231 59.3319C121.54 59.8216 121.06 60.5445 120.789 61.5005C120.567 62.1534 120.456 62.7713 120.456 63.3543C120.456 63.9839 120.542 64.5785 120.715 65.1381C120.912 65.6744 121.208 66.339 121.602 67.1318C121.972 67.948 122.255 68.6475 122.453 69.2304C122.674 69.8134 122.798 70.443 122.822 71.1192C122.822 71.5156 122.674 71.8071 122.379 71.9936C122.083 72.1569 121.738 72.2385 121.343 72.2385Z" fill="#B28850"/>
<path d="M67.4758 29.2866C67.4758 30.2893 67.5252 31.2686 67.6238 32.2247C67.747 33.1574 67.9319 34.4749 68.1784 36.1771C68.6468 39.0452 68.881 41.3304 68.881 43.0326C68.881 43.3823 68.807 43.5922 68.6591 43.6622C68.5112 43.7321 68.3387 43.7671 68.1414 43.7671C67.9442 43.7671 67.8086 43.7671 67.7347 43.7671C67.3896 43.7671 67.1184 43.7321 66.9212 43.6622C66.724 43.5689 66.5637 43.359 66.4405 43.0326L65.6639 33.5188C65.59 32.5628 65.4914 30.639 65.3681 27.7476C64.3081 28.9135 63.2604 29.7996 62.225 30.4059C61.1897 30.9888 60.1296 31.2803 59.045 31.2803C57.4919 31.2803 55.9388 30.2426 54.3858 28.1673C54.4597 28.5171 54.4967 28.9835 54.4967 29.5664C54.4967 30.1494 54.4967 30.4875 54.4967 30.5807L54.4597 42.0182C54.4597 42.2514 54.3242 42.438 54.053 42.5779C53.8065 42.6945 53.5476 42.7528 53.2765 42.7528C52.9313 42.7528 52.6848 42.6362 52.5369 42.403C52.4136 42.1465 52.315 41.8084 52.2411 41.3887V36.4919C52.2411 35.7457 52.2657 34.9062 52.315 33.9735C52.3643 33.0408 52.4013 32.3879 52.426 32.0148C52.5492 30.3825 52.6109 28.9018 52.6109 27.5727C52.6109 27.1763 52.5369 26.8032 52.389 26.4535C52.2411 26.0804 52.0192 25.6723 51.7234 25.2293C51.4276 24.7862 51.2057 24.4015 51.0578 24.075C50.9345 23.7486 50.8729 23.3988 50.8729 23.0257C50.8729 22.5827 51.1071 22.3611 51.5755 22.3611C52.315 22.3611 52.919 22.6176 53.3874 23.1306C53.8558 23.6203 54.3611 24.3665 54.9035 25.3692C55.3719 26.1853 55.7786 26.8265 56.1237 27.2929C56.4689 27.7593 56.9126 28.1673 57.4549 28.5171C57.9973 28.8435 58.6505 29.0068 59.4147 29.0068C60.5241 29.0534 61.4362 28.8552 62.1511 28.4122C62.866 27.9458 63.4083 27.3862 63.7781 26.7333C64.1479 26.0804 64.5053 25.2876 64.8504 24.3548C65.1463 23.5853 65.4051 23.049 65.627 22.7459C65.8488 22.4194 66.12 22.2912 66.4405 22.3611C67.18 22.3145 67.5498 22.9558 67.5498 24.2849C67.5498 25.4041 67.5375 26.2319 67.5128 26.7682L67.4758 29.2866Z" stroke="#B28850" stroke-width="2" mask="url(#path-9-outside-1_103_47)"/>
<path d="M87.0025 40.4105C86.4355 40.4105 85.9794 39.6294 85.6343 38.067C85.2892 36.4814 85.0673 35.1173 84.9687 33.9747C84.8701 32.8321 84.7345 31.025 84.5619 28.5533C84.5373 28.1569 84.525 27.6439 84.525 27.0143C84.525 26.2215 84.5866 25.6735 84.7099 25.3704C84.8578 25.0673 85.092 24.9157 85.4124 24.9157C85.6836 24.9157 85.8931 24.974 86.0411 25.0906C86.2136 25.1838 86.3615 25.3471 86.4848 25.5802L86.4478 26.9793C86.4478 28.4717 86.5218 29.8824 86.6697 31.2115C86.8422 32.5407 87.1011 34.3245 87.4462 36.563C87.6434 37.5424 87.779 38.3469 87.853 38.9764C87.9023 39.3029 87.8406 39.6293 87.6681 39.9558C87.4955 40.2589 87.2736 40.4105 87.0025 40.4105ZM86.078 21.1731C85.5357 21.1731 85.1289 20.9749 84.8578 20.5785C84.6113 20.1821 84.488 19.6924 84.488 19.1095C84.488 18.853 84.5003 18.6665 84.525 18.5499C84.5003 18.1768 84.7222 17.9902 85.1906 17.9902C85.5357 17.9902 85.8808 18.0718 86.2259 18.2351C86.5957 18.375 86.7066 18.4799 86.5587 18.5499C86.8053 19.1561 86.9285 19.6342 86.9285 19.9839C86.9285 20.2871 86.8546 20.5319 86.7066 20.7184C86.5587 20.8817 86.3492 21.0332 86.078 21.1731Z" stroke="#B28850" stroke-width="2" mask="url(#path-9-outside-1_103_47)"/>
<path d="M115.947 43.6292C115.503 43.6292 115.146 43.4543 114.875 43.1046C114.628 42.7315 114.406 42.1719 114.209 41.4257C114.012 40.6562 113.704 39.3271 113.285 37.4383C112.865 39.0006 112.077 40.2481 110.918 41.1808C109.759 42.0902 108.342 42.5449 106.666 42.5449C105.137 42.5449 103.843 42.0436 102.783 41.0409C101.748 40.0149 100.971 38.6742 100.453 37.0186C99.9356 35.3397 99.6768 33.5325 99.6768 31.5971C99.6768 30.7111 99.763 29.9532 99.9356 29.3236C100.133 28.6707 100.367 28.181 100.638 27.8546C100.934 27.5281 101.218 27.3766 101.489 27.3999C101.784 27.3999 101.932 27.5864 101.932 27.9595C101.932 28.2627 101.846 28.7407 101.674 29.3936C101.501 30.1164 101.415 30.9442 101.415 31.877C101.415 33.276 101.624 34.6401 102.043 35.9693C102.487 37.2984 103.128 38.3943 103.966 39.2571C104.829 40.0966 105.84 40.5163 106.998 40.5163C107.96 40.5163 108.835 40.2481 109.624 39.7118C110.413 39.1755 111.029 38.4993 111.473 37.6831C111.941 36.867 112.175 36.0625 112.175 35.2697V29.7084C112.446 29.2187 112.816 28.9739 113.285 28.9739C113.704 28.9739 113.987 29.312 114.135 29.9882C114.283 30.6644 114.357 31.6205 114.357 32.8563C114.357 33.9056 114.345 34.7101 114.32 35.2697C114.468 36.0392 114.69 36.8204 114.986 37.6132C115.306 38.406 115.7 39.3037 116.169 40.3064C116.736 41.5423 117.019 42.3001 117.019 42.5799C117.019 43.2795 116.662 43.6292 115.947 43.6292Z" stroke="#B28850" stroke-width="2" mask="url(#path-9-outside-1_103_47)"/>
<path d="M62.9646 74.4067C58.2561 74.4067 54.6076 74.1618 52.0192 73.6722C51.3536 61.9898 50.7497 54.9245 50.2073 52.4761L49.098 52.7209C48.5063 52.8375 47.9393 52.9657 47.397 53.1056C46.8547 53.2222 46.2753 53.3971 45.659 53.6303L45.6221 52.4411C45.6221 52.0447 46.0781 51.6832 46.9902 51.3568C47.9024 51.007 48.9994 50.7389 50.2813 50.5523C51.5878 50.3425 52.7465 50.2375 53.7572 50.2375C54.8665 50.2375 56.1361 50.4241 57.5659 50.7972C59.0203 51.1702 60.2652 51.7299 61.3006 52.4761C62.336 53.1989 62.8537 54.0617 62.8537 55.0644C62.8537 56.2069 62.3853 57.2213 61.4485 58.1074C60.5364 58.9701 59.3408 59.5881 57.8617 59.9611C60.031 60.3109 62.0525 60.9405 63.926 61.8499C65.7995 62.736 67.3033 63.8436 68.4373 65.1727C69.5712 66.4785 70.1382 67.8893 70.1382 69.4049C70.1382 71.1538 69.4233 72.4246 67.9935 73.2174C66.5637 74.0103 64.8874 74.4067 62.9646 74.4067ZM62.0032 72.413C63.8274 72.413 65.2325 72.2264 66.2186 71.8533C67.2047 71.4569 67.6977 70.6175 67.6977 69.335C67.6977 67.9825 67.2663 66.8516 66.4035 65.9422C65.5653 65.0095 64.5669 64.2866 63.4083 63.7736C62.2743 63.2373 60.8569 62.6777 59.1559 62.0947C57.8001 61.6517 56.7893 61.267 56.1237 60.9405C55.4828 60.5907 55.1623 60.206 55.1623 59.7863C55.1623 59.4831 55.3225 59.2499 55.643 59.0867C55.9635 58.9235 56.5305 58.6903 57.344 58.3872C58.4533 58.0374 59.3161 57.6643 59.9324 57.2679C60.5734 56.8482 60.8938 56.2652 60.8938 55.5191C60.8938 54.4231 60.1913 53.5837 58.7861 53.0007C57.381 52.3944 55.8033 52.0913 54.053 52.0913C53.5599 52.0913 52.9683 52.138 52.2781 52.2312C52.919 56.1486 53.3627 59.4482 53.6093 62.1297C53.8558 64.788 54.0283 67.8776 54.1269 71.3986C54.4721 71.7251 55.3472 71.9699 56.7524 72.1332C58.1575 72.2964 59.9078 72.3897 62.0032 72.413Z" stroke="#B28850" stroke-width="2" mask="url(#path-9-outside-1_103_47)"/>
<path d="M84.229 77.8344C82.6513 77.8344 81.1968 77.5429 79.8656 76.96C78.5344 76.377 77.4744 75.5492 76.6856 74.4766C75.8967 73.404 75.5023 72.1681 75.5023 70.769C75.5023 69.2067 75.8104 67.7494 76.4267 66.3969C77.043 65.0211 77.9428 63.9252 79.1261 63.1091C80.334 62.2696 81.7391 61.8499 83.3415 61.8499C85.0178 61.8499 86.2874 62.3629 87.1502 63.3889C88.0131 64.3916 88.4198 65.6624 88.3705 67.2014C88.3705 68.5771 87.7912 69.6265 86.6325 70.3493C85.4986 71.0722 84.0441 71.4336 82.2692 71.4336C81.998 71.4336 81.5913 71.4103 81.0489 71.3637C80.1615 71.2704 79.5328 71.1421 79.1631 70.9789C78.7933 70.8157 78.6084 70.4892 78.6084 69.9996C78.6084 69.8363 78.6577 69.7197 78.7563 69.6498C78.8549 69.5565 79.0521 69.5099 79.3479 69.5099C79.6684 69.5099 80.2354 69.5798 81.0489 69.7197C81.8378 69.8596 82.5403 69.9296 83.1566 69.9296C85.4246 69.9296 86.5586 68.9969 86.5586 67.1314C86.5586 66.0122 86.3367 65.1261 85.893 64.4732C85.4739 63.8203 84.722 63.4938 83.6374 63.4938C82.4541 63.4938 81.3941 63.797 80.4573 64.4032C79.5205 64.9862 78.7933 65.7557 78.2756 66.7117C77.7826 67.6677 77.5361 68.6821 77.5361 69.7547C77.5361 71.5968 78.0784 73.1125 79.1631 74.3017C80.2477 75.4676 81.9241 76.0506 84.192 76.0506C84.4632 76.0506 84.9192 76.0273 85.5602 75.9806C85.8313 75.9573 86.1642 75.8874 86.5586 75.7708C86.953 75.6542 87.2365 75.5726 87.4091 75.5259C88.4691 75.1762 89.2456 75.0013 89.7387 75.0013C90.1084 75.0013 90.3919 75.0945 90.5892 75.2811C89.9729 76.1672 89.0484 76.8201 87.8158 77.2398C86.6079 77.6362 85.4123 77.8344 84.229 77.8344Z" stroke="#B28850" stroke-width="2" mask="url(#path-9-outside-1_103_47)"/>
<path d="M103.264 68.9852C101.686 68.9852 100.231 68.6938 98.9002 68.1108C97.569 67.5279 96.509 66.7001 95.7202 65.6274C94.9313 64.5548 94.5369 63.319 94.5369 61.9199C94.5369 60.3576 94.845 58.9002 95.4613 57.5477C96.0776 56.172 96.9774 55.076 98.1607 54.2599C99.3686 53.4204 100.774 53.0007 102.376 53.0007C104.052 53.0007 105.322 53.5137 106.185 54.5397C107.048 55.5424 107.454 56.8132 107.405 58.3522C107.405 59.728 106.826 60.7773 105.667 61.5001C104.533 62.223 103.079 62.5844 101.304 62.5844C101.033 62.5844 100.626 62.5611 100.084 62.5145C99.1961 62.4212 98.5674 62.293 98.1977 62.1297C97.8279 61.9665 97.643 61.6401 97.643 61.1504C97.643 60.9872 97.6923 60.8706 97.7909 60.8006C97.8895 60.7073 98.0867 60.6607 98.3826 60.6607C98.703 60.6607 99.27 60.7307 100.084 60.8706C100.872 61.0105 101.575 61.0804 102.191 61.0804C104.459 61.0804 105.593 60.1477 105.593 58.2823C105.593 57.163 105.371 56.2769 104.928 55.624C104.509 54.9711 103.757 54.6446 102.672 54.6446C101.489 54.6446 100.429 54.9478 99.4919 55.5541C98.5551 56.137 97.8279 56.9065 97.3102 57.8625C96.8172 58.8186 96.5706 59.8329 96.5706 60.9055C96.5706 62.7477 97.113 64.2633 98.1977 65.4526C99.2823 66.6185 100.959 67.2014 103.227 67.2014C103.498 67.2014 103.954 67.1781 104.595 67.1314C104.866 67.1081 105.199 67.0382 105.593 66.9216C105.988 66.805 106.271 66.7234 106.444 66.6767C107.504 66.327 108.28 66.1521 108.773 66.1521C109.143 66.1521 109.427 66.2454 109.624 66.4319C109.007 67.318 108.083 67.9709 106.85 68.3906C105.643 68.787 104.447 68.9852 103.264 68.9852Z" stroke="#B28850" stroke-width="2" mask="url(#path-9-outside-1_103_47)"/>
<path d="M121.343 72.2385C120.333 70.373 119.531 68.1811 118.94 65.6628C118.373 63.1444 118.089 60.9642 118.089 59.1221C118.089 58.3992 118.262 57.9329 118.607 57.723C118.804 57.6064 118.952 57.5481 119.051 57.5481C119.223 57.5481 119.346 57.6764 119.42 57.9329C119.519 58.1894 119.618 58.6557 119.716 59.3319L119.901 60.5911C120.172 59.3319 120.69 58.3409 121.454 57.6181C122.243 56.8719 123.204 56.4988 124.338 56.4988C125.596 56.4988 126.532 56.732 127.149 57.1983C127.765 57.6414 128.073 58.3876 128.073 59.4369C126.841 58.8772 125.719 58.5974 124.708 58.5974C123.747 58.5974 122.921 58.8423 122.231 59.3319C121.54 59.8216 121.06 60.5445 120.789 61.5005C120.567 62.1534 120.456 62.7713 120.456 63.3543C120.456 63.9839 120.542 64.5785 120.715 65.1381C120.912 65.6744 121.208 66.339 121.602 67.1318C121.972 67.948 122.255 68.6475 122.453 69.2304C122.674 69.8134 122.798 70.443 122.822 71.1192C122.822 71.5156 122.674 71.8071 122.379 71.9936C122.083 72.1569 121.738 72.2385 121.343 72.2385Z" stroke="#B28850" stroke-width="2" mask="url(#path-9-outside-1_103_47)"/>
</svg>
