<svg width="584" height="281" viewBox="0 0 584 281" fill="none" xmlns="http://www.w3.org/2000/svg">
<path fill-rule="evenodd" clip-rule="evenodd" d="M141.367 10.6356C136.487 16.0613 132.496 21.2881 132.496 22.254C132.496 23.2199 128.331 23.5353 123.24 22.9562C111.512 21.6187 105.206 24.9441 88.948 41.0418C72.7841 57.0487 61.359 80.1234 59.6762 100.169C59.3281 104.328 58.3437 108.715 57.4894 109.918C56.6352 111.122 53.8654 117.708 51.3327 124.555C42.8845 147.401 46.4317 169.125 61.6452 187.738C65.2436 192.139 79.101 197.403 87.0879 197.403C90.6329 197.403 91.6216 199.326 92.8368 208.58C93.6419 214.728 95.3588 221.757 96.6508 224.2C97.9428 226.644 99.3202 232.826 99.7132 237.941C101.061 255.57 107.685 263.859 129.292 274.952C144.382 282.701 225.082 282.623 234.337 274.851C235.853 273.578 243.821 271.238 252.041 269.654C271.769 265.851 281.671 260.849 286.764 252.113C290.431 245.823 292.039 244.939 299.812 244.931C309.909 244.922 320.583 239.196 325.947 230.91C328.832 226.454 329.319 222.299 328.341 210.477C327.664 202.316 325.926 193.719 324.476 191.37C320.454 184.855 311.039 180.117 302.119 180.117C293.493 180.117 293.143 178.425 301.448 176.86C318.925 173.567 326.906 170.547 331.786 165.378C338.963 157.772 340.065 150.27 336.213 135.225C333.701 125.424 330.773 120.523 322.099 111.612C316.079 105.428 310.36 100.864 309.388 101.472C308.416 102.079 308.551 100.106 309.685 97.0896C312.982 88.3126 306.529 71.8261 294.839 59.1619C289.331 53.1939 283.704 48.1896 282.335 48.0405C280.966 47.8914 278.886 47.5262 277.712 47.2302C276.537 46.9342 272.213 46.569 268.102 46.4199C261.445 46.1801 260.623 45.4994 260.589 40.2077C260.561 35.7566 257.909 32.0314 250.02 25.3633C241.339 18.0232 236.005 15.5924 219.628 11.5172C208.704 8.79681 195.923 6.62741 191.227 6.69224C186.531 6.75922 180.092 5.45412 176.917 3.7925C173.743 2.13304 166.442 0.773926 160.691 0.773926C150.998 0.773926 149.591 1.4913 141.367 10.6356ZM324.608 90.6743C322.93 95.1428 323.391 97.7811 326.838 103.425C329.229 107.34 332.687 111.126 334.521 111.839C345.274 116.014 354.533 109.199 352.951 98.2802C351.704 89.6912 345.348 85.0434 334.844 85.0434C328.059 85.0434 326.376 85.9704 324.608 90.6743ZM396.59 86.4846C395.807 87.2755 395.166 89.5054 395.166 91.4371C395.166 93.7902 391.899 95.8364 385.268 97.6298C379.822 99.1035 371.752 102.939 367.332 106.154C360.064 111.439 359.404 112.725 360.442 119.59C361.801 128.563 364.498 132.554 369.266 132.649C371.18 132.686 374.552 134.103 376.762 135.795C382.248 140 381.736 156.195 375.513 175.22C370.635 190.134 369.478 204.592 372.309 215.229C374.381 223.003 378.263 222.746 384.339 214.432C390.859 205.51 392.956 208.987 392.998 228.792C393.031 244.324 389.494 253.582 383.527 253.582C379.581 253.582 377.676 259.583 380.143 264.246C382.361 268.44 394.237 271.275 401.515 269.349C406.929 267.917 413.303 255.97 415.377 243.368L416.88 234.233L425.243 238.55C434.838 243.502 435.942 248.276 428.307 251.795C421.58 254.898 419.327 261.67 423.59 265.981C428.171 270.616 480.404 271.48 491.632 267.107C497.554 264.799 500.55 264.637 503.88 266.439C509.633 269.555 546.204 269.913 553.578 266.927C556.725 265.652 564.655 259.017 571.196 252.182C581.372 241.553 583.093 238.574 583.093 231.584C583.093 224.639 582.279 223.209 577.675 222.038C573.551 220.992 571.253 221.886 568.059 225.778C565.75 228.593 560.971 234.438 557.439 238.768C553.904 243.101 548.529 247.275 545.492 248.044C539.387 249.596 517.936 244.075 515.672 240.369C514.882 239.077 513.413 230.588 512.407 221.508C511.399 212.426 509.594 204.665 508.394 204.261C507.196 203.857 506.214 202.217 506.214 200.618C506.214 199.019 504.992 196.426 503.499 194.855C502.007 193.286 497.629 186.971 493.772 180.823C489.915 174.674 483.208 166.947 478.868 163.652C474.529 160.354 470.497 157.12 469.91 156.463C468.101 154.44 454.316 148.163 446.019 145.586C434.895 142.128 425.864 132.031 424.141 121.122C423.329 115.996 418.862 106.338 413.747 98.6562C405.549 86.342 400.364 82.6644 396.59 86.4846ZM3.56301 92.6428C1.14132 95.0952 0.0927734 100.02 0.0927734 108.961C0.0927734 120.635 0.771873 122.526 7.81485 130.413C16.9891 140.687 21.7492 141.255 27.7095 132.787C33.6548 124.337 33.2682 116.191 26.253 102.176C21.2409 92.1631 19.4022 90.3481 13.7068 89.7884C9.65782 89.3887 5.67078 90.5123 3.56301 92.6428ZM417.997 126.178C419.201 136.478 418.958 137.103 410.627 144.97C386.496 167.759 387.158 167.591 387.158 150.914C387.158 135.329 385.035 131.335 374.345 126.815C369.251 124.661 367.404 122.5 367.404 118.699C367.404 114.616 369.753 112.336 378.5 107.924C384.604 104.847 392.292 102.329 395.585 102.329C400.255 102.329 401.573 101.325 401.573 97.7659C401.573 88.5568 416.645 114.633 417.997 126.178ZM457.009 158.103C470.433 164.646 491.265 184.661 491.265 191.018C491.265 193.34 492.209 195.242 493.364 195.242C497.686 195.242 506.214 216.508 506.214 227.29C506.214 241.054 511.132 247.312 525.952 252.409C545.548 259.148 553.118 256.02 570.762 233.878C576.088 227.193 576.586 226.983 576.635 231.42C576.667 234.483 571.988 241.095 563.933 249.375L551.177 262.48L530.39 262.057C518.958 261.824 506.585 260.356 502.893 258.796C497.172 256.376 495.491 256.448 491.496 259.28C488.423 261.458 482.238 262.55 473.553 262.448C466.264 262.362 453.334 262.303 444.817 262.318C428.758 262.349 425.503 260.365 434.673 256.136C446.064 250.886 437.432 232.496 421.7 228.5C413.333 226.374 411.046 228.66 408.167 242.02C404.334 259.797 401.353 263.922 393.206 262.712C386.643 261.737 383.852 257.904 389.705 257.904C396.578 257.904 399.437 248.961 399.437 227.463C399.437 209.901 398.767 205.765 395.166 201.134C389.656 194.047 389.703 193.816 397.415 189.78C406.091 185.24 428.967 161.927 431.588 154.955C434.05 148.401 438.144 148.909 457.009 158.103ZM381.311 201.309C380.025 206.491 379.668 206.677 377.723 203.157C376.534 201.009 376.203 196.662 376.988 193.496C378.274 188.315 378.631 188.129 380.576 191.649C381.766 193.796 382.097 198.144 381.311 201.309ZM305.615 203.961C308.404 205.471 309.745 208.49 309.745 213.252C309.745 221.813 306.492 225.493 298.92 225.493C293.406 225.493 293.231 225.108 293.474 213.619C293.745 200.918 296.276 198.904 305.615 203.961Z" fill="#FFFF00"/>
<path fill-rule="evenodd" clip-rule="evenodd" d="M141.367 10.6356C136.487 16.0613 132.496 21.2881 132.496 22.254C132.496 23.2199 128.331 23.5353 123.24 22.9562C111.512 21.6187 105.206 24.9441 88.948 41.0418C72.7841 57.0487 61.359 80.1234 59.6762 100.169C59.3281 104.328 58.3565 108.704 57.5193 109.892C52.2254 117.396 47.0851 137.245 47.1642 149.866C47.2517 163.764 50.991 173.345 62.0232 187.947C65.2307 192.191 79.0434 197.403 87.0879 197.403C90.6329 197.403 91.6216 199.326 92.8368 208.58C93.6419 214.728 95.3588 221.757 96.6508 224.2C97.9428 226.644 99.3202 232.826 99.7132 237.941C100.74 251.37 107.245 262.513 117.59 268.565C132.487 277.279 136.239 278.107 169.603 280.015C203.974 281.979 228.17 280.03 234.408 274.792C235.885 273.552 243.742 271.253 251.865 269.687C270.639 266.069 283.128 259.628 287.332 251.4C290.207 245.776 291.802 244.939 299.657 244.931C309.905 244.922 320.544 239.254 325.932 230.933C330.015 224.628 329.345 202.882 324.76 192.898C321.324 185.417 311.934 180.117 302.119 180.117C293.493 180.117 293.143 178.425 301.448 176.86C318.925 173.567 326.906 170.547 331.786 165.378C338.963 157.772 340.065 150.27 336.213 135.225C333.701 125.424 330.773 120.523 322.099 111.612C316.079 105.428 310.36 100.864 309.388 101.472C308.416 102.079 308.551 100.106 309.685 97.0896C312.982 88.3127 306.529 71.8261 294.839 59.1619C289.331 53.1939 283.704 48.1896 282.335 48.0405C280.966 47.8914 278.886 47.5262 277.712 47.2302C276.537 46.9342 272.213 46.569 268.102 46.4199C261.657 46.1865 260.628 45.4173 260.628 40.8322C260.628 35.521 256.688 30.7026 244.611 21.2471C237.333 15.547 204.1 6.47832 191.227 6.67927C186.531 6.75274 180.092 5.45412 176.917 3.7925C173.743 2.13304 166.442 0.773926 160.691 0.773926C150.998 0.773926 149.591 1.4913 141.367 10.6356ZM324.608 90.6744C322.93 95.1428 323.391 97.7811 326.838 103.425C329.229 107.34 332.687 111.126 334.521 111.839C345.274 116.014 354.533 109.199 352.951 98.2802C351.704 89.6912 345.348 85.0434 334.844 85.0434C328.059 85.0434 326.376 85.9704 324.608 90.6744ZM396.59 86.4846C395.807 87.2755 395.166 89.6091 395.166 91.6705C395.166 94.3628 392.257 96.1216 384.811 97.9302C379.115 99.3131 371.131 103.218 367.067 106.606C360.643 111.962 359.795 113.781 360.573 120.534C361.536 128.866 362.868 130.313 372.655 133.66C383.051 137.215 383.404 150.074 373.96 181.197C370.714 191.897 369.758 199.09 370.695 205.782C373.179 223.526 376.264 225.482 384.339 214.432C390.859 205.51 392.956 208.987 392.998 228.792C393.031 244.324 389.494 253.582 383.527 253.582C379.581 253.582 377.676 259.583 380.143 264.246C382.361 268.44 394.237 271.275 401.515 269.349C406.929 267.917 413.303 255.97 415.377 243.369L416.88 234.233L425.243 238.55C434.838 243.502 435.942 248.276 428.307 251.795C421.58 254.898 419.327 261.67 423.59 265.981C428.171 270.616 480.404 271.48 491.632 267.107C497.454 264.838 500.578 264.652 503.766 266.378C509.389 269.423 546.227 269.792 553.578 266.878C556.725 265.631 564.655 259.017 571.196 252.182C581.316 241.61 583.093 238.55 583.093 231.69C583.093 225.583 582.078 223.297 578.92 222.282C574.721 220.936 563.873 226.491 563.873 229.987C563.873 233.833 550.772 246.705 545.492 248.044C539.387 249.596 517.936 244.075 515.672 240.369C514.882 239.077 513.413 230.588 512.407 221.508C511.399 212.426 509.594 204.665 508.394 204.261C507.196 203.857 506.214 202.217 506.214 200.618C506.214 199.019 504.992 196.426 503.499 194.855C502.007 193.287 497.629 186.971 493.772 180.823C489.915 174.674 483.208 166.947 478.868 163.652C474.529 160.354 470.497 157.005 469.91 156.21C469.322 155.415 461.775 151.981 453.139 148.583C434.225 141.141 426.086 133.431 424.141 121.122C423.329 115.996 418.862 106.338 413.747 98.6562C405.549 86.342 400.364 82.6644 396.59 86.4846ZM3.56301 92.6428C1.14132 95.0953 0.0927734 100.02 0.0927734 108.961C0.0927734 120.635 0.771873 122.526 7.81485 130.413C16.9891 140.687 21.7492 141.256 27.7095 132.787C33.6548 124.337 33.2682 116.191 26.253 102.176C21.2409 92.1631 19.4022 90.3481 13.7068 89.7884C9.65782 89.3887 5.67078 90.5123 3.56301 92.6428ZM405.844 98.2802C405.844 99.4773 408.278 103.686 411.255 107.636C414.648 112.137 417.147 118.92 417.954 125.823C419.21 136.549 419.022 137.04 410.627 144.97C386.496 167.759 387.158 167.591 387.158 150.914C387.158 135.329 385.035 131.335 374.345 126.815C369.251 124.661 367.404 122.5 367.404 118.699C367.404 114.616 369.753 112.336 378.5 107.924C384.604 104.847 392.292 102.329 395.585 102.329C400.206 102.329 401.573 101.314 401.573 97.8805C401.573 95.4345 402.534 94.0322 403.708 94.7668C404.883 95.5015 405.844 97.0832 405.844 98.2802ZM457.096 158.058C470.518 164.715 491.265 184.726 491.265 191.018C491.265 193.341 492.209 195.242 493.364 195.242C497.686 195.242 506.214 216.508 506.214 227.29C506.214 241.054 511.132 247.312 525.952 252.409C545.548 259.149 553.118 256.02 570.762 233.878C576.088 227.193 576.586 226.984 576.635 231.42C576.667 234.486 571.971 241.113 563.867 249.442L551.045 262.619L529.164 261.508C517.128 260.899 504.149 259.725 500.322 258.902C495.967 257.967 492.207 258.377 490.274 260C488.544 261.452 481.279 262.526 473.743 262.442C466.35 262.359 453.334 262.303 444.817 262.318C428.758 262.349 425.503 260.365 434.673 256.136C446.064 250.886 437.432 232.496 421.7 228.5C413.333 226.374 411.046 228.66 408.167 242.02C404.334 259.797 401.353 263.922 393.206 262.712C386.643 261.737 383.852 257.904 389.705 257.904C396.578 257.904 399.437 248.961 399.437 227.463C399.437 209.901 398.767 205.765 395.166 201.134C389.656 194.047 389.703 193.816 397.415 189.78C406.091 185.24 428.967 161.927 431.588 154.955C434.071 148.347 438.633 148.902 457.096 158.058ZM381.311 201.309C380.025 206.491 379.668 206.677 377.723 203.157C376.534 201.009 376.203 196.662 376.988 193.496C378.274 188.315 378.631 188.129 380.576 191.649C381.766 193.796 382.097 198.144 381.311 201.309ZM307.182 204.317C308.592 205.743 309.745 209.924 309.745 213.608C309.745 221.828 306.407 225.493 298.92 225.493C293.406 225.493 293.231 225.108 293.474 213.619C293.713 202.401 294.029 201.744 299.174 201.735C302.168 201.729 305.773 202.891 307.182 204.317Z" fill="#F7D254"/>
<path fill-rule="evenodd" clip-rule="evenodd" d="M141.367 10.6356C136.487 16.0613 132.496 21.2881 132.496 22.254C132.496 23.2199 128.331 23.5353 123.24 22.9562C111.512 21.6187 105.206 24.9441 88.948 41.0418C72.7841 57.0487 61.359 80.1234 59.6762 100.169C59.3281 104.328 58.3565 108.704 57.5193 109.892C52.2254 117.396 47.0851 137.245 47.1642 149.866C47.2517 163.764 50.991 173.345 62.0232 187.947C65.2307 192.191 79.0434 197.403 87.0879 197.403C90.6329 197.403 91.6216 199.326 92.8368 208.58C93.6419 214.728 95.3588 221.757 96.6508 224.2C97.9428 226.644 99.3202 232.826 99.7132 237.941C100.74 251.37 107.245 262.513 117.59 268.565C132.002 276.996 136.094 277.897 169.203 279.928C203.728 282.046 228.05 280.132 234.408 274.792C235.885 273.552 243.742 271.253 251.865 269.687C270.639 266.069 283.128 259.628 287.332 251.4C290.207 245.776 291.802 244.939 299.657 244.931C309.905 244.922 320.544 239.254 325.932 230.933C330.015 224.628 329.345 202.882 324.76 192.898C321.324 185.417 311.934 180.117 302.119 180.117C293.493 180.117 293.143 178.425 301.448 176.86C318.925 173.567 326.906 170.547 331.786 165.378C338.963 157.772 340.065 150.27 336.213 135.225C333.701 125.424 330.773 120.523 322.099 111.612C316.079 105.428 310.36 100.864 309.388 101.472C308.416 102.079 308.551 100.106 309.685 97.0896C312.982 88.3127 306.529 71.8261 294.839 59.1619C289.331 53.1939 283.704 48.1896 282.335 48.0405C280.966 47.8914 278.886 47.5262 277.712 47.2302C276.537 46.9342 272.213 46.569 268.102 46.4199C261.657 46.1865 260.628 45.4173 260.628 40.8322C260.628 35.521 256.688 30.7026 244.611 21.2471C237.333 15.547 204.1 6.47832 191.227 6.67927C186.531 6.75274 180.092 5.45412 176.917 3.7925C173.743 2.13304 166.442 0.773926 160.691 0.773926C150.998 0.773926 149.591 1.4913 141.367 10.6356ZM149.58 16.6036C149.58 16.9904 146.938 19.6633 143.707 22.5457L137.835 27.7834L143.011 21.8413C147.85 16.2882 149.58 14.9074 149.58 16.6036ZM121.239 32.3296C120.53 33.047 118.687 33.1248 117.148 32.5003C115.443 31.811 115.95 31.2989 118.438 31.1952C120.688 31.1023 121.948 31.6122 121.239 32.3296ZM96.1917 44.8058C96.1917 45.2531 94.5089 46.9558 92.4545 48.5871C89.0675 51.273 88.9928 51.1973 91.6473 47.7704C94.4384 44.1706 96.1917 43.0275 96.1917 44.8058ZM262.184 56.0979C261.475 56.8153 259.632 56.8931 258.093 56.2686C256.389 55.5793 256.895 55.0673 259.383 54.9635C261.633 54.8706 262.893 55.3806 262.184 56.0979ZM302.926 84.0192C302.268 84.6847 301.075 83.4855 300.272 81.355C299.114 78.2759 299.358 78.0275 301.467 80.145C302.928 81.6121 303.584 83.3559 302.926 84.0192ZM324.608 90.6744C322.93 95.1428 323.391 97.7811 326.838 103.425C329.229 107.34 332.687 111.126 334.521 111.839C345.274 116.014 354.533 109.199 352.951 98.2802C351.704 89.6912 345.348 85.0434 334.844 85.0434C328.059 85.0434 326.376 85.9704 324.608 90.6744ZM396.59 86.4846C395.807 87.2755 395.166 89.6091 395.166 91.6705C395.166 94.3628 392.257 96.1216 384.811 97.9302C379.115 99.3131 371.131 103.218 367.067 106.606C360.643 111.962 359.795 113.781 360.573 120.534C361.536 128.866 362.868 130.313 372.655 133.66C383.051 137.215 383.404 150.074 373.96 181.197C370.714 191.897 369.758 199.09 370.695 205.782C373.179 223.526 376.264 225.482 384.339 214.432C390.859 205.51 392.956 208.987 392.998 228.792C393.031 244.324 389.494 253.582 383.527 253.582C379.581 253.582 377.676 259.583 380.143 264.246C382.361 268.44 394.237 271.275 401.515 269.349C406.929 267.917 413.303 255.97 415.377 243.369L416.88 234.233L425.243 238.55C434.838 243.502 435.942 248.276 428.307 251.795C421.58 254.898 419.327 261.67 423.59 265.981C428.171 270.616 480.404 271.48 491.632 267.107C497.454 264.838 500.578 264.652 503.766 266.378C509.389 269.423 546.227 269.792 553.578 266.878C556.725 265.631 564.655 259.017 571.196 252.182C581.316 241.61 583.093 238.55 583.093 231.69C583.093 225.583 582.078 223.297 578.92 222.282C574.721 220.936 563.873 226.491 563.873 229.987C563.873 233.833 550.772 246.705 545.492 248.044C539.387 249.596 517.936 244.075 515.672 240.369C514.882 239.077 513.413 230.588 512.407 221.508C511.399 212.426 509.594 204.665 508.394 204.261C507.196 203.857 506.214 202.217 506.214 200.618C506.214 199.019 504.992 196.426 503.499 194.855C502.007 193.287 497.629 186.971 493.772 180.823C489.915 174.674 483.208 166.947 478.868 163.652C474.529 160.354 470.497 157.005 469.91 156.21C469.322 155.415 461.775 151.981 453.139 148.583C434.268 141.156 425.886 133.237 423.923 120.975C423.131 116.035 418.539 106.057 413.634 98.6173C405.543 86.3442 400.368 82.6601 396.59 86.4846ZM3.56301 92.6428C1.14132 95.0953 0.0927734 100.02 0.0927734 108.961C0.0927734 120.635 0.771873 122.526 7.81485 130.413C16.9891 140.687 21.7492 141.256 27.7095 132.787C33.6548 124.337 33.2682 116.191 26.253 102.176C21.2409 92.1631 19.4022 90.3481 13.7068 89.7884C9.65782 89.3887 5.67078 90.5123 3.56301 92.6428ZM341.199 92.8308C340.49 93.5482 338.647 93.6259 337.107 93.0015C335.403 92.3122 335.909 91.8001 338.397 91.6964C340.648 91.6035 341.908 92.1134 341.199 92.8308ZM405.844 98.2802C405.844 99.4773 408.278 103.686 411.255 107.636C414.648 112.137 417.147 118.92 417.954 125.823C419.21 136.549 419.022 137.04 410.627 144.97C386.496 167.759 387.158 167.591 387.158 150.914C387.158 135.329 385.035 131.335 374.345 126.815C369.251 124.661 367.404 122.5 367.404 118.699C367.404 114.616 369.753 112.336 378.5 107.924C384.604 104.847 392.292 102.329 395.585 102.329C400.206 102.329 401.573 101.314 401.573 97.8805C401.573 95.4345 402.534 94.0322 403.708 94.7668C404.883 95.5015 405.844 97.0832 405.844 98.2802ZM69.8435 107.191C69.2519 108.678 68.7672 107.461 68.7672 104.49C68.7672 101.519 69.2519 100.305 69.8435 101.789C70.4372 103.276 70.4372 105.707 69.8435 107.191ZM5.77756 111.513C5.18602 112.999 4.70125 111.783 4.70125 108.812C4.70125 105.841 5.18602 104.626 5.77756 106.111C6.37123 107.597 6.37123 110.028 5.77756 111.513ZM286.254 109.765C286.254 110.29 285.293 111.318 284.118 112.053C282.944 112.788 281.983 112.358 281.983 111.1C281.983 109.842 282.944 108.812 284.118 108.812C285.293 108.812 286.254 109.24 286.254 109.765ZM76.5597 127.234C75.902 127.9 74.7082 126.701 73.9053 124.57C72.7478 121.491 72.9913 121.243 75.1012 123.36C76.5619 124.827 77.2175 126.571 76.5597 127.234ZM327.102 127.718C329.757 131.145 329.682 131.221 326.295 128.535C322.737 125.711 321.608 123.937 323.365 123.937C323.807 123.937 325.49 125.64 327.102 127.718ZM54.8948 148.246C54.3032 149.732 53.8185 148.516 53.8185 145.545C53.8185 142.574 54.3032 141.359 54.8948 142.844C55.4885 144.33 55.4885 146.761 54.8948 148.246ZM330.423 148.112C329.742 149.834 329.236 149.322 329.133 146.804C329.041 144.527 329.545 143.252 330.254 143.969C330.963 144.687 331.04 146.552 330.423 148.112ZM457.096 158.058C470.518 164.715 491.265 184.726 491.265 191.018C491.265 193.341 492.209 195.242 493.364 195.242C497.686 195.242 506.214 216.508 506.214 227.29C506.214 241.054 511.132 247.312 525.952 252.409C545.548 259.149 553.118 256.02 570.762 233.878C576.088 227.193 576.586 226.984 576.635 231.42C576.667 234.486 571.971 241.113 563.867 249.442L551.045 262.619L529.164 261.508C517.128 260.899 504.149 259.725 500.322 258.902C495.967 257.967 492.207 258.377 490.274 260C488.544 261.452 481.279 262.526 473.743 262.442C466.35 262.359 453.334 262.303 444.817 262.318C428.758 262.349 425.503 260.365 434.673 256.136C446.064 250.886 437.432 232.496 421.7 228.5C413.333 226.374 411.046 228.66 408.167 242.02C404.334 259.797 401.353 263.922 393.206 262.712C386.643 261.737 383.852 257.904 389.705 257.904C396.578 257.904 399.437 248.961 399.437 227.463C399.437 209.901 398.767 205.765 395.166 201.134C389.656 194.047 389.703 193.816 397.415 189.78C406.091 185.24 428.967 161.927 431.588 154.955C434.071 148.347 438.633 148.902 457.096 158.058ZM327.897 158.509C327.171 159.698 325.432 160.655 324.034 160.637C322.505 160.616 322.769 159.767 324.694 158.509C328.796 155.825 329.535 155.825 327.897 158.509ZM278.333 184.978C275.781 217.634 273.355 234.544 270.442 239.98C267.647 245.194 265.808 244.157 266.782 237.917C267.164 235.464 265.535 235.961 262.231 239.304C260.596 240.957 248.276 245.912 234.852 250.313C210.494 258.299 210.379 258.314 179.477 257.478C147.545 256.614 136.867 253.95 133.89 246.1C132.308 241.929 127.338 241.824 123.334 245.875C120.676 248.563 119.915 247.781 117.553 239.933C116.059 234.961 114.461 222.558 114.004 212.368C113.274 196.07 113.68 193.382 117.37 190.002C121.395 186.316 122.111 186.34 135.039 190.551C143.244 193.226 153.018 194.745 160.036 194.44C169.137 194.045 172.955 194.965 178.188 198.818C191.095 208.319 198.654 210.711 207.073 207.958C221.274 203.317 230.888 197.264 233.002 191.638C234.852 186.718 235.988 186.195 242.527 187.269C246.61 187.939 249.95 187.578 249.95 186.463C249.95 185.35 251.631 184.408 253.687 184.371C255.744 184.335 261.268 181.908 265.966 178.98C278.233 171.335 279.358 171.882 278.333 184.978ZM285.59 188.22C285.054 190.3 284.614 188.598 284.614 184.438C284.614 180.279 285.054 178.576 285.59 180.657C286.128 182.738 286.128 186.139 285.59 188.22ZM114.329 182.254C115.076 183.477 114.22 183.84 112.319 183.103C108.62 181.666 107.944 180.117 111.014 180.117C112.121 180.117 113.611 181.078 114.329 182.254ZM171.469 188.029C170.002 188.63 167.6 188.63 166.13 188.029C164.663 187.431 165.863 186.94 168.8 186.94C171.736 186.94 172.938 187.431 171.469 188.029ZM381.311 201.309C380.025 206.491 379.668 206.677 377.723 203.157C376.534 201.009 376.203 196.662 376.988 193.496C378.274 188.315 378.631 188.129 380.576 191.649C381.766 193.796 382.097 198.144 381.311 201.309ZM106.291 194.386C105.582 195.104 103.739 195.181 102.199 194.557C100.495 193.868 101.001 193.356 103.489 193.252C105.74 193.159 107 193.669 106.291 194.386ZM250.317 198.529C245.886 208.369 247.842 227.653 253.271 227.653C258.622 227.653 260.378 195.473 255.122 193.732C253.858 193.312 251.695 195.471 250.317 198.529ZM303.913 196.659C302.467 197.251 299.584 197.288 297.506 196.739C295.428 196.191 296.611 195.707 300.135 195.663C303.659 195.62 305.358 196.067 303.913 196.659ZM137.54 202.805C135.799 207.39 138.178 212.528 142.039 212.528C144.248 212.528 145.309 210.426 145.309 206.046C145.309 199.092 139.816 196.8 137.54 202.805ZM307.182 204.317C308.592 205.743 309.745 209.924 309.745 213.608C309.745 221.828 306.407 225.493 298.92 225.493C293.406 225.493 293.231 225.108 293.474 213.619C293.713 202.401 294.029 201.744 299.174 201.735C302.168 201.729 305.773 202.891 307.182 204.317ZM315.474 212.934C314.793 214.656 314.287 214.144 314.185 211.627C314.093 209.35 314.597 208.075 315.306 208.792C316.015 209.509 316.092 211.374 315.474 212.934ZM285.577 217.256C284.896 218.978 284.39 218.466 284.287 215.949C284.195 213.671 284.699 212.396 285.408 213.114C286.117 213.831 286.194 215.696 285.577 217.256ZM177.735 228.801C178.106 231.808 179.371 234.27 180.545 234.27C181.72 234.27 182.984 231.808 183.356 228.801C183.838 224.903 183.031 223.332 180.545 223.332C178.059 223.332 177.252 224.903 177.735 228.801ZM202.242 235.614C202.012 235.834 187.58 236.489 170.171 237.07C152.76 237.651 138.014 238.636 137.401 239.257C136.788 239.877 139.517 242.379 143.466 244.814C148.472 247.902 154.532 249.295 163.461 249.414C170.508 249.509 181.56 249.814 188.02 250.093C194.48 250.374 203.128 249.723 207.239 248.649C227.781 243.282 238.6 239.695 242.476 236.962C246.226 234.319 244.058 234.03 224.702 234.583C212.578 234.931 202.471 235.395 202.242 235.614ZM249.442 255.067C247.4 255.607 243.556 255.626 240.9 255.11C238.243 254.594 239.913 254.151 244.611 254.127C249.309 254.103 251.483 254.527 249.442 255.067ZM231.264 259.334C229.797 259.935 227.394 259.935 225.925 259.334C224.458 258.736 225.658 258.245 228.595 258.245C231.531 258.245 232.733 258.736 231.264 259.334ZM159.749 263.71C157.708 264.25 153.864 264.27 151.207 263.753C148.551 263.237 150.221 262.794 154.919 262.77C159.617 262.746 161.791 263.17 159.749 263.71ZM181.034 272.174C180.325 272.891 178.482 272.969 176.943 272.344C175.238 271.655 175.744 271.143 178.232 271.039C180.483 270.946 181.743 271.456 181.034 272.174Z" fill="#FFAA00"/>
<path fill-rule="evenodd" clip-rule="evenodd" d="M141.367 10.6356C136.487 16.0613 132.496 21.2881 132.496 22.254C132.496 23.2199 128.331 23.5353 123.24 22.9562C111.512 21.6187 105.206 24.9441 88.948 41.0418C72.7841 57.0487 61.359 80.1234 59.6762 100.169C59.3281 104.328 58.3565 108.704 57.5193 109.892C52.2254 117.396 47.0851 137.245 47.1642 149.866C47.2517 163.764 50.991 173.345 62.0232 187.947C65.2307 192.191 79.0434 197.403 87.0879 197.403C90.6329 197.403 91.6216 199.326 92.8368 208.58C93.6419 214.728 95.3588 221.757 96.6508 224.2C97.9428 226.644 99.3202 232.826 99.7132 237.941C100.74 251.37 107.245 262.513 117.59 268.565C132.002 276.996 136.094 277.897 169.203 279.928C203.728 282.046 228.05 280.132 234.408 274.792C235.885 273.552 243.742 271.253 251.865 269.687C270.639 266.069 283.128 259.628 287.332 251.4C290.207 245.776 291.802 244.939 299.657 244.931C309.905 244.922 320.544 239.254 325.932 230.933C330.015 224.628 329.345 202.882 324.76 192.898C321.324 185.417 311.934 180.117 302.119 180.117C293.493 180.117 293.143 178.425 301.448 176.86C318.925 173.567 326.906 170.547 331.786 165.378C338.963 157.772 340.065 150.27 336.213 135.225C333.701 125.424 330.773 120.523 322.099 111.612C316.079 105.428 310.36 100.864 309.388 101.472C308.416 102.079 308.551 100.106 309.685 97.0896C312.982 88.3127 306.529 71.8261 294.839 59.1619C289.331 53.1939 283.704 48.1896 282.335 48.0405C280.966 47.8914 278.886 47.5262 277.712 47.2302C276.537 46.9342 272.213 46.569 268.102 46.4199C261.657 46.1865 260.628 45.4173 260.628 40.8322C260.628 35.521 256.688 30.7026 244.611 21.2471C237.333 15.547 204.1 6.47832 191.227 6.67927C186.531 6.75274 180.092 5.45412 176.917 3.7925C173.743 2.13304 166.442 0.773926 160.691 0.773926C150.998 0.773926 149.591 1.4913 141.367 10.6356ZM149.58 16.6036C149.58 16.9904 146.938 19.6633 143.707 22.5457L137.835 27.7834L143.011 21.8413C147.85 16.2882 149.58 14.9074 149.58 16.6036ZM121.239 32.3296C120.53 33.047 118.687 33.1248 117.148 32.5003C115.443 31.811 115.95 31.2989 118.438 31.1952C120.688 31.1023 121.948 31.6122 121.239 32.3296ZM96.1917 44.8058C96.1917 45.2531 94.5089 46.9558 92.4545 48.5871C89.0675 51.273 88.9928 51.1973 91.6473 47.7704C94.4384 44.1706 96.1917 43.0275 96.1917 44.8058ZM262.184 56.0979C261.475 56.8153 259.632 56.8931 258.093 56.2686C256.389 55.5793 256.895 55.0673 259.383 54.9635C261.633 54.8706 262.893 55.3806 262.184 56.0979ZM302.926 84.0192C302.268 84.6847 301.075 83.4855 300.272 81.355C299.114 78.2759 299.358 78.0275 301.467 80.145C302.928 81.6121 303.584 83.3559 302.926 84.0192ZM324.608 90.6744C322.93 95.1428 323.391 97.7811 326.838 103.425C329.229 107.34 332.687 111.126 334.521 111.839C345.274 116.014 354.533 109.199 352.951 98.2802C351.704 89.6912 345.348 85.0434 334.844 85.0434C328.059 85.0434 326.376 85.9704 324.608 90.6744ZM396.59 86.4846C395.807 87.2755 395.166 89.6091 395.166 91.6705C395.166 94.3628 392.257 96.1216 384.811 97.9302C379.115 99.3131 371.131 103.218 367.067 106.606C360.643 111.962 359.795 113.781 360.573 120.534C361.536 128.866 362.868 130.313 372.655 133.66C383.051 137.215 383.404 150.074 373.96 181.197C370.714 191.897 369.758 199.09 370.695 205.782C373.179 223.526 376.264 225.482 384.339 214.432C390.859 205.51 392.956 208.987 392.998 228.792C393.031 244.324 389.494 253.582 383.527 253.582C379.581 253.582 377.676 259.583 380.143 264.246C382.361 268.44 394.237 271.275 401.515 269.349C406.929 267.917 413.303 255.97 415.377 243.369L416.88 234.233L425.243 238.55C434.838 243.502 435.942 248.276 428.307 251.795C421.58 254.898 419.327 261.67 423.59 265.981C428.171 270.616 480.404 271.48 491.632 267.107C497.454 264.838 500.578 264.652 503.766 266.378C509.389 269.423 546.227 269.792 553.578 266.878C556.725 265.631 564.655 259.017 571.196 252.182C581.316 241.61 583.093 238.55 583.093 231.69C583.093 225.583 582.078 223.297 578.92 222.282C574.721 220.936 563.873 226.491 563.873 229.987C563.873 233.833 550.772 246.705 545.492 248.044C539.387 249.596 517.936 244.075 515.672 240.369C514.882 239.077 513.413 230.588 512.407 221.508C511.399 212.426 509.594 204.665 508.394 204.261C507.196 203.857 506.214 202.217 506.214 200.618C506.214 199.019 504.992 196.426 503.499 194.855C502.007 193.287 497.629 186.971 493.772 180.823C489.915 174.674 483.208 166.947 478.868 163.652C474.529 160.354 470.497 157.005 469.91 156.21C469.322 155.415 461.775 151.981 453.139 148.583C434.268 141.156 425.886 133.237 423.923 120.975C423.131 116.035 418.539 106.057 413.634 98.6173C405.543 86.3442 400.368 82.6601 396.59 86.4846ZM3.56301 92.6428C1.14132 95.0953 0.0927734 100.02 0.0927734 108.961C0.0927734 120.635 0.771873 122.526 7.81485 130.413C16.9891 140.687 21.7492 141.256 27.7095 132.787C33.6548 124.337 33.2682 116.191 26.253 102.176C21.2409 92.1631 19.4022 90.3481 13.7068 89.7884C9.65782 89.3887 5.67078 90.5123 3.56301 92.6428ZM341.199 92.8308C340.49 93.5482 338.647 93.6259 337.107 93.0015C335.403 92.3122 335.909 91.8001 338.397 91.6964C340.648 91.6035 341.908 92.1134 341.199 92.8308ZM405.844 98.2802C405.844 99.4773 408.278 103.686 411.255 107.636C414.648 112.137 417.147 118.92 417.954 125.823C419.21 136.549 419.022 137.04 410.627 144.97C386.496 167.759 387.158 167.591 387.158 150.914C387.158 135.329 385.035 131.335 374.345 126.815C369.251 124.661 367.404 122.5 367.404 118.699C367.404 114.616 369.753 112.336 378.5 107.924C384.604 104.847 392.292 102.329 395.585 102.329C400.206 102.329 401.573 101.314 401.573 97.8805C401.573 95.4345 402.534 94.0322 403.708 94.7668C404.883 95.5015 405.844 97.0832 405.844 98.2802ZM69.8435 107.191C69.2519 108.678 68.7672 107.461 68.7672 104.49C68.7672 101.519 69.2519 100.305 69.8435 101.789C70.4372 103.276 70.4372 105.707 69.8435 107.191ZM5.77756 111.513C5.18602 112.999 4.70125 111.783 4.70125 108.812C4.70125 105.841 5.18602 104.626 5.77756 106.111C6.37123 107.597 6.37123 110.028 5.77756 111.513ZM286.254 109.765C286.254 110.29 285.293 111.318 284.118 112.053C282.944 112.788 281.983 112.358 281.983 111.1C281.983 109.842 282.944 108.812 284.118 108.812C285.293 108.812 286.254 109.24 286.254 109.765ZM76.5597 127.234C75.902 127.9 74.7082 126.701 73.9053 124.57C72.7478 121.491 72.9913 121.243 75.1012 123.36C76.5619 124.827 77.2175 126.571 76.5597 127.234ZM327.102 127.718C329.757 131.145 329.682 131.221 326.295 128.535C322.737 125.711 321.608 123.937 323.365 123.937C323.807 123.937 325.49 125.64 327.102 127.718ZM54.8948 148.246C54.3032 149.732 53.8185 148.516 53.8185 145.545C53.8185 142.574 54.3032 141.359 54.8948 142.844C55.4885 144.33 55.4885 146.761 54.8948 148.246ZM330.423 148.112C329.742 149.834 329.236 149.322 329.133 146.804C329.041 144.527 329.545 143.252 330.254 143.969C330.963 144.687 331.04 146.552 330.423 148.112ZM457.096 158.058C470.518 164.715 491.265 184.726 491.265 191.018C491.265 193.341 492.209 195.242 493.364 195.242C497.686 195.242 506.214 216.508 506.214 227.29C506.214 241.054 511.132 247.312 525.952 252.409C545.548 259.149 553.118 256.02 570.762 233.878C576.088 227.193 576.586 226.984 576.635 231.42C576.667 234.486 571.971 241.113 563.867 249.442L551.045 262.619L529.164 261.508C517.128 260.899 504.149 259.725 500.322 258.902C495.967 257.967 492.207 258.377 490.274 260C488.544 261.452 481.279 262.526 473.743 262.442C466.35 262.359 453.334 262.303 444.817 262.318C428.758 262.349 425.503 260.365 434.673 256.136C446.064 250.886 437.432 232.496 421.7 228.5C413.333 226.374 411.046 228.66 408.167 242.02C404.334 259.797 401.353 263.922 393.206 262.712C386.643 261.737 383.852 257.904 389.705 257.904C396.578 257.904 399.437 248.961 399.437 227.463C399.437 209.901 398.767 205.765 395.166 201.134C389.656 194.047 389.703 193.816 397.415 189.78C406.091 185.24 428.967 161.927 431.588 154.955C434.071 148.347 438.633 148.902 457.096 158.058ZM327.897 158.509C327.171 159.698 325.432 160.655 324.034 160.637C322.505 160.616 322.769 159.767 324.694 158.509C328.796 155.825 329.535 155.825 327.897 158.509ZM278.333 184.978C273.516 246.601 271.769 250.175 243.543 256.123C184.729 268.52 137.239 267.193 124.387 252.792C118.013 245.646 115.174 234.788 114.113 213.466C113.229 195.713 113.551 193.498 117.549 189.838C121.859 185.89 122.22 185.892 133.102 189.87C139.229 192.109 150.488 194.123 158.122 194.345C175.665 194.857 173.859 194.384 180.915 200.322C191.078 208.874 198.272 210.22 210.765 205.905C224.956 201.003 232.129 196.165 233.59 190.516C234.583 186.67 235.892 186.18 242.354 187.241C246.531 187.928 249.95 187.653 249.95 186.636C249.95 185.616 252.592 184.181 255.823 183.449C259.054 182.714 264.098 180.229 267.034 177.924C276.601 170.408 279.339 172.118 278.333 184.978ZM285.59 188.22C285.054 190.3 284.614 188.598 284.614 184.438C284.614 180.279 285.054 178.576 285.59 180.657C286.128 182.738 286.128 186.139 285.59 188.22ZM114.329 182.254C115.076 183.477 114.22 183.84 112.319 183.103C108.62 181.666 107.944 180.117 111.014 180.117C112.121 180.117 113.611 181.078 114.329 182.254ZM171.469 188.029C170.002 188.63 167.6 188.63 166.13 188.029C164.663 187.431 165.863 186.94 168.8 186.94C171.736 186.94 172.938 187.431 171.469 188.029ZM381.311 201.309C380.025 206.491 379.668 206.677 377.723 203.157C376.534 201.009 376.203 196.662 376.988 193.496C378.274 188.315 378.631 188.129 380.576 191.649C381.766 193.796 382.097 198.144 381.311 201.309ZM106.291 194.386C105.582 195.104 103.739 195.181 102.199 194.557C100.495 193.868 101.001 193.356 103.489 193.252C105.74 193.159 107 193.669 106.291 194.386ZM250.317 198.529C245.886 208.369 247.842 227.653 253.271 227.653C258.622 227.653 260.378 195.473 255.122 193.732C253.858 193.312 251.695 195.471 250.317 198.529ZM303.913 196.659C302.467 197.251 299.584 197.288 297.506 196.739C295.428 196.191 296.611 195.707 300.135 195.663C303.659 195.62 305.358 196.067 303.913 196.659ZM137.54 202.805C135.799 207.39 138.178 212.528 142.039 212.528C144.248 212.528 145.309 210.426 145.309 206.046C145.309 199.092 139.816 196.8 137.54 202.805ZM307.182 204.317C308.592 205.743 309.745 209.924 309.745 213.608C309.745 221.828 306.407 225.493 298.92 225.493C293.406 225.493 293.231 225.108 293.474 213.619C293.713 202.401 294.029 201.744 299.174 201.735C302.168 201.729 305.773 202.891 307.182 204.317ZM315.474 212.934C314.793 214.656 314.287 214.144 314.185 211.627C314.093 209.35 314.597 208.075 315.306 208.792C316.015 209.509 316.092 211.374 315.474 212.934ZM285.577 217.256C284.896 218.978 284.39 218.466 284.287 215.949C284.195 213.671 284.699 212.396 285.408 213.114C286.117 213.831 286.194 215.696 285.577 217.256ZM177.735 228.801C178.106 231.808 179.371 234.27 180.545 234.27C181.72 234.27 182.984 231.808 183.356 228.801C183.838 224.903 183.031 223.332 180.545 223.332C178.059 223.332 177.252 224.903 177.735 228.801ZM181.034 272.174C180.325 272.891 178.482 272.969 176.943 272.344C175.238 271.655 175.744 271.143 178.232 271.039C180.483 270.946 181.743 271.456 181.034 272.174Z" fill="black"/>
<path fill-rule="evenodd" clip-rule="evenodd" d="M155.804 11.0872C149.164 15.7912 139.042 27.2691 138.965 30.1775C138.927 31.6533 134.064 32.5629 126.284 32.55C115.107 32.5327 112.448 33.4337 103.035 40.4238C92.8739 47.9713 78.316 68.7167 72.8854 83.3883C68.7958 94.4319 69.5731 113.464 74.4891 122.729C76.9728 127.411 78.7196 131.534 78.3673 131.889C77.2653 133.004 66.3293 127.26 66.3122 125.558C66.2823 122.688 60.4971 123.833 57.6804 127.267C53.9517 131.811 54.9512 157.373 59.1881 165.882C64.3945 176.333 72.8789 184.321 81.1413 186.549C91.4175 189.319 102.36 189.544 110.073 187.141L116.48 185.147L107.404 180.428C102.413 177.831 98.3281 174.646 98.3281 173.349C98.3281 170.134 109.721 172.474 125.372 178.911C136.59 183.522 153.386 186.361 176.489 187.552C181.671 187.82 184.913 189.321 186.376 192.137C191.728 202.431 201.41 204.384 215.176 197.943C224.371 193.641 226.962 190.964 232.958 179.576C237.691 170.588 241.231 169.244 242.925 175.795C244.945 183.608 254.572 181.093 266.772 169.561C272.897 163.773 274.266 163.345 280.1 165.404C283.677 166.666 293.718 167.236 302.414 166.67C322.294 165.38 329.136 159.892 329.952 144.581C330.582 132.733 325.843 125.149 311.715 115.393L301.842 108.576L294.342 113.053C287.639 117.055 286.549 117.176 284.109 114.201C280.895 110.283 281.089 110.035 289.458 107.34C293.432 106.061 297.445 102.347 300.029 97.5542C304.129 89.9505 304.131 89.6869 300.151 80.7564C297.928 75.7673 291.811 68.1268 286.56 63.7794C277.796 56.5236 275.989 55.9034 264.549 56.2492C250.82 56.664 252.138 58.2306 251.249 40.4259C251.123 37.8719 248.616 33.8745 245.68 31.5409C238.425 25.7782 204.278 15.897 191.617 15.8992C185.962 15.8992 179.339 14.821 176.905 13.5008C167.351 8.32791 160.76 7.5738 155.804 11.0872ZM333.602 98.3882C334.118 102.079 335.906 103.596 340.346 104.11C345.599 104.719 346.297 104.155 345.684 99.7884C345.168 96.0978 343.38 94.581 338.94 94.0667C333.687 93.4574 332.989 94.0213 333.602 98.3882ZM7.92464 99.4492C4.59107 102.82 6.72233 116.629 11.5081 122.679C21.3785 135.16 27.5822 123.343 20.3534 105.834C17.3231 98.4984 11.7109 95.616 7.92464 99.4492ZM278.949 178.496C278.528 179.983 277.241 192.865 276.088 207.126C272.972 245.672 269.692 250.613 243.544 256.123C213.655 262.424 195.061 264.624 173.405 264.423C125.718 263.978 115.965 255.477 114.007 212.655C113.55 202.625 112.83 194.071 112.41 193.645C111.989 193.219 109.036 193.533 105.843 194.343C100.154 195.789 100.071 196.05 101.527 207.954C102.345 214.628 105.655 227.859 108.882 237.355C114.584 254.136 115.092 254.823 126.97 261.845C140.293 269.723 151.33 271.381 192.291 271.659C226.565 271.895 273.371 257.327 279.353 244.566C284.978 232.563 286.955 175.795 281.749 175.795C280.63 175.795 279.37 177.012 278.949 178.496ZM292.661 191.186C292.661 194.051 294.199 195.242 297.9 195.242C308.567 195.242 313.75 199.533 315.242 209.598C316.695 219.397 312.614 229.553 307.027 230.045C305.586 230.173 301.603 230.417 298.177 230.585C294.752 230.756 291.577 232.027 291.12 233.412C288.738 240.642 312.622 237.424 318.822 229.682C323.005 224.458 323.62 213.241 320.374 201.417C317.617 191.368 315.221 189.57 302.805 188.228C293.921 187.267 292.661 187.634 292.661 191.186ZM250.318 198.528C245.887 208.369 247.843 227.653 253.272 227.653C258.623 227.653 260.379 195.473 255.123 193.732C253.859 193.312 251.695 195.471 250.318 198.528ZM137.541 202.805C135.8 207.39 138.179 212.528 142.04 212.528C144.248 212.528 145.31 210.426 145.31 206.046C145.31 199.092 139.817 196.8 137.541 202.805ZM177.736 228.801C178.107 231.808 179.371 234.27 180.546 234.27C181.721 234.27 182.985 231.808 183.356 228.801C183.839 224.903 183.032 223.332 180.546 223.332C178.06 223.332 177.253 224.903 177.736 228.801Z" fill="#FF8080"/>
<path fill-rule="evenodd" clip-rule="evenodd" d="M155.804 11.0872C149.164 15.7912 139.042 27.2691 138.965 30.1775C138.927 31.6533 134.064 32.5629 126.284 32.55C115.107 32.5327 112.448 33.4337 103.035 40.4238C92.8739 47.9713 78.316 68.7167 72.8854 83.3883C68.7958 94.4319 69.5731 113.464 74.4891 122.729C76.9728 127.411 78.7196 131.534 78.3673 131.889C77.2653 133.004 66.3293 127.26 66.3122 125.558C66.2823 122.688 60.4971 123.833 57.6804 127.267C53.9517 131.811 54.9512 157.373 59.1881 165.882C64.3945 176.333 72.8789 184.321 81.1413 186.549C91.4175 189.319 102.36 189.544 110.073 187.141L116.48 185.147L107.404 180.428C102.413 177.831 98.3281 174.646 98.3281 173.349C98.3281 170.134 109.721 172.474 125.372 178.911C136.59 183.522 153.386 186.361 176.489 187.552C181.671 187.82 184.913 189.321 186.376 192.137C191.728 202.431 201.41 204.384 215.176 197.943C224.371 193.641 226.962 190.964 232.958 179.576C237.691 170.588 241.231 169.244 242.925 175.795C244.945 183.608 254.572 181.093 266.772 169.561C272.897 163.773 274.266 163.345 280.1 165.404C283.677 166.666 293.718 167.236 302.414 166.67C322.294 165.38 329.136 159.892 329.952 144.581C330.582 132.733 325.843 125.149 311.715 115.393L301.842 108.576L294.342 113.053C287.639 117.055 286.549 117.176 284.109 114.201C280.895 110.283 281.089 110.035 289.458 107.34C293.432 106.061 297.445 102.347 300.029 97.5542C304.129 89.9505 304.131 89.6869 300.151 80.7564C297.928 75.7673 291.811 68.1268 286.56 63.7794C277.796 56.5236 275.989 55.9034 264.549 56.2492C250.82 56.664 252.138 58.2306 251.249 40.4259C251.123 37.8719 248.616 33.8745 245.68 31.5409C238.425 25.7782 204.278 15.897 191.617 15.8992C185.962 15.8992 179.339 14.821 176.905 13.5008C167.351 8.32791 160.76 7.5738 155.804 11.0872ZM333.602 98.3882C334.118 102.079 335.906 103.596 340.346 104.11C345.599 104.719 346.297 104.155 345.684 99.7884C345.168 96.0978 343.38 94.581 338.94 94.0667C333.687 93.4574 332.989 94.0213 333.602 98.3882ZM7.92464 99.4492C4.59107 102.82 6.72233 116.629 11.5081 122.679C21.3785 135.16 27.5822 123.343 20.3534 105.834C17.3231 98.4984 11.7109 95.616 7.92464 99.4492ZM278.949 178.496C278.528 179.983 277.241 192.865 276.088 207.126C272.972 245.672 269.692 250.613 243.544 256.123C213.655 262.424 195.061 264.624 173.405 264.423C125.718 263.978 115.965 255.477 114.007 212.655C113.55 202.625 112.83 194.071 112.41 193.645C111.989 193.219 109.036 193.533 105.843 194.343C100.154 195.789 100.071 196.05 101.527 207.954C102.345 214.628 105.655 227.859 108.882 237.355C114.584 254.136 115.092 254.823 126.97 261.845C140.293 269.723 151.33 271.381 192.291 271.659C226.565 271.895 273.371 257.327 279.353 244.566C284.978 232.563 286.955 175.795 281.749 175.795C280.63 175.795 279.37 177.012 278.949 178.496ZM292.661 191.186C292.661 194.051 294.199 195.242 297.9 195.242C308.567 195.242 313.75 199.533 315.242 209.598C316.695 219.397 312.614 229.553 307.027 230.045C305.586 230.173 301.603 230.417 298.177 230.585C294.752 230.756 291.577 232.027 291.12 233.412C288.738 240.642 312.622 237.424 318.822 229.682C323.005 224.458 323.62 213.241 320.374 201.417C317.617 191.368 315.221 189.57 302.805 188.228C293.921 187.267 292.661 187.634 292.661 191.186ZM250.318 198.528C245.887 208.369 247.843 227.653 253.272 227.653C258.623 227.653 260.379 195.473 255.123 193.732C253.859 193.312 251.695 195.471 250.318 198.528ZM137.541 202.805C135.8 207.39 138.179 212.528 142.04 212.528C144.248 212.528 145.31 210.426 145.31 206.046C145.31 199.092 139.817 196.8 137.541 202.805ZM177.736 228.801C178.107 231.808 179.371 234.27 180.546 234.27C181.721 234.27 182.985 231.808 183.356 228.801C183.839 224.903 183.032 223.332 180.546 223.332C178.06 223.332 177.253 224.903 177.736 228.801Z" fill="#FF0000"/>
<path fill-rule="evenodd" clip-rule="evenodd" d="M155.804 11.0872C149.164 15.7912 139.042 27.2691 138.965 30.1775C138.927 31.6533 134.064 32.5629 126.284 32.55C115.107 32.5327 112.448 33.4337 103.035 40.4238C92.8739 47.9713 78.316 68.7167 72.8854 83.3883C68.7958 94.4319 69.5731 113.464 74.4891 122.729C76.9728 127.411 78.7196 131.534 78.3673 131.889C77.2653 133.004 66.3293 127.26 66.3122 125.558C66.2823 122.688 60.4971 123.833 57.6804 127.267C53.9517 131.811 54.9512 157.373 59.1881 165.882C64.3945 176.333 72.8789 184.321 81.1413 186.549C91.4175 189.319 102.36 189.544 110.073 187.141L116.48 185.147L107.404 180.428C102.413 177.831 98.3281 174.646 98.3281 173.349C98.3281 170.134 109.721 172.474 125.372 178.911C136.59 183.522 153.386 186.361 176.489 187.552C181.671 187.82 184.913 189.321 186.376 192.137C191.728 202.431 201.41 204.384 215.176 197.943C224.371 193.641 226.962 190.964 232.958 179.576C237.691 170.588 241.231 169.244 242.925 175.795C244.945 183.608 254.572 181.093 266.772 169.561C272.897 163.773 274.266 163.345 280.1 165.404C283.677 166.666 293.718 167.236 302.414 166.67C322.294 165.38 329.136 159.892 329.952 144.581C330.582 132.733 325.843 125.149 311.715 115.393L301.842 108.576L294.342 113.053C287.639 117.055 286.549 117.176 284.109 114.201C280.895 110.283 281.089 110.035 289.458 107.34C293.432 106.061 297.445 102.347 300.029 97.5542C304.129 89.9505 304.131 89.6869 300.151 80.7564C297.928 75.7673 291.811 68.1268 286.56 63.7794C277.796 56.5236 275.989 55.9034 264.549 56.2492C250.82 56.664 252.138 58.2306 251.249 40.4259C251.123 37.8719 248.616 33.8745 245.68 31.5409C238.425 25.7782 204.278 15.897 191.617 15.8992C185.962 15.8992 179.339 14.821 176.905 13.5008C167.351 8.32791 160.76 7.5738 155.804 11.0872ZM333.602 98.3882C334.118 102.079 335.906 103.596 340.346 104.11C345.599 104.719 346.297 104.155 345.684 99.7884C345.168 96.0978 343.38 94.581 338.94 94.0667C333.687 93.4574 332.989 94.0213 333.602 98.3882ZM7.92464 99.4492C4.59107 102.82 6.72233 116.629 11.5081 122.679C21.3785 135.16 27.5822 123.343 20.3534 105.834C17.3231 98.4984 11.7109 95.616 7.92464 99.4492ZM278.949 178.496C278.528 179.983 277.241 192.865 276.088 207.126C272.972 245.672 269.692 250.613 243.544 256.123C213.655 262.424 195.061 264.624 173.405 264.423C125.718 263.978 115.965 255.477 114.007 212.655C113.55 202.625 112.83 194.071 112.41 193.645C111.989 193.219 109.036 193.533 105.843 194.343C100.154 195.789 100.071 196.05 101.527 207.954C102.345 214.628 105.655 227.859 108.882 237.355C114.584 254.136 115.092 254.823 126.97 261.845C140.293 269.723 151.33 271.381 192.291 271.659C226.565 271.895 273.371 257.327 279.353 244.566C284.978 232.563 286.955 175.795 281.749 175.795C280.63 175.795 279.37 177.012 278.949 178.496ZM292.661 191.186C292.661 194.051 294.199 195.242 297.9 195.242C308.567 195.242 313.75 199.533 315.242 209.598C316.695 219.397 312.614 229.553 307.027 230.045C305.586 230.173 301.603 230.417 298.177 230.585C294.752 230.756 291.577 232.027 291.12 233.412C288.738 240.642 312.622 237.424 318.822 229.682C323.005 224.458 323.62 213.241 320.374 201.417C317.617 191.368 315.221 189.57 302.805 188.228C293.921 187.267 292.661 187.634 292.661 191.186ZM250.318 198.528C245.887 208.369 247.843 227.653 253.272 227.653C258.623 227.653 260.379 195.473 255.123 193.732C253.859 193.312 251.695 195.471 250.318 198.528ZM137.541 202.805C135.8 207.39 138.179 212.528 142.04 212.528C144.248 212.528 145.31 210.426 145.31 206.046C145.31 199.092 139.817 196.8 137.541 202.805ZM177.736 228.801C178.107 231.808 179.371 234.27 180.546 234.27C181.721 234.27 182.985 231.808 183.356 228.801C183.839 224.903 183.032 223.332 180.546 223.332C178.06 223.332 177.253 224.903 177.736 228.801Z" fill="#AA5555"/>
<path fill-rule="evenodd" clip-rule="evenodd" d="M155.804 11.0872C149.164 15.7912 139.042 27.2691 138.965 30.1775C138.927 31.6533 134.064 32.5629 126.284 32.55C115.107 32.5327 112.448 33.4337 103.035 40.4238C92.8739 47.9713 78.316 68.7167 72.8854 83.3883C68.7958 94.4319 69.5731 113.464 74.4891 122.729C76.9728 127.411 78.7196 131.534 78.3673 131.889C77.2653 133.004 66.3293 127.26 66.3122 125.558C66.2823 122.688 60.4971 123.833 57.6804 127.267C53.9517 131.811 54.9512 157.373 59.1881 165.882C64.3945 176.333 72.8789 184.321 81.1413 186.549C91.4175 189.319 102.36 189.544 110.073 187.141L116.48 185.147L107.404 180.428C102.413 177.831 98.3281 174.646 98.3281 173.349C98.3281 170.134 109.721 172.474 125.372 178.911C136.59 183.522 153.386 186.361 176.489 187.552C181.671 187.82 184.913 189.321 186.376 192.137C191.728 202.431 201.41 204.384 215.176 197.943C224.371 193.641 226.962 190.964 232.958 179.576C237.691 170.588 241.231 169.244 242.925 175.795C244.945 183.608 254.572 181.093 266.772 169.561C272.897 163.773 274.266 163.345 280.1 165.404C283.677 166.666 293.718 167.236 302.414 166.67C322.294 165.38 329.136 159.892 329.952 144.581C330.582 132.733 325.843 125.149 311.715 115.393L301.842 108.576L294.342 113.053C287.639 117.055 286.549 117.176 284.109 114.201C280.895 110.283 281.089 110.035 289.458 107.34C293.432 106.061 297.445 102.347 300.029 97.5542C304.129 89.9505 304.131 89.6869 300.151 80.7564C297.928 75.7673 291.811 68.1268 286.56 63.7794C277.796 56.5236 275.989 55.9034 264.549 56.2492C250.82 56.664 252.138 58.2306 251.249 40.4259C251.123 37.8719 248.616 33.8745 245.68 31.5409C238.425 25.7782 204.278 15.897 191.617 15.8992C185.962 15.8992 179.339 14.821 176.905 13.5008C167.351 8.32791 160.76 7.5738 155.804 11.0872ZM333.602 98.3882C334.118 102.079 335.906 103.596 340.346 104.11C345.599 104.719 346.297 104.155 345.684 99.7884C345.168 96.0978 343.38 94.581 338.94 94.0667C333.687 93.4574 332.989 94.0213 333.602 98.3882ZM7.92464 99.4492C4.59107 102.82 6.72233 116.629 11.5081 122.679C21.3785 135.16 27.5822 123.343 20.3534 105.834C17.3231 98.4984 11.7109 95.616 7.92464 99.4492ZM278.949 178.496C278.528 179.983 277.241 192.865 276.088 207.126C272.972 245.672 269.692 250.613 243.544 256.123C213.655 262.424 195.061 264.624 173.405 264.423C125.718 263.978 115.965 255.477 114.007 212.655C113.55 202.625 112.83 194.071 112.41 193.645C111.989 193.219 109.036 193.533 105.843 194.343C100.154 195.789 100.071 196.05 101.527 207.954C102.345 214.628 105.655 227.859 108.882 237.355C114.584 254.136 115.092 254.823 126.97 261.845C140.293 269.723 151.33 271.381 192.291 271.659C226.565 271.895 273.371 257.327 279.353 244.566C284.978 232.563 286.955 175.795 281.749 175.795C280.63 175.795 279.37 177.012 278.949 178.496ZM292.661 191.186C292.661 194.051 294.199 195.242 297.9 195.242C308.567 195.242 313.75 199.533 315.242 209.598C316.695 219.397 312.614 229.553 307.027 230.045C305.586 230.173 301.603 230.417 298.177 230.585C294.752 230.756 291.577 232.027 291.12 233.412C288.738 240.642 312.622 237.424 318.822 229.682C323.005 224.458 323.62 213.241 320.374 201.417C317.617 191.368 315.221 189.57 302.805 188.228C293.921 187.267 292.661 187.634 292.661 191.186ZM250.318 198.528C245.887 208.369 247.843 227.653 253.272 227.653C258.623 227.653 260.379 195.473 255.123 193.732C253.859 193.312 251.695 195.471 250.318 198.528ZM137.541 202.805C135.8 207.39 138.179 212.528 142.04 212.528C144.248 212.528 145.31 210.426 145.31 206.046C145.31 199.092 139.817 196.8 137.541 202.805ZM177.736 228.801C178.107 231.808 179.371 234.27 180.546 234.27C181.721 234.27 182.985 231.808 183.356 228.801C183.839 224.903 183.032 223.332 180.546 223.332C178.06 223.332 177.253 224.903 177.736 228.801Z" fill="white"/>
<mask id="path-9-outside-1_356_801" maskUnits="userSpaceOnUse" x="96.668" y="38.6465" width="179" height="132" fill="black">
<rect fill="white" x="96.668" y="38.6465" width="179" height="132"/>
<path d="M144.408 64.0552C144.408 66.2217 144.514 68.3379 144.725 70.4036C144.988 72.419 145.384 75.2657 145.911 78.9438C146.913 85.1411 147.414 90.0788 147.414 93.7569C147.414 94.5126 147.256 94.9661 146.939 95.1172C146.623 95.2684 146.254 95.344 145.832 95.344C145.41 95.344 145.12 95.344 144.962 95.344C144.224 95.344 143.644 95.2684 143.222 95.1172C142.8 94.9157 142.458 94.4623 142.194 93.7569L140.533 73.2C140.375 71.1342 140.164 66.9775 139.9 60.7298C137.633 63.249 135.392 65.1636 133.178 66.4736C130.964 67.7332 128.696 68.363 126.377 68.363C123.055 68.363 119.733 66.1209 116.412 61.6367C116.57 62.3925 116.649 63.4002 116.649 64.6598C116.649 65.9194 116.649 66.65 116.649 66.8515L116.57 91.5651C116.57 92.069 116.28 92.4721 115.7 92.7744C115.173 93.0263 114.619 93.1522 114.039 93.1522C113.301 93.1522 112.774 92.9003 112.457 92.3965C112.194 91.8423 111.983 91.1117 111.825 90.2048V79.624C111.825 78.0117 111.877 76.1978 111.983 74.1825C112.088 72.1671 112.167 70.7563 112.22 69.9502C112.484 66.4233 112.615 63.2238 112.615 60.3519C112.615 59.4954 112.457 58.6892 112.141 57.9334C111.825 57.1273 111.35 56.2456 110.717 55.2883C110.085 54.3309 109.61 53.4996 109.294 52.7942C109.03 52.0888 108.898 51.3331 108.898 50.5269C108.898 49.5696 109.399 49.091 110.401 49.091C111.983 49.091 113.274 49.6452 114.276 50.7537C115.278 51.8117 116.359 53.424 117.519 55.5906C118.521 57.354 119.391 58.7396 120.129 59.7473C120.867 60.755 121.816 61.6367 122.976 62.3925C124.136 63.0979 125.533 63.4505 127.167 63.4505C129.54 63.5513 131.491 63.123 133.02 62.1657C134.549 61.158 135.709 59.9488 136.5 58.5381C137.291 57.1273 138.055 55.4142 138.793 53.3988C139.426 51.7361 139.98 50.5773 140.454 49.9223C140.929 49.2169 141.509 48.9398 142.194 49.091C143.776 48.9902 144.567 50.3758 144.567 53.2477C144.567 55.6661 144.54 57.4548 144.487 58.6136L144.408 64.0552Z"/>
<path d="M186.172 88.0912C184.959 88.0912 183.983 86.4033 183.245 83.0276C182.507 79.6014 182.033 76.6539 181.822 74.1851C181.611 71.7162 181.321 67.8114 180.952 62.4707C180.899 61.6141 180.873 60.5057 180.873 59.1453C180.873 57.4322 181.005 56.2482 181.268 55.5932C181.584 54.9382 182.085 54.6107 182.771 54.6107C183.351 54.6107 183.799 54.7367 184.115 54.9886C184.484 55.1901 184.801 55.5428 185.064 56.0467L184.985 59.0697C184.985 62.2943 185.143 65.3426 185.46 68.2145C185.829 71.0864 186.382 74.9408 187.121 79.7778C187.542 81.8939 187.832 83.6322 187.991 84.9926C188.096 85.6979 187.964 86.4033 187.595 87.1087C187.226 87.7637 186.752 88.0912 186.172 88.0912ZM184.194 46.524C183.034 46.524 182.164 46.0957 181.585 45.2392C181.057 44.3826 180.794 43.3246 180.794 42.0649C180.794 41.5107 180.82 41.1076 180.873 40.8557C180.82 40.0496 181.295 39.6465 182.296 39.6465C183.034 39.6465 183.773 39.8228 184.511 40.1755C185.302 40.4778 185.539 40.7046 185.222 40.8557C185.75 42.1657 186.013 43.1986 186.013 43.9544C186.013 44.6094 185.855 45.1384 185.539 45.5415C185.222 45.8942 184.774 46.2217 184.194 46.524Z"/>
<path d="M248.077 95.0461C247.128 95.0461 246.364 94.6682 245.784 93.9125C245.257 93.1063 244.782 91.8971 244.36 90.2848C243.938 88.6221 243.279 85.7502 242.383 81.669C241.487 85.0448 239.8 87.7404 237.322 89.7557C234.843 91.7207 231.812 92.7032 228.227 92.7032C224.958 92.7032 222.19 91.6199 219.922 89.4534C217.708 87.2365 216.047 84.3394 214.94 80.7621C213.833 77.1344 213.279 73.2296 213.279 69.0477C213.279 67.1331 213.464 65.4956 213.833 64.1352C214.254 62.7244 214.755 61.6663 215.335 60.961C215.968 60.2556 216.574 59.9281 217.154 59.9785C217.787 59.9785 218.103 60.3815 218.103 61.1877C218.103 61.8427 217.919 62.8756 217.55 64.2863C217.181 65.8482 216.996 67.6369 216.996 69.6523C216.996 72.6754 217.444 75.6229 218.341 78.4948C219.29 81.3667 220.661 83.7348 222.453 85.599C224.299 87.4128 226.46 88.3198 228.938 88.3198C230.995 88.3198 232.866 87.7403 234.553 86.5815C236.241 85.4227 237.559 83.9615 238.508 82.198C239.51 80.4346 240.01 78.6963 240.01 76.9832V64.9665C240.59 63.9084 241.381 63.3794 242.383 63.3794C243.279 63.3794 243.886 64.11 244.202 65.5711C244.518 67.0323 244.677 69.0981 244.677 71.7685C244.677 74.0358 244.65 75.774 244.598 76.9832C244.914 78.6459 245.388 80.3338 246.021 82.0469C246.707 83.76 247.55 85.6998 248.552 87.8663C249.765 90.5367 250.371 92.1742 250.371 92.7788C250.371 94.2903 249.606 95.0461 248.077 95.0461Z"/>
<path d="M134.76 161.549C124.689 161.549 116.886 161.02 111.35 159.962C109.926 134.719 108.635 119.452 107.475 114.162L105.102 114.691C103.837 114.943 102.624 115.22 101.464 115.522C100.304 115.774 99.0652 116.152 97.7471 116.656L97.668 114.086C97.668 113.23 98.6434 112.449 100.594 111.743C102.545 110.988 104.891 110.408 107.633 110.005C110.427 109.552 112.905 109.325 115.067 109.325C117.44 109.325 120.155 109.728 123.213 110.534C126.324 111.34 128.986 112.55 131.201 114.162C133.415 115.724 134.523 117.588 134.523 119.755C134.523 122.223 133.521 124.415 131.517 126.33C129.566 128.194 127.009 129.529 123.846 130.335C128.486 131.091 132.809 132.452 136.816 134.417C140.823 136.331 144.039 138.724 146.465 141.596C148.89 144.418 150.103 147.466 150.103 150.741C150.103 154.52 148.574 157.266 145.516 158.979C142.458 160.692 138.872 161.549 134.76 161.549ZM132.704 157.241C136.605 157.241 139.61 156.838 141.719 156.032C143.828 155.175 144.883 153.361 144.883 150.59C144.883 147.668 143.96 145.224 142.115 143.259C140.322 141.244 138.187 139.682 135.709 138.573C133.283 137.414 130.252 136.205 126.614 134.946C123.714 133.988 121.552 133.157 120.129 132.452C118.758 131.696 118.072 130.864 118.072 129.958C118.072 129.303 118.415 128.799 119.101 128.446C119.786 128.093 120.999 127.589 122.739 126.934C125.111 126.179 126.957 125.373 128.275 124.516C129.646 123.609 130.331 122.349 130.331 120.737C130.331 118.369 128.828 116.555 125.823 115.296C122.818 113.986 119.443 113.331 115.7 113.331C114.645 113.331 113.38 113.431 111.904 113.633C113.275 122.098 114.224 129.227 114.751 135.021C115.278 140.765 115.647 147.441 115.858 155.049C116.596 155.754 118.468 156.283 121.473 156.636C124.479 156.989 128.222 157.19 132.704 157.241Z"/>
<path d="M180.24 168.955C176.865 168.955 173.755 168.325 170.907 167.066C168.06 165.806 165.793 164.017 164.106 161.7C162.419 159.382 161.575 156.712 161.575 153.689C161.575 150.313 162.234 147.164 163.552 144.242C164.87 141.269 166.795 138.901 169.326 137.137C171.909 135.323 174.914 134.417 178.342 134.417C181.927 134.417 184.642 135.525 186.488 137.742C188.333 139.908 189.203 142.654 189.097 145.98C189.097 148.952 187.858 151.22 185.38 152.782C182.955 154.344 179.844 155.125 176.048 155.125C175.468 155.125 174.598 155.074 173.438 154.973C171.54 154.772 170.196 154.495 169.405 154.142C168.614 153.789 168.218 153.084 168.218 152.026C168.218 151.673 168.324 151.421 168.535 151.27C168.746 151.069 169.168 150.968 169.8 150.968C170.486 150.968 171.698 151.119 173.438 151.421C175.125 151.724 176.628 151.875 177.946 151.875C182.797 151.875 185.222 149.859 185.222 145.829C185.222 143.41 184.748 141.496 183.799 140.085C182.902 138.674 181.294 137.969 178.974 137.969C176.444 137.969 174.176 138.624 172.173 139.934C170.169 141.193 168.614 142.856 167.507 144.922C166.452 146.987 165.925 149.179 165.925 151.497C165.925 155.477 167.085 158.752 169.405 161.322C171.725 163.841 175.31 165.101 180.161 165.101C180.741 165.101 181.716 165.05 183.087 164.95C183.667 164.899 184.379 164.748 185.222 164.496C186.066 164.244 186.672 164.068 187.041 163.967C189.308 163.211 190.969 162.833 192.024 162.833C192.815 162.833 193.421 163.035 193.843 163.438C192.525 165.353 190.547 166.763 187.911 167.67C185.328 168.527 182.77 168.955 180.24 168.955Z"/>
<path d="M220.951 149.834C217.576 149.834 214.465 149.204 211.618 147.945C208.771 146.685 206.504 144.897 204.817 142.579C203.13 140.261 202.286 137.591 202.286 134.568C202.286 131.192 202.945 128.043 204.263 125.121C205.581 122.148 207.506 119.78 210.037 118.016C212.62 116.203 215.625 115.296 219.052 115.296C222.638 115.296 225.353 116.404 227.198 118.621C229.044 120.788 229.914 123.534 229.808 126.859C229.808 129.832 228.569 132.099 226.091 133.661C223.666 135.223 220.555 136.004 216.759 136.004C216.179 136.004 215.309 135.953 214.149 135.853C212.251 135.651 210.906 135.374 210.116 135.021C209.325 134.668 208.929 133.963 208.929 132.905C208.929 132.552 209.035 132.3 209.246 132.149C209.457 131.948 209.878 131.847 210.511 131.847C211.196 131.847 212.409 131.998 214.149 132.3C215.836 132.603 217.339 132.754 218.657 132.754C223.508 132.754 225.933 130.738 225.933 126.708C225.933 124.289 225.458 122.375 224.509 120.964C223.613 119.553 222.005 118.848 219.685 118.848C217.154 118.848 214.887 119.503 212.884 120.813C210.88 122.072 209.325 123.735 208.218 125.801C207.163 127.867 206.636 130.058 206.636 132.376C206.636 136.356 207.796 139.631 210.116 142.201C212.435 144.72 216.021 145.98 220.871 145.98C221.451 145.98 222.427 145.929 223.798 145.829C224.378 145.778 225.089 145.627 225.933 145.375C226.777 145.123 227.383 144.947 227.752 144.846C230.019 144.09 231.68 143.713 232.734 143.713C233.525 143.713 234.132 143.914 234.553 144.317C233.235 146.232 231.258 147.642 228.622 148.549C226.038 149.406 223.481 149.834 220.951 149.834Z"/>
<path d="M259.619 156.864C257.457 152.833 255.744 148.097 254.478 142.655C253.266 137.214 252.659 132.503 252.659 128.522C252.659 126.96 253.028 125.953 253.766 125.499C254.188 125.247 254.505 125.121 254.716 125.121C255.085 125.121 255.348 125.399 255.506 125.953C255.717 126.507 255.928 127.515 256.139 128.976L256.535 131.697C257.115 128.976 258.222 126.834 259.856 125.273C261.543 123.66 263.6 122.854 266.025 122.854C268.714 122.854 270.717 123.358 272.036 124.366C273.354 125.323 274.013 126.935 274.013 129.203C271.376 127.993 268.978 127.389 266.816 127.389C264.76 127.389 262.993 127.918 261.517 128.976C260.041 130.034 259.013 131.596 258.433 133.662C257.958 135.072 257.721 136.408 257.721 137.667C257.721 139.028 257.905 140.312 258.275 141.522C258.696 142.68 259.329 144.116 260.173 145.829C260.963 147.593 261.57 149.104 261.992 150.364C262.466 151.624 262.73 152.984 262.782 154.445C262.782 155.302 262.466 155.932 261.833 156.335C261.201 156.687 260.463 156.864 259.619 156.864Z"/>
</mask>
<path d="M144.408 64.0552C144.408 66.2217 144.514 68.3379 144.725 70.4036C144.988 72.419 145.384 75.2657 145.911 78.9438C146.913 85.1411 147.414 90.0788 147.414 93.7569C147.414 94.5126 147.256 94.9661 146.939 95.1172C146.623 95.2684 146.254 95.344 145.832 95.344C145.41 95.344 145.12 95.344 144.962 95.344C144.224 95.344 143.644 95.2684 143.222 95.1172C142.8 94.9157 142.458 94.4623 142.194 93.7569L140.533 73.2C140.375 71.1342 140.164 66.9775 139.9 60.7298C137.633 63.249 135.392 65.1636 133.178 66.4736C130.964 67.7332 128.696 68.363 126.377 68.363C123.055 68.363 119.733 66.1209 116.412 61.6367C116.57 62.3925 116.649 63.4002 116.649 64.6598C116.649 65.9194 116.649 66.65 116.649 66.8515L116.57 91.5651C116.57 92.069 116.28 92.4721 115.7 92.7744C115.173 93.0263 114.619 93.1522 114.039 93.1522C113.301 93.1522 112.774 92.9003 112.457 92.3965C112.194 91.8423 111.983 91.1117 111.825 90.2048V79.624C111.825 78.0117 111.877 76.1978 111.983 74.1825C112.088 72.1671 112.167 70.7563 112.22 69.9502C112.484 66.4233 112.615 63.2238 112.615 60.3519C112.615 59.4954 112.457 58.6892 112.141 57.9334C111.825 57.1273 111.35 56.2456 110.717 55.2883C110.085 54.3309 109.61 53.4996 109.294 52.7942C109.03 52.0888 108.898 51.3331 108.898 50.5269C108.898 49.5696 109.399 49.091 110.401 49.091C111.983 49.091 113.274 49.6452 114.276 50.7537C115.278 51.8117 116.359 53.424 117.519 55.5906C118.521 57.354 119.391 58.7396 120.129 59.7473C120.867 60.755 121.816 61.6367 122.976 62.3925C124.136 63.0979 125.533 63.4505 127.167 63.4505C129.54 63.5513 131.491 63.123 133.02 62.1657C134.549 61.158 135.709 59.9488 136.5 58.5381C137.291 57.1273 138.055 55.4142 138.793 53.3988C139.426 51.7361 139.98 50.5773 140.454 49.9223C140.929 49.2169 141.509 48.9398 142.194 49.091C143.776 48.9902 144.567 50.3758 144.567 53.2477C144.567 55.6661 144.54 57.4548 144.487 58.6136L144.408 64.0552Z" fill="#B28850"/>
<path d="M186.172 88.0912C184.959 88.0912 183.983 86.4033 183.245 83.0276C182.507 79.6014 182.033 76.6539 181.822 74.1851C181.611 71.7162 181.321 67.8114 180.952 62.4707C180.899 61.6141 180.873 60.5057 180.873 59.1453C180.873 57.4322 181.005 56.2482 181.268 55.5932C181.584 54.9382 182.085 54.6107 182.771 54.6107C183.351 54.6107 183.799 54.7367 184.115 54.9886C184.484 55.1901 184.801 55.5428 185.064 56.0467L184.985 59.0697C184.985 62.2943 185.143 65.3426 185.46 68.2145C185.829 71.0864 186.382 74.9408 187.121 79.7778C187.542 81.8939 187.832 83.6322 187.991 84.9926C188.096 85.6979 187.964 86.4033 187.595 87.1087C187.226 87.7637 186.752 88.0912 186.172 88.0912ZM184.194 46.524C183.034 46.524 182.164 46.0957 181.585 45.2392C181.057 44.3826 180.794 43.3246 180.794 42.0649C180.794 41.5107 180.82 41.1076 180.873 40.8557C180.82 40.0496 181.295 39.6465 182.296 39.6465C183.034 39.6465 183.773 39.8228 184.511 40.1755C185.302 40.4778 185.539 40.7046 185.222 40.8557C185.75 42.1657 186.013 43.1986 186.013 43.9544C186.013 44.6094 185.855 45.1384 185.539 45.5415C185.222 45.8942 184.774 46.2217 184.194 46.524Z" fill="#B28850"/>
<path d="M248.077 95.0461C247.128 95.0461 246.364 94.6682 245.784 93.9125C245.257 93.1063 244.782 91.8971 244.36 90.2848C243.938 88.6221 243.279 85.7502 242.383 81.669C241.487 85.0448 239.8 87.7404 237.322 89.7557C234.843 91.7207 231.812 92.7032 228.227 92.7032C224.958 92.7032 222.19 91.6199 219.922 89.4534C217.708 87.2365 216.047 84.3394 214.94 80.7621C213.833 77.1344 213.279 73.2296 213.279 69.0477C213.279 67.1331 213.464 65.4956 213.833 64.1352C214.254 62.7244 214.755 61.6663 215.335 60.961C215.968 60.2556 216.574 59.9281 217.154 59.9785C217.787 59.9785 218.103 60.3815 218.103 61.1877C218.103 61.8427 217.919 62.8756 217.55 64.2863C217.181 65.8482 216.996 67.6369 216.996 69.6523C216.996 72.6754 217.444 75.6229 218.341 78.4948C219.29 81.3667 220.661 83.7348 222.453 85.599C224.299 87.4128 226.46 88.3198 228.938 88.3198C230.995 88.3198 232.866 87.7403 234.553 86.5815C236.241 85.4227 237.559 83.9615 238.508 82.198C239.51 80.4346 240.01 78.6963 240.01 76.9832V64.9665C240.59 63.9084 241.381 63.3794 242.383 63.3794C243.279 63.3794 243.886 64.11 244.202 65.5711C244.518 67.0323 244.677 69.0981 244.677 71.7685C244.677 74.0358 244.65 75.774 244.598 76.9832C244.914 78.6459 245.388 80.3338 246.021 82.0469C246.707 83.76 247.55 85.6998 248.552 87.8663C249.765 90.5367 250.371 92.1742 250.371 92.7788C250.371 94.2903 249.606 95.0461 248.077 95.0461Z" fill="#B28850"/>
<path d="M134.76 161.549C124.689 161.549 116.886 161.02 111.35 159.962C109.926 134.719 108.635 119.452 107.475 114.162L105.102 114.691C103.837 114.943 102.624 115.22 101.464 115.522C100.304 115.774 99.0652 116.152 97.7471 116.656L97.668 114.086C97.668 113.23 98.6434 112.449 100.594 111.743C102.545 110.988 104.891 110.408 107.633 110.005C110.427 109.552 112.905 109.325 115.067 109.325C117.44 109.325 120.155 109.728 123.213 110.534C126.324 111.34 128.986 112.55 131.201 114.162C133.415 115.724 134.523 117.588 134.523 119.755C134.523 122.223 133.521 124.415 131.517 126.33C129.566 128.194 127.009 129.529 123.846 130.335C128.486 131.091 132.809 132.452 136.816 134.417C140.823 136.331 144.039 138.724 146.465 141.596C148.89 144.418 150.103 147.466 150.103 150.741C150.103 154.52 148.574 157.266 145.516 158.979C142.458 160.692 138.872 161.549 134.76 161.549ZM132.704 157.241C136.605 157.241 139.61 156.838 141.719 156.032C143.828 155.175 144.883 153.361 144.883 150.59C144.883 147.668 143.96 145.224 142.115 143.259C140.322 141.244 138.187 139.682 135.709 138.573C133.283 137.414 130.252 136.205 126.614 134.946C123.714 133.988 121.552 133.157 120.129 132.452C118.758 131.696 118.072 130.864 118.072 129.958C118.072 129.303 118.415 128.799 119.101 128.446C119.786 128.093 120.999 127.589 122.739 126.934C125.111 126.179 126.957 125.373 128.275 124.516C129.646 123.609 130.331 122.349 130.331 120.737C130.331 118.369 128.828 116.555 125.823 115.296C122.818 113.986 119.443 113.331 115.7 113.331C114.645 113.331 113.38 113.431 111.904 113.633C113.275 122.098 114.224 129.227 114.751 135.021C115.278 140.765 115.647 147.441 115.858 155.049C116.596 155.754 118.468 156.283 121.473 156.636C124.479 156.989 128.222 157.19 132.704 157.241Z" fill="#B28850"/>
<path d="M180.24 168.955C176.865 168.955 173.755 168.325 170.907 167.066C168.06 165.806 165.793 164.017 164.106 161.7C162.419 159.382 161.575 156.712 161.575 153.689C161.575 150.313 162.234 147.164 163.552 144.242C164.87 141.269 166.795 138.901 169.326 137.137C171.909 135.323 174.914 134.417 178.342 134.417C181.927 134.417 184.642 135.525 186.488 137.742C188.333 139.908 189.203 142.654 189.097 145.98C189.097 148.952 187.858 151.22 185.38 152.782C182.955 154.344 179.844 155.125 176.048 155.125C175.468 155.125 174.598 155.074 173.438 154.973C171.54 154.772 170.196 154.495 169.405 154.142C168.614 153.789 168.218 153.084 168.218 152.026C168.218 151.673 168.324 151.421 168.535 151.27C168.746 151.069 169.168 150.968 169.8 150.968C170.486 150.968 171.698 151.119 173.438 151.421C175.125 151.724 176.628 151.875 177.946 151.875C182.797 151.875 185.222 149.859 185.222 145.829C185.222 143.41 184.748 141.496 183.799 140.085C182.902 138.674 181.294 137.969 178.974 137.969C176.444 137.969 174.176 138.624 172.173 139.934C170.169 141.193 168.614 142.856 167.507 144.922C166.452 146.987 165.925 149.179 165.925 151.497C165.925 155.477 167.085 158.752 169.405 161.322C171.725 163.841 175.31 165.101 180.161 165.101C180.741 165.101 181.716 165.05 183.087 164.95C183.667 164.899 184.379 164.748 185.222 164.496C186.066 164.244 186.672 164.068 187.041 163.967C189.308 163.211 190.969 162.833 192.024 162.833C192.815 162.833 193.421 163.035 193.843 163.438C192.525 165.353 190.547 166.763 187.911 167.67C185.328 168.527 182.77 168.955 180.24 168.955Z" fill="#B28850"/>
<path d="M220.951 149.834C217.576 149.834 214.465 149.204 211.618 147.945C208.771 146.685 206.504 144.897 204.817 142.579C203.13 140.261 202.286 137.591 202.286 134.568C202.286 131.192 202.945 128.043 204.263 125.121C205.581 122.148 207.506 119.78 210.037 118.016C212.62 116.203 215.625 115.296 219.052 115.296C222.638 115.296 225.353 116.404 227.198 118.621C229.044 120.788 229.914 123.534 229.808 126.859C229.808 129.832 228.569 132.099 226.091 133.661C223.666 135.223 220.555 136.004 216.759 136.004C216.179 136.004 215.309 135.953 214.149 135.853C212.251 135.651 210.906 135.374 210.116 135.021C209.325 134.668 208.929 133.963 208.929 132.905C208.929 132.552 209.035 132.3 209.246 132.149C209.457 131.948 209.878 131.847 210.511 131.847C211.196 131.847 212.409 131.998 214.149 132.3C215.836 132.603 217.339 132.754 218.657 132.754C223.508 132.754 225.933 130.738 225.933 126.708C225.933 124.289 225.458 122.375 224.509 120.964C223.613 119.553 222.005 118.848 219.685 118.848C217.154 118.848 214.887 119.503 212.884 120.813C210.88 122.072 209.325 123.735 208.218 125.801C207.163 127.867 206.636 130.058 206.636 132.376C206.636 136.356 207.796 139.631 210.116 142.201C212.435 144.72 216.021 145.98 220.871 145.98C221.451 145.98 222.427 145.929 223.798 145.829C224.378 145.778 225.089 145.627 225.933 145.375C226.777 145.123 227.383 144.947 227.752 144.846C230.019 144.09 231.68 143.713 232.734 143.713C233.525 143.713 234.132 143.914 234.553 144.317C233.235 146.232 231.258 147.642 228.622 148.549C226.038 149.406 223.481 149.834 220.951 149.834Z" fill="#B28850"/>
<path d="M259.619 156.864C257.457 152.833 255.744 148.097 254.478 142.655C253.266 137.214 252.659 132.503 252.659 128.522C252.659 126.96 253.028 125.953 253.766 125.499C254.188 125.247 254.505 125.121 254.716 125.121C255.085 125.121 255.348 125.399 255.506 125.953C255.717 126.507 255.928 127.515 256.139 128.976L256.535 131.697C257.115 128.976 258.222 126.834 259.856 125.273C261.543 123.66 263.6 122.854 266.025 122.854C268.714 122.854 270.717 123.358 272.036 124.366C273.354 125.323 274.013 126.935 274.013 129.203C271.376 127.993 268.978 127.389 266.816 127.389C264.76 127.389 262.993 127.918 261.517 128.976C260.041 130.034 259.013 131.596 258.433 133.662C257.958 135.072 257.721 136.408 257.721 137.667C257.721 139.028 257.905 140.312 258.275 141.522C258.696 142.68 259.329 144.116 260.173 145.829C260.963 147.593 261.57 149.104 261.992 150.364C262.466 151.624 262.73 152.984 262.782 154.445C262.782 155.302 262.466 155.932 261.833 156.335C261.201 156.687 260.463 156.864 259.619 156.864Z" fill="#B28850"/>
<path d="M144.408 64.0552C144.408 66.2217 144.514 68.3379 144.725 70.4036C144.988 72.419 145.384 75.2657 145.911 78.9438C146.913 85.1411 147.414 90.0788 147.414 93.7569C147.414 94.5126 147.256 94.9661 146.939 95.1172C146.623 95.2684 146.254 95.344 145.832 95.344C145.41 95.344 145.12 95.344 144.962 95.344C144.224 95.344 143.644 95.2684 143.222 95.1172C142.8 94.9157 142.458 94.4623 142.194 93.7569L140.533 73.2C140.375 71.1342 140.164 66.9775 139.9 60.7298C137.633 63.249 135.392 65.1636 133.178 66.4736C130.964 67.7332 128.696 68.363 126.377 68.363C123.055 68.363 119.733 66.1209 116.412 61.6367C116.57 62.3925 116.649 63.4002 116.649 64.6598C116.649 65.9194 116.649 66.65 116.649 66.8515L116.57 91.5651C116.57 92.069 116.28 92.4721 115.7 92.7744C115.173 93.0263 114.619 93.1522 114.039 93.1522C113.301 93.1522 112.774 92.9003 112.457 92.3965C112.194 91.8423 111.983 91.1117 111.825 90.2048V79.624C111.825 78.0117 111.877 76.1978 111.983 74.1825C112.088 72.1671 112.167 70.7563 112.22 69.9502C112.484 66.4233 112.615 63.2238 112.615 60.3519C112.615 59.4954 112.457 58.6892 112.141 57.9334C111.825 57.1273 111.35 56.2456 110.717 55.2883C110.085 54.3309 109.61 53.4996 109.294 52.7942C109.03 52.0888 108.898 51.3331 108.898 50.5269C108.898 49.5696 109.399 49.091 110.401 49.091C111.983 49.091 113.274 49.6452 114.276 50.7537C115.278 51.8117 116.359 53.424 117.519 55.5906C118.521 57.354 119.391 58.7396 120.129 59.7473C120.867 60.755 121.816 61.6367 122.976 62.3925C124.136 63.0979 125.533 63.4505 127.167 63.4505C129.54 63.5513 131.491 63.123 133.02 62.1657C134.549 61.158 135.709 59.9488 136.5 58.5381C137.291 57.1273 138.055 55.4142 138.793 53.3988C139.426 51.7361 139.98 50.5773 140.454 49.9223C140.929 49.2169 141.509 48.9398 142.194 49.091C143.776 48.9902 144.567 50.3758 144.567 53.2477C144.567 55.6661 144.54 57.4548 144.487 58.6136L144.408 64.0552Z" stroke="black" stroke-width="2" mask="url(#path-9-outside-1_356_801)"/>
<path d="M186.172 88.0912C184.959 88.0912 183.983 86.4033 183.245 83.0276C182.507 79.6014 182.033 76.6539 181.822 74.1851C181.611 71.7162 181.321 67.8114 180.952 62.4707C180.899 61.6141 180.873 60.5057 180.873 59.1453C180.873 57.4322 181.005 56.2482 181.268 55.5932C181.584 54.9382 182.085 54.6107 182.771 54.6107C183.351 54.6107 183.799 54.7367 184.115 54.9886C184.484 55.1901 184.801 55.5428 185.064 56.0467L184.985 59.0697C184.985 62.2943 185.143 65.3426 185.46 68.2145C185.829 71.0864 186.382 74.9408 187.121 79.7778C187.542 81.8939 187.832 83.6322 187.991 84.9926C188.096 85.6979 187.964 86.4033 187.595 87.1087C187.226 87.7637 186.752 88.0912 186.172 88.0912ZM184.194 46.524C183.034 46.524 182.164 46.0957 181.585 45.2392C181.057 44.3826 180.794 43.3246 180.794 42.0649C180.794 41.5107 180.82 41.1076 180.873 40.8557C180.82 40.0496 181.295 39.6465 182.296 39.6465C183.034 39.6465 183.773 39.8228 184.511 40.1755C185.302 40.4778 185.539 40.7046 185.222 40.8557C185.75 42.1657 186.013 43.1986 186.013 43.9544C186.013 44.6094 185.855 45.1384 185.539 45.5415C185.222 45.8942 184.774 46.2217 184.194 46.524Z" stroke="black" stroke-width="2" mask="url(#path-9-outside-1_356_801)"/>
<path d="M248.077 95.0461C247.128 95.0461 246.364 94.6682 245.784 93.9125C245.257 93.1063 244.782 91.8971 244.36 90.2848C243.938 88.6221 243.279 85.7502 242.383 81.669C241.487 85.0448 239.8 87.7404 237.322 89.7557C234.843 91.7207 231.812 92.7032 228.227 92.7032C224.958 92.7032 222.19 91.6199 219.922 89.4534C217.708 87.2365 216.047 84.3394 214.94 80.7621C213.833 77.1344 213.279 73.2296 213.279 69.0477C213.279 67.1331 213.464 65.4956 213.833 64.1352C214.254 62.7244 214.755 61.6663 215.335 60.961C215.968 60.2556 216.574 59.9281 217.154 59.9785C217.787 59.9785 218.103 60.3815 218.103 61.1877C218.103 61.8427 217.919 62.8756 217.55 64.2863C217.181 65.8482 216.996 67.6369 216.996 69.6523C216.996 72.6754 217.444 75.6229 218.341 78.4948C219.29 81.3667 220.661 83.7348 222.453 85.599C224.299 87.4128 226.46 88.3198 228.938 88.3198C230.995 88.3198 232.866 87.7403 234.553 86.5815C236.241 85.4227 237.559 83.9615 238.508 82.198C239.51 80.4346 240.01 78.6963 240.01 76.9832V64.9665C240.59 63.9084 241.381 63.3794 242.383 63.3794C243.279 63.3794 243.886 64.11 244.202 65.5711C244.518 67.0323 244.677 69.0981 244.677 71.7685C244.677 74.0358 244.65 75.774 244.598 76.9832C244.914 78.6459 245.388 80.3338 246.021 82.0469C246.707 83.76 247.55 85.6998 248.552 87.8663C249.765 90.5367 250.371 92.1742 250.371 92.7788C250.371 94.2903 249.606 95.0461 248.077 95.0461Z" stroke="black" stroke-width="2" mask="url(#path-9-outside-1_356_801)"/>
<path d="M134.76 161.549C124.689 161.549 116.886 161.02 111.35 159.962C109.926 134.719 108.635 119.452 107.475 114.162L105.102 114.691C103.837 114.943 102.624 115.22 101.464 115.522C100.304 115.774 99.0652 116.152 97.7471 116.656L97.668 114.086C97.668 113.23 98.6434 112.449 100.594 111.743C102.545 110.988 104.891 110.408 107.633 110.005C110.427 109.552 112.905 109.325 115.067 109.325C117.44 109.325 120.155 109.728 123.213 110.534C126.324 111.34 128.986 112.55 131.201 114.162C133.415 115.724 134.523 117.588 134.523 119.755C134.523 122.223 133.521 124.415 131.517 126.33C129.566 128.194 127.009 129.529 123.846 130.335C128.486 131.091 132.809 132.452 136.816 134.417C140.823 136.331 144.039 138.724 146.465 141.596C148.89 144.418 150.103 147.466 150.103 150.741C150.103 154.52 148.574 157.266 145.516 158.979C142.458 160.692 138.872 161.549 134.76 161.549ZM132.704 157.241C136.605 157.241 139.61 156.838 141.719 156.032C143.828 155.175 144.883 153.361 144.883 150.59C144.883 147.668 143.96 145.224 142.115 143.259C140.322 141.244 138.187 139.682 135.709 138.573C133.283 137.414 130.252 136.205 126.614 134.946C123.714 133.988 121.552 133.157 120.129 132.452C118.758 131.696 118.072 130.864 118.072 129.958C118.072 129.303 118.415 128.799 119.101 128.446C119.786 128.093 120.999 127.589 122.739 126.934C125.111 126.179 126.957 125.373 128.275 124.516C129.646 123.609 130.331 122.349 130.331 120.737C130.331 118.369 128.828 116.555 125.823 115.296C122.818 113.986 119.443 113.331 115.7 113.331C114.645 113.331 113.38 113.431 111.904 113.633C113.275 122.098 114.224 129.227 114.751 135.021C115.278 140.765 115.647 147.441 115.858 155.049C116.596 155.754 118.468 156.283 121.473 156.636C124.479 156.989 128.222 157.19 132.704 157.241Z" stroke="black" stroke-width="2" mask="url(#path-9-outside-1_356_801)"/>
<path d="M180.24 168.955C176.865 168.955 173.755 168.325 170.907 167.066C168.06 165.806 165.793 164.017 164.106 161.7C162.419 159.382 161.575 156.712 161.575 153.689C161.575 150.313 162.234 147.164 163.552 144.242C164.87 141.269 166.795 138.901 169.326 137.137C171.909 135.323 174.914 134.417 178.342 134.417C181.927 134.417 184.642 135.525 186.488 137.742C188.333 139.908 189.203 142.654 189.097 145.98C189.097 148.952 187.858 151.22 185.38 152.782C182.955 154.344 179.844 155.125 176.048 155.125C175.468 155.125 174.598 155.074 173.438 154.973C171.54 154.772 170.196 154.495 169.405 154.142C168.614 153.789 168.218 153.084 168.218 152.026C168.218 151.673 168.324 151.421 168.535 151.27C168.746 151.069 169.168 150.968 169.8 150.968C170.486 150.968 171.698 151.119 173.438 151.421C175.125 151.724 176.628 151.875 177.946 151.875C182.797 151.875 185.222 149.859 185.222 145.829C185.222 143.41 184.748 141.496 183.799 140.085C182.902 138.674 181.294 137.969 178.974 137.969C176.444 137.969 174.176 138.624 172.173 139.934C170.169 141.193 168.614 142.856 167.507 144.922C166.452 146.987 165.925 149.179 165.925 151.497C165.925 155.477 167.085 158.752 169.405 161.322C171.725 163.841 175.31 165.101 180.161 165.101C180.741 165.101 181.716 165.05 183.087 164.95C183.667 164.899 184.379 164.748 185.222 164.496C186.066 164.244 186.672 164.068 187.041 163.967C189.308 163.211 190.969 162.833 192.024 162.833C192.815 162.833 193.421 163.035 193.843 163.438C192.525 165.353 190.547 166.763 187.911 167.67C185.328 168.527 182.77 168.955 180.24 168.955Z" stroke="black" stroke-width="2" mask="url(#path-9-outside-1_356_801)"/>
<path d="M220.951 149.834C217.576 149.834 214.465 149.204 211.618 147.945C208.771 146.685 206.504 144.897 204.817 142.579C203.13 140.261 202.286 137.591 202.286 134.568C202.286 131.192 202.945 128.043 204.263 125.121C205.581 122.148 207.506 119.78 210.037 118.016C212.62 116.203 215.625 115.296 219.052 115.296C222.638 115.296 225.353 116.404 227.198 118.621C229.044 120.788 229.914 123.534 229.808 126.859C229.808 129.832 228.569 132.099 226.091 133.661C223.666 135.223 220.555 136.004 216.759 136.004C216.179 136.004 215.309 135.953 214.149 135.853C212.251 135.651 210.906 135.374 210.116 135.021C209.325 134.668 208.929 133.963 208.929 132.905C208.929 132.552 209.035 132.3 209.246 132.149C209.457 131.948 209.878 131.847 210.511 131.847C211.196 131.847 212.409 131.998 214.149 132.3C215.836 132.603 217.339 132.754 218.657 132.754C223.508 132.754 225.933 130.738 225.933 126.708C225.933 124.289 225.458 122.375 224.509 120.964C223.613 119.553 222.005 118.848 219.685 118.848C217.154 118.848 214.887 119.503 212.884 120.813C210.88 122.072 209.325 123.735 208.218 125.801C207.163 127.867 206.636 130.058 206.636 132.376C206.636 136.356 207.796 139.631 210.116 142.201C212.435 144.72 216.021 145.98 220.871 145.98C221.451 145.98 222.427 145.929 223.798 145.829C224.378 145.778 225.089 145.627 225.933 145.375C226.777 145.123 227.383 144.947 227.752 144.846C230.019 144.09 231.68 143.713 232.734 143.713C233.525 143.713 234.132 143.914 234.553 144.317C233.235 146.232 231.258 147.642 228.622 148.549C226.038 149.406 223.481 149.834 220.951 149.834Z" stroke="black" stroke-width="2" mask="url(#path-9-outside-1_356_801)"/>
<path d="M259.619 156.864C257.457 152.833 255.744 148.097 254.478 142.655C253.266 137.214 252.659 132.503 252.659 128.522C252.659 126.96 253.028 125.953 253.766 125.499C254.188 125.247 254.505 125.121 254.716 125.121C255.085 125.121 255.348 125.399 255.506 125.953C255.717 126.507 255.928 127.515 256.139 128.976L256.535 131.697C257.115 128.976 258.222 126.834 259.856 125.273C261.543 123.66 263.6 122.854 266.025 122.854C268.714 122.854 270.717 123.358 272.036 124.366C273.354 125.323 274.013 126.935 274.013 129.203C271.376 127.993 268.978 127.389 266.816 127.389C264.76 127.389 262.993 127.918 261.517 128.976C260.041 130.034 259.013 131.596 258.433 133.662C257.958 135.072 257.721 136.408 257.721 137.667C257.721 139.028 257.905 140.312 258.275 141.522C258.696 142.68 259.329 144.116 260.173 145.829C260.963 147.593 261.57 149.104 261.992 150.364C262.466 151.624 262.73 152.984 262.782 154.445C262.782 155.302 262.466 155.932 261.833 156.335C261.201 156.687 260.463 156.864 259.619 156.864Z" stroke="black" stroke-width="2" mask="url(#path-9-outside-1_356_801)"/>
</svg>
