<svg width="31" height="28" viewBox="0 0 31 28" fill="none" xmlns="http://www.w3.org/2000/svg">
<path id="Vector" d="M27.5385 16.4608L30.0006 5.20848C30.1784 4.39604 29.5838 3.6224 28.7817 3.6224H8.32431L7.84692 1.19829C7.72796 0.594072 7.21608 0.160156 6.62228 0.160156H1.28223C0.591862 0.160156 0.0322266 0.741434 0.0322266 1.4585V2.32406C0.0322266 3.04112 0.591862 3.6224 1.28223 3.6224H4.92197L8.58072 22.2014C7.7054 22.7242 7.11556 23.7046 7.11556 24.8286C7.11556 26.5017 8.4214 27.8581 10.0322 27.8581C11.6431 27.8581 12.9489 26.5017 12.9489 24.8286C12.9489 23.9807 12.6131 23.2146 12.0726 22.6647H22.9918C22.4513 23.2146 22.1156 23.9807 22.1156 24.8286C22.1156 26.5017 23.4214 27.8581 25.0322 27.8581C26.6431 27.8581 27.9489 26.5017 27.9489 24.8286C27.9489 23.6292 27.2776 22.5927 26.3042 22.1018L26.5915 20.7886C26.7693 19.9761 26.1747 19.2025 25.3726 19.2025H11.3925L11.0516 17.4714H26.3196C26.9032 17.4714 27.4092 17.0519 27.5385 16.4608Z" fill="#B28850"/>
</svg>
